<?xml version="1.0" standalone="no"?><!DOCTYPE svg PUBLIC "-//W3C//DTD SVG 1.1//EN" "http://www.w3.org/Graphics/SVG/1.1/DTD/svg11.dtd"><svg class="icon" width="200px" height="200.00px" viewBox="0 0 1024 1024" version="1.1" xmlns="http://www.w3.org/2000/svg"><path fill="#6e6e6e" d="M768 64H256c-53.12 0-96 42.88-96 96V256h64V160c0-17.92 14.08-32 32-32h512c17.92 0 32 14.08 32 32v704c0 17.92-14.08 32-32 32H256c-17.92 0-32-14.08-32-32V768h-64v96c0 53.12 42.88 96 96 96h512c53.12 0 96-42.88 96-96v-704c0-53.12-42.88-96-96-96zM144 384h96c17.92 0 32-14.08 32-32s-14.08-32-32-32h-96c-17.92 0-32 14.08-32 32s14.08 32 32 32zM144 544h96c17.92 0 32-14.08 32-32s-14.08-32-32-32h-96c-17.92 0-32 14.08-32 32s14.08 32 32 32zM272 672c0-17.92-14.08-32-32-32h-96c-17.92 0-32 14.08-32 32s14.08 32 32 32h96c17.92 0 32-14.08 32-32zM512 496c61.44 0 112-50.56 112-112S573.44 272 512 272 400 322.56 400 384 450.56 496 512 496z m0-160c26.24 0 48 21.76 48 48s-21.76 48-48 48-48-21.76-48-48 21.76-48 48-48zM320 640v80c0 17.92 14.08 32 32 32h320c17.92 0 32-14.08 32-32V640c0-61.44-50.56-112-112-112h-160C370.56 528 320 578.56 320 640z m64 0c0-26.24 21.76-48 48-48h160c26.24 0 48 21.76 48 48v48H384V640z" /></svg>