<?xml version="1.0" standalone="no"?><!DOCTYPE svg PUBLIC "-//W3C//DTD SVG 1.1//EN" "http://www.w3.org/Graphics/SVG/1.1/DTD/svg11.dtd"><svg class="icon" width="200px" height="200.00px" viewBox="0 0 1024 1024" version="1.1" xmlns="http://www.w3.org/2000/svg"><path fill="#6e6e6e" d="M166.912 858.236928l138.24-46.08 24.576 11.264c55.979008 28.672 116.736 43.008 182.272 43.008 111.275008-3.412992 203.947008-39.764992 278.016-109.056s112.468992-153.088 115.2-251.392c-2.731008-98.304-41.131008-182.100992-115.2-251.392S623.275008 148.94592 512 145.532928c-111.275008 3.412992-203.947008 39.764992-278.016 109.056s-112.468992 153.088-115.2 251.392c0 35.499008 6.144 70.656 18.432 105.472s30.379008 67.584 54.272 98.304l22.528 29.696-47.104 118.784z m-47.104 83.968c-12.971008 4.096-24.064 1.195008-33.28-8.704s-11.435008-21.332992-6.656-34.304l59.392-149.504c-27.307008-36.180992-48.468992-74.923008-63.488-116.224-15.019008-41.300992-22.528-83.796992-22.528-127.488 2.731008-112.64 46.420992-210.772992 131.072-294.4s193.876992-127.488 327.68-131.584c133.803008 4.096 243.028992 47.956992 327.68 131.584s128.340992 181.76 131.072 294.4c-2.731008 112.64-46.420992 210.772992-131.072 294.4s-193.876992 127.488-327.68 131.584c-74.411008 0-145.067008-16.384-211.968-49.152l-180.224 59.392z m392.192-384c-9.556992 0-18.260992-2.219008-26.112-6.656-7.851008-4.436992-14.164992-10.923008-18.944-19.456s-7.168-17.236992-7.168-26.112c0-8.875008 2.388992-17.579008 7.168-26.112 4.779008-8.532992 11.092992-15.019008 18.944-19.456s16.555008-6.656 26.112-6.656c15.019008 0 27.476992 4.948992 37.376 14.848 9.899008 9.899008 14.848 22.356992 14.848 37.376 0 15.019008-4.948992 27.476992-14.848 37.376-9.899008 9.899008-22.356992 14.848-37.376 14.848z m196.608 0c-9.556992 0-18.260992-2.219008-26.112-6.656-7.851008-4.436992-14.164992-10.923008-18.944-19.456s-7.168-17.236992-7.168-26.112c0-8.875008 2.388992-17.579008 7.168-26.112 4.779008-8.532992 11.092992-15.019008 18.944-19.456s16.555008-6.656 26.112-6.656c15.019008 0 27.476992 4.948992 37.376 14.848 9.899008 9.899008 14.848 22.356992 14.848 37.376 0 15.019008-4.948992 27.476992-14.848 37.376-9.899008 9.899008-22.356992 14.848-37.376 14.848z m-393.216 0c-9.556992 0-18.260992-2.219008-26.112-6.656-7.851008-4.436992-14.164992-10.923008-18.944-19.456s-7.168-17.236992-7.168-26.112c0-8.875008 2.388992-17.579008 7.168-26.112 4.779008-8.532992 11.092992-15.019008 18.944-19.456s16.555008-6.656 26.112-6.656c15.019008 0 27.476992 4.948992 37.376 14.848 9.899008 9.899008 14.848 22.356992 14.848 37.376 0 15.019008-4.948992 27.476992-14.848 37.376-9.899008 9.899008-22.356992 14.848-37.376 14.848z" /></svg>