<?xml version="1.0" standalone="no"?><!DOCTYPE svg PUBLIC "-//W3C//DTD SVG 1.1//EN"
        "http://www.w3.org/Graphics/SVG/1.1/DTD/svg11.dtd">
<svg class="icon" width="200px" height="200.00px" viewBox="0 0 1024 1024" version="1.1"
     xmlns="http://www.w3.org/2000/svg">
    <path fill="#6e6e6e"
          d="M788.48 629.76c-71.68 0-128 35.84-163.84 92.16L409.6 599.04c15.36-25.6 20.48-56.32 20.48-87.04 0-20.48-5.12-40.96-10.24-56.32L640 332.8c35.84 40.96 87.04 61.44 143.36 61.44 107.52 0 194.56-87.04 194.56-194.56S890.88 5.12 778.24 5.12c-107.52 0-194.56 87.04-194.56 194.56 0 20.48 5.12 40.96 10.24 56.32L378.88 378.88c-35.84-40.96-87.04-66.56-143.36-66.56C128 312.32 40.96 399.36 40.96 512S128 711.68 235.52 711.68c46.08 0 87.04-15.36 117.76-40.96L588.8 808.96v20.48c0 107.52 87.04 194.56 194.56 194.56s194.56-87.04 194.56-194.56C983.04 716.8 896 629.76 788.48 629.76z m0-552.96c66.56 0 117.76 51.2 117.76 117.76s-51.2 117.76-117.76 117.76-117.76-51.2-117.76-117.76c0-61.44 51.2-117.76 117.76-117.76zM240.64 629.76c-66.56 0-117.76-51.2-117.76-117.76s51.2-117.76 117.76-117.76c61.44 0 117.76 51.2 117.76 117.76-5.12 66.56-56.32 117.76-117.76 117.76zM788.48 947.2c-66.56 0-117.76-51.2-117.76-117.76s51.2-117.76 117.76-117.76 117.76 51.2 117.76 117.76c-5.12 61.44-56.32 117.76-117.76 117.76z"/>
</svg>