<?xml version="1.0" standalone="no"?><!DOCTYPE svg PUBLIC "-//W3C//DTD SVG 1.1//EN"
        "http://www.w3.org/Graphics/SVG/1.1/DTD/svg11.dtd">
<svg class="icon" width="200px" height="200.00px" viewBox="0 0 1024 1024" version="1.1"
     xmlns="http://www.w3.org/2000/svg">
    <path d="M936.228571 643.657143c0-14.628571-7.314286-21.942857-14.628571-29.257143-7.314286-7.314286-21.942857-14.628571-29.257143-14.628571H643.657143c-21.942857 0-43.885714 21.942857-43.885714 43.885714v241.371428c0 21.942857 21.942857 43.885714 43.885714 43.885715h241.371428c14.628571 0 21.942857-7.314286 29.257143-14.628572 7.314286-7.314286 14.628571-21.942857 14.628572-29.257143V643.657143z m65.828572 256c0 29.257143-14.628571 51.2-29.257143 73.142857-21.942857 21.942857-43.885714 29.257143-73.142857 29.257143H636.342857c-29.257143 0-51.2-14.628571-73.142857-29.257143-21.942857-21.942857-29.257143-43.885714-29.257143-73.142857V636.342857c0-58.514286 43.885714-102.4 102.4-102.4h256c29.257143 0 51.2 14.628571 73.142857 29.257143 21.942857 21.942857 29.257143 43.885714 29.257143 73.142857l7.314286 263.314286zM424.228571 643.657143c0-14.628571-7.314286-21.942857-14.628571-29.257143-7.314286-7.314286-21.942857-14.628571-29.257143-14.628571H131.657143c-21.942857 0-43.885714 21.942857-43.885714 43.885714v241.371428c0 21.942857 14.628571 43.885714 43.885714 43.885715h241.371428c14.628571 0 21.942857-7.314286 29.257143-14.628572 7.314286-7.314286 14.628571-21.942857 14.628572-29.257143V643.657143z m65.828572 256c0 58.514286-43.885714 102.4-102.4 102.4H124.342857c-29.257143 0-51.2-7.314286-73.142857-29.257143-21.942857-21.942857-29.257143-43.885714-29.257143-73.142857V636.342857c0-29.257143 14.628571-51.2 29.257143-73.142857 21.942857-21.942857 43.885714-29.257143 73.142857-29.257143h263.314286c58.514286 0 102.4 43.885714 102.4 102.4v263.314286z m446.171428-768c0-14.628571-7.314286-21.942857-14.628571-29.257143-7.314286-7.314286-21.942857-14.628571-29.257143-14.628571H643.657143c-21.942857 0-43.885714 21.942857-43.885714 43.885714v241.371428c0 21.942857 21.942857 43.885714 43.885714 43.885715h241.371428c14.628571 0 21.942857-7.314286 29.257143-14.628572 7.314286-7.314286 14.628571-21.942857 14.628572-29.257143V131.657143z m65.828572 256c0 58.514286-43.885714 102.4-102.4 102.4H636.342857c-58.514286 0-102.4-43.885714-102.4-102.4V124.342857c0-29.257143 7.314286-51.2 29.257143-73.142857 21.942857-21.942857 43.885714-29.257143 73.142857-29.257143h256c29.257143 0 51.2 14.628571 73.142857 29.257143 21.942857 21.942857 29.257143 43.885714 29.257143 73.142857l7.314286 263.314286zM424.228571 131.657143c0-14.628571-7.314286-21.942857-14.628571-29.257143-7.314286-7.314286-21.942857-14.628571-29.257143-7.314286H131.657143c-21.942857 0-43.885714 21.942857-43.885714 43.885715v241.371428c0 21.942857 14.628571 43.885714 43.885714 43.885714h241.371428c14.628571 0 21.942857-7.314286 29.257143-14.628571 7.314286-7.314286 14.628571-21.942857 14.628572-29.257143V131.657143z m65.828572 256c0 58.514286-43.885714 102.4-102.4 102.4H124.342857C65.828571 490.057143 21.942857 446.171429 21.942857 387.657143V124.342857c0-29.257143 7.314286-51.2 29.257143-73.142857 21.942857-21.942857 43.885714-29.257143 73.142857-29.257143h263.314286c29.257143 0 51.2 14.628571 73.142857 29.257143 21.942857 21.942857 29.257143 43.885714 29.257143 73.142857v263.314286z m0 0"
          fill="#6e6e6e"/>
</svg>