<?xml version="1.0" standalone="no"?><!DOCTYPE svg PUBLIC "-//W3C//DTD SVG 1.1//EN"
        "http://www.w3.org/Graphics/SVG/1.1/DTD/svg11.dtd">
<svg class="icon" width="200px" height="200.00px" viewBox="0 0 1024 1024" version="1.1"
     xmlns="http://www.w3.org/2000/svg">
    <path d="M938.666667 661.333333h-67.413334c-0.426667-0.853333-0.426667-1.706667-0.853333-2.133333l-128.426667-170.666667a20.48 20.48 0 0 0-17.066666-8.533333H533.333333V362.666667H768c35.413333 0 64-28.586667 64-64V213.333333c0-35.413333-28.586667-64-64-64H256c-35.413333 0-64 28.586667-64 64v85.333334c0 35.413333 28.586667 64 64 64h234.666667v117.333333H298.666667a20.48 20.48 0 0 0-17.066667 8.533333l-128 170.666667c-0.426667 0.853333-0.426667 1.28-0.853333 2.133333H85.333333c-11.946667 0-21.333333 9.386667-21.333333 21.333334v170.666666c0 11.946667 9.386667 21.333333 21.333333 21.333334h170.666667c11.946667 0 21.333333-9.386667 21.333333-21.333334v-170.666666c0-11.946667-9.386667-21.333333-21.333333-21.333334H205.226667l104.106666-138.666666h181.333334v138.666666H426.666667c-11.946667 0-21.333333 9.386667-21.333334 21.333334v170.666666c0 11.946667 9.386667 21.333333 21.333334 21.333334h170.666666c11.946667 0 21.333333-9.386667 21.333334-21.333334v-170.666666c0-11.946667-9.386667-21.333333-21.333334-21.333334h-64v-138.666666h180.906667l104.533333 138.666666H768c-11.946667 0-21.333333 9.386667-21.333333 21.333334v170.666666c0 11.946667 9.386667 21.333333 21.333333 21.333334h170.666667c11.946667 0 21.333333-9.386667 21.333333-21.333334v-170.666666c0-11.946667-9.386667-21.333333-21.333333-21.333334zM234.666667 298.666667V213.333333c0-11.946667 9.386667-21.333333 21.333333-21.333333h512c11.946667 0 21.333333 9.386667 21.333333 21.333333v85.333334c0 11.946667-9.386667 21.333333-21.333333 21.333333H256c-11.946667 0-21.333333-9.386667-21.333333-21.333333z m0 533.333333h-128v-128h128v128z m341.333333 0h-128v-128h128v128z m341.333333 0h-128v-128h128v128z"
          fill="#6E6E6E"/>
</svg>