<?xml version="1.0" standalone="no"?><!DOCTYPE svg PUBLIC "-//W3C//DTD SVG 1.1//EN"
        "http://www.w3.org/Graphics/SVG/1.1/DTD/svg11.dtd">
<svg class="icon" width="200px" height="200.00px" viewBox="0 0 1024 1024" version="1.1"
     xmlns="http://www.w3.org/2000/svg">
    <path d="M926.288 609.632C825.12 746.352 677.12 832.8 511.888 832.8c-165.232 0-313.232-86.448-414.4-223.168-44.64-60.368-44.64-150.08 0-210.464C198.672 262.448 346.672 176 511.904 176c165.248 0 313.248 86.448 414.4 223.168 44.656 60.384 44.656 150.096 0 210.464z m-44.928-160.88c-93.824-135.376-228.864-213.024-370.48-213.024-141.632 0-276.672 77.648-370.496 213.024-22.352 32.256-22.352 79.072 0 111.328C234.208 695.456 369.248 773.12 510.88 773.12c141.616 0 276.656-77.664 370.48-213.056 22.368-32.24 22.368-79.056 0-111.312zM512.192 713.296c-115.472 0-209.072-93.6-209.072-209.072 0-115.456 93.6-209.056 209.072-209.056 115.456 0 209.056 93.6 209.056 209.056 0 115.472-93.6 209.072-209.056 209.072z m0-358.4a149.328 149.328 0 0 0-149.328 149.328 149.328 149.328 0 0 0 149.328 149.344 149.328 149.328 0 0 0 149.328-149.344 149.328 149.328 0 0 0-149.328-149.328z"
          fill="#6e6e6e"/>
</svg>