<?xml version="1.0" standalone="no"?><!DOCTYPE svg PUBLIC "-//W3C//DTD SVG 1.1//EN" "http://www.w3.org/Graphics/SVG/1.1/DTD/svg11.dtd"><svg class="icon" width="200px" height="200.00px" viewBox="0 0 1024 1024" version="1.1" xmlns="http://www.w3.org/2000/svg"><path d="M1024 512C1024 229.2224 794.7776 0 512 0S0 229.2224 0 512s229.2224 512 512 512 512-229.2224 512-512z" fill="#2DB300" /><path d="M484.608 253.3888l18.5856 75.136a275.2512 275.2512 0 0 1 43.4176-3.584c12.4928 0 24.96 1.7408 36.992 5.0944 11.4176 3.072 21.8624 8.96 30.3616 17.152 8.448 8.1664 14.8992 18.6624 19.328 31.488 12.544 35.2768 5.8624 64.128-20.0448 86.5792 24.6528-0.1792 44.5952 5.76 59.8016 17.8176 15.2064 12.032 24.96 32.2048 29.184 60.4928a116.48 116.48 0 0 1-0.4608 39.68c-2.0992 11.1872-6.4 21.8368-12.672 31.3088a100.6336 100.6336 0 0 1-24.6016 24.576c-10.5216 7.6288-21.8112 14.08-33.7152 19.2768-12.0832 5.2992-26.1888 10.368-42.2912 15.1808l18.816 76.0576-45.9264 11.3664-18.5088-74.8544c-15.9232 3.9424-28.0576 6.8352-36.4544 8.704l18.5856 75.136-45.952 11.3664-18.7904-76.032-16.128 3.84c-7.2192 1.664-12.6976 2.944-16.4352 3.8656l-59.6736 14.7712-4.2496-56.8832 33.1008-8.1664c9.9584-2.4576 14.464-8.96 13.5424-19.4816l-29.6704-119.9104 4.8128-1.1776a31.4112 31.4112 0 0 0-4.864 0.896l-21.1712-85.6064c-5.888-12.8768-16.4352-17.4336-31.5392-13.7216l-33.1264 8.192-12.0832-48.896 63.3088-15.36c9.6512-2.3552 19.2768-4.8384 28.8512-7.4496l-18.56-75.136 45.9008-11.3664 18.2272 73.6768a1684.736 1684.736 0 0 1 36.224-9.6l-18.048-73.0624 45.9008-11.3664z m60.8512 269.1584a181.632 181.632 0 0 0-22.7584 2.7648c-8.8832 1.536-15.8208 2.9696-20.7872 4.1728-4.9664 1.2544-11.3664 2.9184-19.1488 5.0688-7.8336 2.1248-12.5184 3.4048-14.08 3.7888l24.9088 100.8384c1.5872-0.4096 5.2736-1.28 11.0592-2.5856a389.376 389.376 0 0 0 30.0544-7.7568 221.7984 221.7984 0 0 0 33.536-12.2368c6.144-2.816 11.3152-5.5552 15.488-8.2688 4.4544-2.944 8.704-6.2208 12.6464-9.7792 4.224-3.7888 7.424-7.7568 9.5488-11.8528 2.1504-4.1216 3.6096-8.704 4.3776-13.7472a40.6784 40.6784 0 0 0-0.9472-15.8976 40.9856 40.9856 0 0 0-9.1648-17.9968 46.1056 46.1056 0 0 0-14.4384-10.9824 58.368 58.368 0 0 0-19.4304-4.864 149.7088 149.7088 0 0 0-20.864-0.6656z m-42.5728-134.784l-4.0192 0.1024a169.472 169.472 0 0 0-18.944 2.1248c-7.424 1.2032-13.2096 2.3808-17.4848 3.5584-4.2496 1.152-9.6 2.56-16.0512 4.2496-6.4 1.7152-10.3424 2.7136-11.7248 3.072l22.6304 91.5712 10.3424-2.4064c5.888-1.3568 10.496-2.5088 13.8496-3.4304 3.3792-0.9216 8.2944-2.3552 14.7712-4.2752a129.792 129.792 0 0 0 16-5.7088c4.1728-1.8688 9.0112-4.224 14.5408-7.0656 5.5296-2.8416 9.9072-5.888 13.1072-9.088 3.328-3.328 6.3232-6.9632 9.0368-10.8032 2.816-3.968 4.5824-8.448 5.2224-13.4656a42.3424 42.3424 0 0 0-1.0752-15.872 40.3712 40.3712 0 0 0-8.0384-16.5376 42.5984 42.5984 0 0 0-12.2112-10.2656 45.9008 45.9008 0 0 0-16.3584-4.8128 103.6032 103.6032 0 0 0-17.6128-0.8448z" fill="#FFFFFF" /></svg>