<?xml version="1.0" standalone="no"?><!DOCTYPE svg PUBLIC "-//W3C//DTD SVG 1.1//EN"
        "http://www.w3.org/Graphics/SVG/1.1/DTD/svg11.dtd">
<svg class="icon" width="200px" height="200.00px" viewBox="0 0 1024 1024" version="1.1"
     xmlns="http://www.w3.org/2000/svg">
    <path fill="#6E6E6E" d="M870.4 160.914c-21.943 0-36.571 14.629-36.571 36.572v665.6c0 43.885-36.572 80.457-80.458 80.457H270.63c-43.886 0-80.458-36.572-80.458-80.457v-665.6c0-21.943-14.628-36.572-36.571-36.572s-36.571 14.629-36.571 36.572v665.6c0 87.771 73.142 160.914 160.914 160.914H753.37c87.772 0 160.915-73.143 160.915-160.914v-665.6c-7.315-14.629-21.943-36.572-43.886-36.572z m80.457 0h-870.4c-21.943 0-36.571 14.629-36.571 36.572s14.628 36.571 36.571 36.571h870.4c21.943 0 36.572-14.628 36.572-36.571s-14.629-36.572-36.572-36.572zM314.514 80.457h394.972c21.943 0 36.571-14.628 36.571-36.571S731.43 7.314 709.486 7.314H314.514c-21.943 0-36.571 14.629-36.571 36.572-7.314 14.628 14.628 36.571 36.571 36.571z"/>
    <path fill="#6E6E6E" d="M380.343 811.886c-21.943 0-36.572-14.629-36.572-36.572V394.971c0-21.942 14.629-36.571 36.572-36.571s36.571 14.629 36.571 36.571v380.343c0 21.943-14.628 36.572-36.571 36.572z m263.314 0c-21.943 0-36.571-14.629-36.571-36.572V394.971c0-21.942 14.628-36.571 36.571-36.571s36.572 14.629 36.572 36.571v380.343c0 21.943-14.629 36.572-36.572 36.572z"/>
</svg>