<?xml version="1.0" standalone="no"?><!DOCTYPE svg PUBLIC "-//W3C//DTD SVG 1.1//EN"
        "http://www.w3.org/Graphics/SVG/1.1/DTD/svg11.dtd">
<svg class="icon" width="200px" height="200.00px" viewBox="0 0 1024 1024" version="1.1"
     xmlns="http://www.w3.org/2000/svg">
    <path fill="#6E6E6E"
          d="M488.24 217.84c12.5-12.5 32.76-12.5 45.25 0l248.9 248.9c24.99 24.99 24.99 65.52 0 90.51l-248.9 248.9c-12.5 12.5-32.76 12.5-45.25 0-12.5-12.5-12.5-32.76 0-45.25L737.14 512l-248.9-248.9c-12.5-12.5-12.5-32.76 0-45.26z"/>
    <path fill="#6E6E6E"
          d="M232.24 217.84c12.5-12.5 32.76-12.5 45.25 0l248.9 248.9c24.99 24.99 24.99 65.52 0 90.51l-248.9 248.9c-12.5 12.5-32.76 12.5-45.25 0-12.5-12.5-12.5-32.76 0-45.25L481.14 512l-248.9-248.9c-12.5-12.5-12.5-32.76 0-45.26z"/>
</svg>