<?xml version="1.0" standalone="no"?><!DOCTYPE svg PUBLIC "-//W3C//DTD SVG 1.1//EN"
        "http://www.w3.org/Graphics/SVG/1.1/DTD/svg11.dtd">
<svg class="icon" width="200px" height="200.00px" viewBox="0 0 1024 1024" version="1.1"
     xmlns="http://www.w3.org/2000/svg">
    <path fill="#6e6e6e" d="M816.527819 288.393895c-28.738552-168.902019-175.456425-288.393895-341.333334-288.393895-19.66322 0-39.32644 1.512555-58.98966 5.041851-188.565239 32.267848-315.619892 211.757755-283.352043 400.322994 19.66322 114.95421 94.282619 207.220089 192.094535 254.109306-151.759724 54.451994-265.705564 186.044313-295.956672 346.375184-1.512555 8.066962 4.033481 16.133924 12.100443 17.64648 1.00837 0 2.016741 0.504185 3.025111 0.504185 7.058592 0 13.612999-5.041851 14.621369-12.100443 30.251108-161.339242 152.263909-291.923191 310.57804-334.274742 33.276219 10.587888 68.569178 16.133924 104.870507 16.133925 19.66322 0 39.32644-1.512555 58.98966-5.041852 189.069424-32.772033 315.619892-211.757755 283.352044-400.322993z m-288.393895 370.071885c-17.64648 3.025111-35.797144 4.537666-53.947809 4.537667-32.267848 0-64.031512-5.041851-94.786804-14.621369-2.016741-1.512555-5.041851-2.520926-7.562777-2.520926-36.301329-12.604628-70.081733-31.259478-100.332841-56.468734-56.97292-47.897587-95.795175-114.95421-108.399803-189.069424-14.621369-83.694732 4.537666-167.389463 53.443624-236.462827S338.05613 48.905958 421.246677 34.788774c17.64648-3.025111 35.797144-4.537666 53.947808-4.537666 73.611029 0 145.709503 26.217627 202.682423 73.611029 57.477105 47.897587 96.29936 115.458395 108.903988 189.573609 29.746923 171.927129-86.215657 335.787297-258.646972 365.030034zM729.807976 695.77548c0 8.571147 7.058592 15.125554 15.125554 15.125554h234.950271c8.066962 0 15.125554-6.554407 15.125554-15.125554s-7.058592-15.125554-15.125554-15.125554h-234.950271c-8.066962 0-15.125554 7.058592-15.125554 15.125554zM979.883801 829.38454H633.004431c-8.571147 0-15.125554 6.554407-15.125554 15.125554 0 8.066962 6.554407 15.125554 15.125554 15.125553h346.87937c8.066962 0 15.125554-7.058592 15.125554-15.125553s-7.058592-15.125554-15.125554-15.125554zM979.883801 978.119153H633.004431c-8.571147 0-15.125554 6.554407-15.125554 15.125554 0 8.066962 6.554407 15.125554 15.125554 15.125554h346.87937c8.066962 0 15.125554-7.058592 15.125554-15.125554 0-8.571147-7.058592-15.125554-15.125554-15.125554z"/>
</svg>