<svg xmlns="http://www.w3.org/2000/svg" fill="none" viewBox="0 0 1071 1387" height="1387" width="1071">
    <g clip-path="url(#clip0_1617_18725)">
        <path fill="url(#paint0_linear_1617_18725)"
              d="M59.3729 1275.39L841.748 823.69C852.993 817.195 862.121 799.761 862.121 784.755V76.8496C862.121 61.8427 852.993 54.9491 841.748 61.4448L59.3729 513.141C48.1145 519.637 39 537.07 39 552.077V1259.98C39 1274.99 48.1145 1281.88 59.3729 1275.39Z"></path>
        <path fill="url(#paint1_linear_1617_18725)"
              d="M128.373 1329.4L910.748 877.69C922.006 871.195 931.121 853.775 931.121 838.768V130.85C931.121 115.843 922.006 108.949 910.748 115.445L128.373 567.154C117.127 573.65 108 591.083 108 606.077V1313.99C108 1329 117.127 1335.9 128.373 1329.4Z"></path>
        <path fill="white"
              d="M146.877 1337.52L929.251 885.819C940.497 879.323 949.624 861.89 949.624 846.883V138.978C949.624 123.971 940.497 117.077 929.251 123.573L146.877 575.27C135.618 581.765 126.504 599.198 126.504 614.205V1322.11C126.504 1337.12 135.618 1344.01 146.877 1337.52Z"
              opacity="0.4"></path>
        <path fill="url(#paint2_linear_1617_18725)"
              d="M203.373 1366.39L985.748 914.685C997.006 908.189 1006.12 890.769 1006.12 875.762V167.844C1006.12 152.837 997.006 145.943 985.748 152.439L203.373 604.148C192.127 610.644 183 628.077 183 643.071V1350.99C183 1366 192.127 1372.89 203.373 1366.39Z"></path>
        <path fill="white"
              d="M220.373 1372.39L1002.75 920.69C1013.99 914.195 1023.12 896.761 1023.12 881.755V173.85C1023.12 158.843 1013.99 151.949 1002.75 158.445L220.373 610.141C209.115 616.637 200 634.07 200 649.077V1356.98C200 1371.99 209.115 1378.88 220.373 1372.39Z"
              opacity="0.4"></path>
        <path fill="url(#paint3_linear_1617_18725)"
              d="M268.265 1384.32L1050.64 932.628C1061.89 926.132 1071.01 908.699 1071.01 893.692V185.774C1071.01 170.78 1061.89 163.95 1050.64 170.369L268.265 622.078C257.007 628.574 247.892 646.007 247.892 661.001V1368.92C247.892 1383.93 257.007 1390.82 268.265 1384.32Z"></path>
        <path fill="white"
              d="M793.186 1034.21L1015.35 905.939C1026.6 899.443 1035.72 882.023 1035.72 867.016V253.209C1035.72 238.202 1026.6 231.308 1015.35 237.804L793.186 366.088C781.941 372.584 772.813 390.017 772.813 405.024V1018.83C772.813 1033.81 781.941 1040.71 793.186 1034.21Z"></path>
        <path fill="url(#paint4_linear_1617_18725)"
              d="M987.919 305.744C1002.7 296.947 1014.75 304.249 1014.75 321.403C1014.22 330.725 1011.51 339.793 1006.83 347.876C1002.16 355.959 995.647 362.831 987.831 367.939C973.052 376.736 961 369.522 961 352.368C961.552 343.039 964.272 333.966 968.945 325.873C973.618 317.779 980.115 310.887 987.919 305.744Z"></path>
        <path fill="#DFE6FD"
              d="M1017.9 784.391C1017.9 779.773 1012.9 776.886 1008.9 779.195L833 880.735C831.144 881.807 830 883.788 830 885.932V908.231C830 912.85 835 915.737 839 913.428L1014.9 811.888C1016.76 810.816 1017.9 808.835 1017.9 806.691V784.391Z"></path>
        <path fill="#0FD3FF"
              d="M941.03 738.06C937.309 740.292 934.085 745.498 934.085 749.961C934.085 754.424 937.309 756.159 941.03 753.928L1011.22 713.515C1014.94 711.284 1018.16 706.077 1018.16 701.615C1018.16 697.152 1015.19 695.416 1011.22 697.648L941.03 738.06Z"></path>
        <path fill="#3C84E5"
              d="M964.096 686.243C960.376 688.475 957.151 693.681 957.151 698.144C957.151 702.607 960.376 704.342 964.096 702.111L1011.47 674.839C1015.19 672.607 1018.41 667.401 1018.41 662.938C1018.41 658.475 1015.19 656.74 1011.47 658.971L964.096 686.243Z"></path>
        <path fill="#F68AC6"
              d="M873.119 780.705C869.399 782.936 866.175 788.143 866.175 792.605C866.175 797.068 869.399 798.804 873.119 796.572L912.803 773.515C916.523 771.283 919.748 766.077 919.748 761.614C919.748 757.151 916.523 755.416 912.803 757.647L873.119 780.705Z"></path>
        <path fill="#0FD3FF"
              d="M801.193 857.811C797.472 860.043 794.248 865.249 794.248 869.712C794.248 874.175 797.472 875.91 801.193 873.679L863.694 837.481C867.414 835.25 870.639 830.043 870.639 825.58C870.639 821.118 867.414 819.382 863.694 821.614L801.193 857.811Z"></path>
        <path fill="#5C52E1"
              d="M800.945 822.357C797.224 824.589 794 829.795 794 834.258C794 838.721 797.224 840.456 800.945 838.225L840.628 815.167C844.348 812.936 847.573 807.729 847.573 803.266C847.573 798.804 844.596 797.068 840.628 799.3L800.945 822.357Z"></path>
        <path fill="#5C52E1"
              d="M895.937 803.018C892.217 805.25 888.993 810.456 888.993 814.919C888.993 819.382 891.969 821.117 895.937 818.886L958.439 782.688C962.159 780.457 965.383 775.25 965.383 770.787C965.383 766.325 962.159 764.589 958.439 766.821L895.937 803.018Z"></path>
        <path fill="#F68AC6"
              d="M800.945 783.928C797.224 786.159 794 791.366 794 795.828C794 800.291 797.224 802.027 800.945 799.795L935.868 721.945C939.589 719.714 942.813 714.507 942.813 710.044C942.813 705.581 939.589 703.846 935.868 706.077L800.945 783.928Z"></path>
        <path fill="#F68AC6"
              d="M986.914 747.234C983.193 749.465 979.969 754.672 979.969 759.135C979.969 763.597 983.193 765.333 986.914 763.101L1011.47 748.969C1015.19 746.738 1018.41 741.531 1018.41 737.069C1018.41 732.606 1015.44 730.87 1011.47 733.102L986.914 747.234Z"></path>
        <path fill="url(#paint5_linear_1617_18725)"
              d="M303.555 1031.06L734.802 782.097C746.047 775.588 755.174 758.168 755.174 743.161V415.178C755.174 400.171 746.047 393.278 734.802 399.773L303.555 648.819C292.297 655.314 283.182 672.748 283.182 687.755V1015.66C283.182 1030.65 292.297 1037.55 303.555 1031.06Z"></path>
        <path fill="white"
              d="M686.545 484.542L718.305 466.21C721.707 464.233 724.48 458.957 724.48 454.412C724.48 449.855 721.707 447.776 718.305 449.74L686.545 468.071C683.13 470.048 680.358 475.325 680.358 479.869C680.358 484.426 683.13 486.519 686.545 484.542Z"></path>
        <path fill="white"
              d="M629.201 517.649L660.947 499.317C664.349 497.341 667.122 492.064 667.122 487.52C667.122 482.963 664.349 480.883 660.947 482.847L629.188 501.179C625.773 503.156 623 508.432 623 512.976C623.013 517.534 625.786 519.588 629.201 517.649Z"></path>
        <path fill="white" d="M374.931 958.085L309.64 995.775V691.118L374.931 726.357V958.085Z" opacity="0.4"></path>
        <path fill="white" d="M516.078 876.593L450.8 914.283V644.903L516.078 674.262V876.593Z" opacity="0.4"></path>
        <path fill="white" d="M586.658 835.847L521.38 873.537V675.918L586.658 693.506V835.847Z" opacity="0.4"></path>
        <path fill="white" d="M591.96 832.792L657.238 795.101V612.771L591.96 684.571V832.792Z" opacity="0.4"></path>
        <path fill="white" d="M727.818 754.342L662.54 792.033V612.065L727.818 699.064V754.342Z" opacity="0.4"></path>
        <path fill="white" d="M380.22 955.029L445.511 917.339V643.26L380.22 726.832V955.029Z" opacity="0.4"></path>
        <path stroke-miterlimit="10" stroke-width="3.3" stroke="white"
              d="M728.255 698.217L659.883 610.062L586.222 690.823L517.413 671.733L448.156 640.551L380.22 726.831L312.285 689.59"></path>
        <path fill="white"
              d="M666.211 616.258C668.848 610.06 668.146 603.828 664.642 602.337C661.139 600.846 656.161 604.662 653.524 610.86C650.887 617.057 651.589 623.29 655.092 624.781C658.596 626.271 663.573 622.456 666.211 616.258Z"></path>
        <path fill="white"
              d="M525.053 674.222C527.69 668.025 526.988 661.792 523.484 660.301C519.981 658.811 515.003 662.626 512.366 668.824C509.729 675.022 510.431 681.254 513.934 682.745C517.438 684.236 522.415 680.42 525.053 674.222Z"></path>
        <path fill="white"
              d="M455.355 645.056C457.993 638.858 457.29 632.625 453.787 631.135C450.284 629.644 445.306 633.46 442.669 639.658C440.032 645.855 440.734 652.088 444.237 653.579C447.74 655.069 452.718 651.253 455.355 645.056Z"></path>
        <path fill="white"
              d="M318.623 692.244C321.26 686.047 320.558 679.814 317.055 678.323C313.551 676.833 308.573 680.648 305.936 686.846C303.299 693.044 304.001 699.276 307.505 700.767C311.008 702.258 315.986 698.442 318.623 692.244Z"></path>
        <path fill="white"
              d="M734.147 701.732C736.784 695.535 736.082 689.302 732.579 687.812C729.075 686.321 724.097 690.137 721.46 696.334C718.823 702.532 719.525 708.765 723.029 710.255C726.532 711.746 731.51 707.93 734.147 701.732Z"></path>
        <path fill="white"
              d="M595.632 689.938C598.269 683.74 597.567 677.507 594.064 676.017C590.56 674.526 585.583 678.342 582.945 684.539C580.308 690.737 581.01 696.97 584.514 698.46C588.017 699.951 592.995 696.135 595.632 689.938Z"></path>
        <path fill="white"
              d="M384.775 730.516C387.412 724.318 386.71 718.085 383.206 716.595C379.703 715.104 374.725 718.92 372.088 725.117C369.451 731.315 370.153 737.548 373.657 739.038C377.16 740.529 382.138 736.713 384.775 730.516Z"></path>
        <path fill="url(#paint6_linear_1617_18725)"
              d="M303.555 1054.58L734.802 805.538C746.047 799.042 755.174 805.936 755.174 820.942V1028.91C755.174 1043.92 746.047 1061.35 734.802 1067.84L303.555 1316.89C292.297 1323.39 283.182 1316.49 283.182 1301.48V1093.52C283.182 1078.56 292.297 1061.08 303.555 1054.58Z"
              opacity="0.65"></path>
        <path fill="#FF94CF"
              d="M732.904 999.391C732.904 994.773 727.904 991.886 723.904 994.195L548 1095.74C546.144 1096.81 545 1098.79 545 1100.93V1123.23C545 1127.85 550 1130.74 554 1128.43L729.904 1026.89C731.76 1025.82 732.904 1023.84 732.904 1021.69V999.391Z"></path>
        <path fill="#DFE6FD"
              d="M724.176 853.422C724.176 849.698 720.128 847.385 716.92 849.276L602.369 916.781C600.901 917.647 600 919.224 600 920.928V920.928C600 924.652 604.048 926.965 607.256 925.074L721.807 857.568C723.275 856.703 724.176 855.126 724.176 853.422V853.422Z"
              opacity="0.6"></path>
        <path fill="#DFE6FD"
              d="M724.176 882.542C724.176 878.818 720.127 876.507 716.92 878.401L648.51 918.814C647.045 919.68 646.147 921.254 646.147 922.955V922.955C646.147 926.679 650.197 928.99 653.403 927.096L721.813 886.683C723.278 885.817 724.176 884.243 724.176 882.542V882.542Z"
              opacity="0.6"></path>
        <path fill="#DFE6FD"
              d="M311.548 1108.98C311.786 1107.34 312.775 1105.9 314.224 1105.08L493.186 1004.56C497.308 1002.24 502.307 1005.62 501.701 1010.31V1010.31C501.467 1012.11 500.389 1013.7 498.796 1014.59L319.448 1114.43C315.577 1116.58 310.914 1113.37 311.548 1108.98V1108.98Z"></path>
        <path fill="#DFE6FD"
              d="M311.486 1144.51C311.71 1142.9 312.667 1141.48 314.078 1140.66L535.639 1012.74C539.726 1010.38 544.751 1013.71 544.173 1018.39V1018.39C543.952 1020.18 542.902 1021.76 541.34 1022.65L319.348 1149.82C315.537 1152.01 310.88 1148.86 311.486 1144.51V1144.51Z"></path>
        <path fill="#DFE6FD"
              d="M311.558 1183.48C311.79 1181.88 312.739 1180.48 314.134 1179.68L620.636 1002.74C624.725 1000.38 629.751 1003.71 629.172 1008.39V1008.39C628.952 1010.18 627.903 1011.76 626.343 1012.65L319.382 1188.8C315.576 1190.98 310.926 1187.82 311.558 1183.48V1183.48Z"></path>
        <path fill="#DFE6FD"
              d="M311.489 1218.49C311.712 1216.89 312.657 1215.48 314.054 1214.66L495.607 1108.81C499.679 1106.44 504.704 1109.77 504.099 1114.45V1114.45C503.872 1116.2 502.84 1117.75 501.308 1118.64L319.346 1223.78C315.546 1225.97 310.883 1222.84 311.489 1218.49V1218.49Z"></path>
        <path fill="#DFE6FD"
              d="M311.486 1254.35C311.711 1252.74 312.665 1251.32 314.074 1250.5L449.463 1172.1C453.543 1169.73 458.561 1173.08 457.956 1177.75V1177.75C457.728 1179.52 456.685 1181.07 455.14 1181.96L319.352 1259.67C315.538 1261.86 310.88 1258.7 311.486 1254.35V1254.35Z"></path>
        <path fill="url(#paint7_linear_1617_18725)"
              d="M806.837 450.938L887.122 404.595C894.183 400.513 899.96 389.575 899.96 380.204C899.96 370.781 894.234 366.455 887.122 370.538L806.837 416.881C799.777 420.963 794 431.9 794 441.272C794.051 450.694 799.777 455.02 806.837 450.938Z"></path>
        <path fill="#DFE6FD"
              d="M799.289 516.97L1009.26 395.746C1012.18 394.065 1014.55 389.533 1014.55 385.631C1014.55 381.779 1012.18 379.944 1009.26 381.625L799.289 502.849C796.362 504.53 794 509.062 794 512.965C794 516.803 796.362 518.6 799.289 516.97Z"></path>
        <path fill="#DFE6FD"
              d="M799.289 554.545L1009.26 433.321C1012.18 431.64 1014.55 427.108 1014.55 423.205C1014.55 419.354 1012.18 417.518 1009.26 419.213L799.289 540.436C796.362 542.118 794 546.65 794 550.552C794 554.442 796.362 556.239 799.289 554.545Z"></path>
        <path fill="#DFE6FD"
              d="M799.289 629.836L1009.26 508.613C1012.18 506.918 1014.55 502.386 1014.55 498.497C1014.55 494.646 1012.18 492.81 1009.26 494.492L799.289 615.715C796.362 617.409 794 621.928 794 625.831C794 629.733 796.362 631.518 799.289 629.836Z"></path>
        <path fill="#DFE6FD"
              d="M799.289 667.475L1009.26 546.252C1012.18 544.557 1014.55 540.038 1014.55 536.136C1014.55 532.285 1012.18 530.449 1009.26 532.131L799.289 653.354C796.362 655.049 794 659.58 794 663.47C794 667.373 796.362 669.17 799.289 667.475Z"></path>
        <path fill="#DFE6FD"
              d="M865.453 553.993L1009.23 470.961C1012.16 469.279 1014.52 464.747 1014.52 460.858C1014.52 457.006 1012.16 455.158 1009.23 456.852L865.453 539.872C862.526 541.566 860.164 546.085 860.164 549.988C860.164 553.89 862.526 555.675 865.453 553.993Z"></path>
    </g>
    <defs>
        <linearGradient gradientUnits="userSpaceOnUse" y2="1272.23" x2="450.554" y1="399.733" x1="450.554"
                        id="paint0_linear_1617_18725">
            <stop stop-color="#BFD1FF" offset="0.02"></stop>
            <stop stop-color="white" offset="1"></stop>
        </linearGradient>
        <linearGradient gradientUnits="userSpaceOnUse" y2="1161.11" x2="519.554" y1="436.983" x1="519.554"
                        id="paint1_linear_1617_18725">
            <stop stop-color="#2575F2" offset="0.02"></stop>
            <stop stop-color="#6A11C1" offset="1"></stop>
        </linearGradient>
        <linearGradient gradientUnits="userSpaceOnUse" y2="1198.11" x2="594.554" y1="473.977" x1="594.554"
                        id="paint2_linear_1617_18725">
            <stop stop-color="#2575F2" offset="0.02"></stop>
            <stop stop-color="#6A11C1" offset="1"></stop>
        </linearGradient>
        <linearGradient gradientUnits="userSpaceOnUse" y2="1381.17" x2="659.446" y1="508.686" x1="659.446"
                        id="paint3_linear_1617_18725">
            <stop stop-color="#BFD1FF" offset="0.02"></stop>
            <stop stop-color="white" offset="1"></stop>
        </linearGradient>
        <linearGradient gradientUnits="userSpaceOnUse" y2="336.886" x2="961" y1="336.886" x1="1014.75"
                        id="paint4_linear_1617_18725">
            <stop stop-color="#6070E3"></stop>
            <stop stop-color="#EE84C5" offset="1"></stop>
        </linearGradient>
        <linearGradient gradientUnits="userSpaceOnUse" y2="845.68" x2="836.477" y1="983.228" x1="302.962"
                        id="paint5_linear_1617_18725">
            <stop stop-color="#2575F2" offset="0.02"></stop>
            <stop stop-color="#B881FF" offset="1"></stop>
        </linearGradient>
        <linearGradient gradientUnits="userSpaceOnUse" y2="1068.17" x2="308.756" y1="1372.84" x1="655.016"
                        id="paint6_linear_1617_18725">
            <stop stop-color="#9CCFF7"></stop>
            <stop stop-color="#2E7FEB" offset="1"></stop>
        </linearGradient>
        <linearGradient gradientUnits="userSpaceOnUse" y2="364.401" x2="815.143" y1="444.096" x1="869.92"
                        id="paint7_linear_1617_18725">
            <stop stop-color="#F477BB" offset="0.02"></stop>
            <stop stop-color="#F695CC" offset="1"></stop>
        </linearGradient>
        <clipPath id="clip0_1617_18725">
            <rect fill="white" height="1387" width="1071"></rect>
        </clipPath>
    </defs>
</svg>
