<?xml version="1.0" standalone="no"?><!DOCTYPE svg PUBLIC "-//W3C//DTD SVG 1.1//EN"
        "http://www.w3.org/Graphics/SVG/1.1/DTD/svg11.dtd">
<svg class="icon" width="200px" height="200.00px" viewBox="0 0 1024 1024" version="1.1"
     xmlns="http://www.w3.org/2000/svg">
    <path d="M969.04533333 511.77244445c0-252.24533333-204.45866667-456.704-456.704-456.704S55.63733333 259.52711111 55.63733333 511.77244445s204.45866667 456.704 456.704 456.704 456.704-204.45866667 456.704-456.704z"
          fill="#38AF7B"/>
    <path d="M512.34133333 1020.928c-280.80355555 0-509.26933333-228.46577778-509.26933333-509.26933333C3.072 230.96888889 231.53777778 2.50311111 512.34133333 2.50311111S1021.49688889 230.96888889 1021.49688889 511.77244445c0 280.68977778-228.352 509.15555555-509.15555556 509.15555555z m0-908.97066667c-220.50133333 0-399.81511111 179.31377778-399.81511111 399.81511112 0 220.50133333 179.31377778 399.81511111 399.81511111 399.8151111 220.38755555 0 399.81511111-179.31377778 399.81511112-399.8151111 0-220.50133333-179.42755555-399.81511111-399.81511112-399.81511112z"
          fill="#38AF7B33"/>
    <path d="M623.38844445 403.34222222c-23.552 7.96444445-49.03822222-4.77866667-56.8888889-28.55822222-5.80266667-17.29422222-27.53422222-37.66044445-69.85955555-37.66044445-32.88177778 0-52.224 21.39022222-54.38577778 42.5528889-2.73066667 26.28266667 21.04888889 47.33155555 63.60177778 56.32C607.57333333 457.38666667 646.82666667 528.83911111 640.56888889 590.05155555c-5.68888889 55.63733333-45.62488889 100.352-98.98666667 116.736v27.53422223c0 24.91733333-20.13866667 45.16977778-44.94222222 45.16977777s-45.056-20.25244445-45.056-45.16977777v-26.16888889c-61.78133333-14.336-97.73511111-56.32-110.13688889-93.75288889-7.85066667-23.66577778 4.77866667-49.26577778 28.44444444-57.11644445 23.552-7.96444445 49.03822222 4.89244445 56.8888889 28.44444445 6.25777778 18.77333333 30.26488889 37.66044445 69.85955555 37.66044445 32.768 0 52.224-21.39022222 54.38577778-42.43911112 2.73066667-26.28266667-21.04888889-47.33155555-63.60177778-56.32-101.83111111-21.39022222-140.97066667-92.84266667-134.71288889-154.05511111 5.68888889-55.63733333 45.62488889-100.352 98.98666667-116.736v-27.53422222c0-24.91733333 20.13866667-45.16977778 45.056-45.16977778 24.80355555 0 45.056 20.25244445 45.056 45.16977778v26.16888889c61.66755555 14.336 97.62133333 56.32 110.13688889 93.75288889 7.62311111 23.552-5.00622222 49.152-28.55822222 57.11644444z"
          fill="#ffffff"/>
</svg>