<?xml version="1.0" standalone="no"?><!DOCTYPE svg PUBLIC "-//W3C//DTD SVG 1.1//EN"
        "http://www.w3.org/Graphics/SVG/1.1/DTD/svg11.dtd">
<svg class="icon" width="200px" height="199.42px" viewBox="0 0 1027 1024" version="1.1"
     xmlns="http://www.w3.org/2000/svg">
    <path d="M514.295306 0c282.175758 0 510.910309 228.525887 510.910309 510.431155s-228.742279 510.431155-510.910309 510.431154S3.384996 792.328694 3.384996 510.431155 232.119547 0 514.295306 0z"
          fill="#38AF7B"/>
    <path d="M654.077102 522.943275H490.901736c-13.339049 0-24.104574-10.881449-24.104574-24.351879 0-13.462702 10.773253-24.344151 24.104574-24.344151h163.175366c13.339049 0 24.104574 10.881449 24.104573 24.344151 0 13.47043-10.865992 24.351879-24.104573 24.351879z m0 96.356468H490.901736c-13.339049 0-24.104574-10.873721-24.104574-24.351879 0-13.462702 10.773253-24.336423 24.104574-24.336422h163.175366c13.339049 0 24.104574 10.873721 24.104573 24.336422 0 13.478158-10.865992 24.351879-24.104573 24.351879zM764.854581 698.87034V390.943879c0-37.404981-33.741766-33.880875-33.741766-33.880875s-201.445917 0.200936-190.672664 0c-11.491985 0.200936-17.334581-6.113087-17.334581-6.113087s-7.998792-13.988226-22.458445-35.95206c-15.077917-23.099894-32.621162-19.374853-32.621163-19.374853H319.719849c-41.122294 0-41.539623 39.993962-41.539623 39.993962v361.282657c0 44.55366 33.332166 39.058838 33.332166 39.058837h422.668559c35.697026 0 30.67363-37.088121 30.67363-37.08812z m-30.256302-18.238793c0 13.779562-10.981917 24.869675-24.62237 24.869676H333.05117c-13.648181 0-24.614642-11.090113-24.614642-24.869676V422.854038c0-13.779562 10.96646-24.869675 24.614642-24.869676h376.924739c13.640453 0 24.62237 11.090113 24.62237 24.869676V680.631547z m-358.979622-182.040151c0 14.366913 11.522898 26.005736 25.742973 26.005736s25.742974-11.638823 25.742974-26.005736c0-14.359185-11.522898-25.998008-25.742974-25.998007s-25.742974 11.631094-25.742973 25.998007z m0 96.34874c0 14.359185 11.522898 26.005736 25.742973 26.005736s25.742974-11.646551 25.742974-26.005736c0-14.351457-11.522898-25.998008-25.742974-25.998008s-25.742974 11.646551-25.742973 25.998008z"
          fill="#FFFFFF"/>
</svg>