<?xml version="1.0" standalone="no"?><!DOCTYPE svg PUBLIC "-//W3C//DTD SVG 1.1//EN" "http://www.w3.org/Graphics/SVG/1.1/DTD/svg11.dtd"><svg class="icon" width="200px" height="200.00px" viewBox="0 0 1024 1024" version="1.1" xmlns="http://www.w3.org/2000/svg"><path d="M945 261.6L672 70.2c-13.8-9.7-32.7-8.1-44.7 3.7-55 54.3-175.8 54.3-230.8 0-12-11.9-31-13.4-44.7-3.7L79 261.6C67 270 61.5 285 65.2 299.2l44.6 168.6c4.4 16.5 19.9 27.4 36.9 25.9l94.1-8.2v439.2c0 19.3 15.7 35 35 35h472.4c19.3 0 35-15.7 35-35V485.5l94.1 8.2c17 1.5 32.5-9.5 36.9-25.9l44.6-168.6c3.7-14.2-1.8-29.2-13.8-37.6z m-433-76.9c37.8 0 73.7-7.5 104.9-21.2-0.9 57.1-47.6 103.3-104.9 103.3s-104-46.2-104.9-103.3c31.2 13.7 67.1 21.2 104.9 21.2z m342 236.7l-102.8-9c-9.8-0.9-19.5 2.4-26.7 9.1-7.2 6.6-11.3 16-11.3 25.8v442.4H310.8V447.3c0-9.8-4.1-19.2-11.3-25.8-7.2-6.6-16.9-9.9-26.7-9.1l-102.8 9-30.8-116.6L337.1 166c2.3 94.5 79.9 170.7 174.9 170.7S684.7 260.5 686.9 166l197.9 138.8L854 421.4z" fill="#040000" /></svg>