<?xml version="1.0" standalone="no"?><!DOCTYPE svg PUBLIC "-//W3C//DTD SVG 1.1//EN"
        "http://www.w3.org/Graphics/SVG/1.1/DTD/svg11.dtd">
<svg class="icon" width="200px" height="200.00px" viewBox="0 0 1024 1024" version="1.1"
     xmlns="http://www.w3.org/2000/svg">
    <path d="M241.024 110.250667a32 32 0 0 1 26.624-14.250667H384a32 32 0 0 1 32 32 96 96 0 0 0 192 0 32 32 0 0 1 32-32h116.352a32 32 0 0 1 26.624 14.250667l139.648 209.493333a32 32 0 0 1-5.802667 42.026667l-111.018666 95.146666V896a32 32 0 0 1-32 32H250.197333a32 32 0 0 1-32-32V456.917333l-111.018666-95.146666a32 32 0 0 1-5.802667-42.069334l139.648-209.450666zM284.757333 160L170.368 331.605333l100.650667 86.272a32 32 0 0 1 11.178666 24.32v421.802667h459.605334v-421.802667a32 32 0 0 1 11.178666-24.32l100.693334-86.272-114.432-171.605333h-70.442667a160.042667 160.042667 0 0 1-313.6 0h-70.4z"
          fill="#6e6e6e"/>
</svg>