<?xml version="1.0" standalone="no"?><!DOCTYPE svg PUBLIC "-//W3C//DTD SVG 1.1//EN" "http://www.w3.org/Graphics/SVG/1.1/DTD/svg11.dtd">
<svg height="8887" node-id="1" sillyvg="true" template-height="8887" template-width="11927" version="1.1"
     viewBox="0 0 11927 8887" width="11927" xmlns="http://www.w3.org/2000/svg"><defs node-id="176"></defs><path d="M 11926.20 7809.24 L 0.00 7809.24 L 0.00 7815.21 L 11926.20 7815.21 L 11926.20 7809.24 Z" fill="#e6e6e6" fill-rule="nonzero" node-id="178" stroke="none" target-height="5.9697266" target-width="11926.2" target-x="0" target-y="7809.24"></path><path d="M 2977.24 8170.13 L 2187.26 8170.13 L 2187.26 8176.09 L 2977.24 8176.09 L 2977.24 8170.13 Z" fill="#e6e6e6" fill-rule="nonzero" node-id="180" stroke="none" target-height="5.959961" target-width="789.98" target-x="2187.26" target-y="8170.13"></path><path d="M 1937.28 8170.13 L 1479.56 8170.13 L 1479.56 8176.09 L 1937.28 8176.09 L 1937.28 8170.13 Z" fill="#e6e6e6" fill-rule="nonzero" node-id="182" stroke="none" target-height="5.959961" target-width="457.71997" target-x="1479.56" target-y="8170.13"></path><path d="M 5022.10 8257.91 L 4564.38 8257.91 L 4564.38 8263.87 L 5022.10 8263.87 L 5022.10 8257.91 Z" fill="#e6e6e6" fill-rule="nonzero" node-id="184" stroke="none" target-height="5.959961" target-width="457.7202" target-x="4564.38" target-y="8257.91"></path><path d="M 7408.76 8391.00 L 6378.58 8391.00 L 6378.58 8396.97 L 7408.76 8396.97 L 7408.76 8391.00 Z" fill="#e6e6e6" fill-rule="nonzero" node-id="186" stroke="none" target-height="5.9697266" target-width="1030.1797" target-x="6378.58" target-y="8391"></path><path d="M 6166.30 8391.00 L 6015.31 8391.00 L 6015.31 8396.97 L 6166.30 8396.97 L 6166.30 8391.00 Z" fill="#e6e6e6" fill-rule="nonzero" node-id="188" stroke="none" target-height="5.9697266" target-width="150.98975" target-x="6015.31" target-y="8391"></path><path d="M 10813.40 8257.91 L 8578.96 8257.91 L 8578.96 8263.87 L 10813.40 8263.87 L 10813.40 8257.91 Z" fill="#e6e6e6" fill-rule="nonzero" node-id="190" stroke="none" target-height="5.959961" target-width="2234.4404" target-x="8578.96" target-y="8257.91"></path><path d="M 5653.00 6745.43 L 1047.35 6745.43 C 1011.27 6745.37 976.69 6730.99 951.20 6705.46 C 925.71 6679.92 911.40 6645.32 911.40 6609.23 L 911.40 135.00 C 911.71 99.13 926.17 64.83 951.62 39.55 C 977.08 14.27 1011.48 0.06 1047.35 0.00 L 5653.00 0.00 C 5689.12 0.00 5723.76 14.35 5749.30 39.89 C 5774.84 65.43 5789.19 100.08 5789.19 136.20 L 5789.19 6609.23 C 5789.19 6645.36 5774.84 6680.00 5749.30 6705.54 C 5723.76 6731.08 5689.12 6745.43 5653.00 6745.43 Z M 1047.35 4.77 C 1012.86 4.83 979.79 18.58 955.42 43.00 C 931.05 67.42 917.36 100.50 917.36 135.00 L 917.36 6609.23 C 917.36 6643.73 931.05 6676.82 955.42 6701.24 C 979.79 6725.66 1012.86 6739.41 1047.35 6739.47 L 5653.00 6739.47 C 5687.52 6739.41 5720.61 6725.66 5745.02 6701.25 C 5769.43 6676.84 5783.17 6643.76 5783.23 6609.23 L 5783.23 135.00 C 5783.17 100.48 5769.43 67.39 5745.02 42.98 C 5720.61 18.57 5687.52 4.83 5653.00 4.77 L 1047.35 4.77 Z" fill="#e6e6e6" fill-rule="nonzero" node-id="192" stroke="none" target-height="6745.43" target-width="4877.794" target-x="911.396" target-y="0"></path><path d="M 10812.50 6745.43 L 6206.61 6745.43 C 6170.51 6745.37 6135.90 6731.00 6110.37 6705.47 C 6084.84 6679.94 6070.47 6645.34 6070.41 6609.23 L 6070.41 135.00 C 6070.79 99.11 6085.30 64.81 6110.79 39.54 C 6136.28 14.27 6170.71 0.06 6206.61 0.00 L 10812.50 0.00 C 10848.30 0.12 10882.70 14.37 10908.10 39.64 C 10933.50 64.91 10947.90 99.17 10948.20 135.00 L 10948.20 6609.23 C 10948.20 6645.27 10933.90 6679.84 10908.50 6705.37 C 10883.00 6730.90 10848.50 6745.31 10812.50 6745.43 Z M 6206.61 4.77 C 6172.09 4.83 6139.00 18.57 6114.59 42.98 C 6090.18 67.39 6076.44 100.48 6076.37 135.00 L 6076.37 6609.23 C 6076.44 6643.76 6090.18 6676.84 6114.59 6701.25 C 6139.00 6725.66 6172.09 6739.41 6206.61 6739.47 L 10812.50 6739.47 C 10847.00 6739.41 10880.10 6725.66 10904.50 6701.25 C 10928.90 6676.84 10942.70 6643.76 10942.70 6609.23 L 10942.70 135.00 C 10942.70 100.48 10928.90 67.39 10904.50 42.98 C 10880.10 18.57 10847.00 4.83 10812.50 4.77 L 6206.61 4.77 Z" fill="#e6e6e6" fill-rule="nonzero" node-id="194" stroke="none" target-height="6745.43" target-width="4877.79" target-x="6070.41" target-y="0"></path><path d="M 6378.11 5771.78 L 5853.59 5771.78 L 5853.59 7852.42 L 6378.11 7852.42 L 6378.11 5771.78 Z" fill="#e0e0e0" fill-rule="nonzero" node-id="196" stroke="none" target-height="2080.6401" target-width="524.52" target-x="5853.59" target-y="5771.78"></path><path d="M 6278.40 7852.42 L 6378.11 7852.42 L 6378.11 7569.05 L 6173.93 7569.05 L 6278.40 7852.42 Z" fill="#fafafa" fill-rule="nonzero" node-id="198" stroke="none" target-height="283.37012" target-width="204.17969" target-x="6173.93" target-y="7569.05"></path><path d="M 4079.70 5771.78 L 3555.19 5771.78 L 3555.19 7852.42 L 4079.70 7852.42 L 4079.70 5771.78 Z" fill="#e0e0e0" fill-rule="nonzero" node-id="200" stroke="none" target-height="2080.6401" target-width="524.51" target-x="3555.19" target-y="5771.78"></path><path d="M 6378.11 5771.78 L 3992.88 5771.78 L 3992.88 7678.53 L 6378.11 7678.53 L 6378.11 5771.78 Z" fill="#fafafa" fill-rule="nonzero" node-id="202" stroke="none" target-height="1906.75" target-width="2385.23" target-x="3992.88" target-y="5771.78"></path><path d="M 6291.52 5865.52 L 6291.52 6370.00 L 4078.74 6370.00 L 4078.74 5865.52 L 6290.81 5865.52 M 6300.11 5856.22 L 4070.16 5856.22 L 4070.16 6379.06 L 6300.83 6379.06 L 6300.83 5856.22 L 6300.11 5856.22 Z" fill="#e0e0e0" fill-rule="nonzero" node-id="204" stroke="none" target-height="522.83984" target-width="2230.6702" target-x="4070.16" target-y="5856.22"></path><path d="M 4092.34 7852.42 L 3992.88 7852.42 L 3992.88 7569.05 L 4196.81 7569.05 L 4092.34 7852.42 Z" fill="#fafafa" fill-rule="nonzero" node-id="206" stroke="none" target-height="283.37012" target-width="203.93018" target-x="3992.88" target-y="7569.05"></path><path d="M 5132.78 6117.64 C 5132.78 6128.07 5135.87 6138.26 5141.66 6146.93 C 5147.45 6155.59 5155.69 6162.35 5165.32 6166.34 C 5174.95 6170.33 5185.55 6171.37 5195.77 6169.34 C 5206.00 6167.31 5215.39 6162.29 5222.77 6154.91 C 5230.14 6147.54 5235.16 6138.15 5237.19 6127.92 C 5239.23 6117.70 5238.18 6107.10 5234.19 6097.47 C 5230.20 6087.84 5223.45 6079.60 5214.78 6073.81 C 5206.11 6068.02 5195.92 6064.93 5185.49 6064.93 C 5171.51 6064.93 5158.10 6070.48 5148.22 6080.37 C 5138.33 6090.25 5132.78 6103.66 5132.78 6117.64 Z" fill="#e6e6e6" fill-rule="nonzero" node-id="208" stroke="none" target-height="106.43994" target-width="106.450195" target-x="5132.78" target-y="6064.93"></path><path d="M 6291.52 6472.80 L 6291.52 6977.28 L 4078.74 6977.28 L 4078.74 6472.80 L 6290.81 6472.80 M 6300.11 6463.74 L 4070.16 6463.74 L 4070.16 6986.58 L 6300.83 6986.58 L 6300.83 6463.98 L 6300.11 6463.74 Z" fill="#e0e0e0" fill-rule="nonzero" node-id="210" stroke="none" target-height="522.83984" target-width="2230.6702" target-x="4070.16" target-y="6463.74"></path><path d="M 5132.78 6726.35 C 5132.78 6736.78 5135.87 6746.97 5141.66 6755.64 C 5147.45 6764.31 5155.69 6771.06 5165.32 6775.05 C 5174.95 6779.04 5185.55 6780.08 5195.77 6778.05 C 5206.00 6776.02 5215.39 6771.00 5222.77 6763.62 C 5230.14 6756.25 5235.16 6746.86 5237.19 6736.63 C 5239.23 6726.41 5238.18 6715.81 5234.19 6706.18 C 5230.20 6696.55 5223.45 6688.31 5214.78 6682.52 C 5206.11 6676.73 5195.92 6673.64 5185.49 6673.64 C 5171.51 6673.64 5158.10 6679.19 5148.22 6689.08 C 5138.33 6698.96 5132.78 6712.37 5132.78 6726.35 Z" fill="#e6e6e6" fill-rule="nonzero" node-id="212" stroke="none" target-height="106.43994" target-width="106.450195" target-x="5132.78" target-y="6673.64"></path><path d="M 6291.52 7080.32 L 6291.52 7585.03 L 4078.74 7585.03 L 4078.74 7080.32 L 6290.81 7080.32 M 6300.11 7071.02 L 4070.16 7071.02 L 4070.16 7594.10 L 6300.83 7594.10 L 6300.83 7071.02 L 6300.11 7071.02 Z" fill="#e0e0e0" fill-rule="nonzero" node-id="214" stroke="none" target-height="523.0801" target-width="2230.6702" target-x="4070.16" target-y="7071.02"></path><path d="M 5132.78 7332.68 C 5132.83 7343.09 5135.96 7353.26 5141.78 7361.90 C 5147.60 7370.53 5155.85 7377.25 5165.48 7381.21 C 5175.12 7385.16 5185.71 7386.17 5195.92 7384.11 C 5206.13 7382.05 5215.50 7377.01 5222.85 7369.63 C 5230.20 7362.25 5235.19 7352.85 5237.21 7342.63 C 5239.22 7332.42 5238.17 7321.83 5234.17 7312.21 C 5230.17 7302.59 5223.42 7294.37 5214.75 7288.59 C 5206.09 7282.81 5195.91 7279.72 5185.49 7279.72 C 5178.55 7279.72 5171.67 7281.10 5165.26 7283.76 C 5158.85 7286.42 5153.03 7290.33 5148.13 7295.25 C 5143.23 7300.17 5139.36 7306.01 5136.72 7312.43 C 5134.09 7318.85 5132.75 7325.73 5132.78 7332.68 Z" fill="#e6e6e6" fill-rule="nonzero" node-id="216" stroke="none" target-height="106.44971" target-width="106.470215" target-x="5132.75" target-y="7279.72"></path><path d="M 3759.36 4563.42 L 3234.85 4563.42 L 3234.85 7852.66 L 3759.36 7852.66 L 3759.36 4563.42 Z" fill="#e0e0e0" fill-rule="nonzero" node-id="218" stroke="none" target-height="3289.2402" target-width="524.51" target-x="3234.85" target-y="4563.42"></path><path d="M 3659.66 7852.42 L 3759.36 7852.42 L 3759.36 7569.05 L 3555.42 7569.05 L 3659.66 7852.42 Z" fill="#fafafa" fill-rule="nonzero" node-id="220" stroke="none" target-height="283.37012" target-width="203.94019" target-x="3555.42" target-y="7569.05"></path><path d="M 1799.18 4563.42 L 1274.67 4563.42 L 1274.67 7852.66 L 1799.18 7852.66 L 1799.18 4563.42 Z" fill="#e0e0e0" fill-rule="nonzero" node-id="222" stroke="none" target-height="3289.2402" target-width="524.51" target-x="1274.67" target-y="4563.42"></path><path d="M 3759.36 4563.42 L 1712.12 4563.42 L 1712.12 7678.77 L 3759.36 7678.77 L 3759.36 4563.42 Z" fill="#fafafa" fill-rule="nonzero" node-id="224" stroke="none" target-height="3115.35" target-width="2047.2401" target-x="1712.12" target-y="4563.42"></path><path d="M 3671.11 4651.20 L 3671.11 5356.51 L 1800.37 5356.51 L 1800.37 4651.20 L 3671.11 4651.20 Z M 3682.08 4640.47 L 1788.92 4640.47 L 1788.92 5366.77 L 3681.60 5366.77 L 3681.60 4640.71 L 3682.08 4640.47 Z" fill="#e0e0e0" fill-rule="nonzero" node-id="226" stroke="none" target-height="726.2998" target-width="1893.16" target-x="1788.92" target-y="4640.47"></path><path d="M 3671.11 5442.62 L 3671.11 7313.35 L 2779.99 7313.35 L 2779.99 5442.62 L 3671.11 5442.62 Z M 3682.08 5431.65 L 2769.25 5431.65 L 2769.25 7324.33 L 3682.08 7324.33 L 3682.08 5431.65 Z" fill="#e0e0e0" fill-rule="nonzero" node-id="228" stroke="none" target-height="1892.6802" target-width="912.8301" target-x="2769.25" target-y="5431.65"></path><path d="M 2691.49 5442.62 L 2691.49 7313.35 L 1800.37 7313.35 L 1800.37 5442.62 L 2691.49 5442.62 Z M 2702.23 5431.65 L 1788.92 5431.65 L 1788.92 7324.33 L 2701.75 7324.33 L 2701.75 5431.65 L 2702.23 5431.65 Z" fill="#e0e0e0" fill-rule="nonzero" node-id="230" stroke="none" target-height="1892.6802" target-width="913.30994" target-x="1788.92" target-y="5431.65"></path><path d="M 1811.82 7852.42 L 1712.12 7852.42 L 1712.12 7569.05 L 1916.29 7569.05 L 1811.82 7852.42 Z" fill="#fafafa" fill-rule="nonzero" node-id="232" stroke="none" target-height="283.37012" target-width="204.17004" target-x="1712.12" target-y="7569.05"></path><path d="M 2682.91 5004.21 C 2682.86 5014.70 2685.92 5024.96 2691.71 5033.70 C 2697.50 5042.44 2705.76 5049.26 2715.43 5053.30 C 2725.10 5057.35 2735.75 5058.43 2746.04 5056.42 C 2756.33 5054.40 2765.79 5049.38 2773.22 5041.98 C 2780.65 5034.58 2785.71 5025.15 2787.78 5014.87 C 2789.84 5004.59 2788.80 4993.93 2784.80 4984.24 C 2780.80 4974.55 2774.02 4966.27 2765.30 4960.44 C 2756.59 4954.61 2746.34 4951.50 2735.86 4951.50 C 2721.86 4951.50 2708.42 4957.05 2698.50 4966.93 C 2688.58 4976.80 2682.97 4990.21 2682.91 5004.21 Z" fill="#e6e6e6" fill-rule="nonzero" node-id="234" stroke="none" target-height="106.930176" target-width="106.97998" target-x="2682.86" target-y="4951.5"></path><path d="M 2871.82 6333.50 C 2871.82 6343.99 2874.93 6354.23 2880.76 6362.95 C 2886.59 6371.66 2894.87 6378.45 2904.56 6382.45 C 2914.25 6386.45 2924.91 6387.48 2935.19 6385.42 C 2945.47 6383.36 2954.90 6378.29 2962.30 6370.86 C 2969.69 6363.43 2974.72 6353.97 2976.73 6343.69 C 2978.75 6333.40 2977.67 6322.75 2973.62 6313.07 C 2969.58 6303.40 2962.75 6295.15 2954.01 6289.36 C 2945.27 6283.57 2935.01 6280.50 2924.53 6280.55 C 2917.59 6280.55 2910.71 6281.92 2904.30 6284.59 C 2897.89 6287.25 2892.07 6291.15 2887.17 6296.07 C 2882.27 6301.00 2878.40 6306.83 2875.76 6313.26 C 2873.13 6319.68 2871.79 6326.56 2871.82 6333.50 Z" fill="#e6e6e6" fill-rule="nonzero" node-id="236" stroke="none" target-height="106.97998" target-width="106.95996" target-x="2871.79" target-y="6280.5"></path><path d="M 2494.23 6333.50 C 2494.28 6343.92 2497.41 6354.09 2503.23 6362.72 C 2509.06 6371.36 2517.30 6378.08 2526.94 6382.03 C 2536.58 6385.99 2547.17 6387.00 2557.38 6384.94 C 2567.59 6382.88 2576.96 6377.84 2584.31 6370.45 C 2591.65 6363.07 2596.65 6353.68 2598.67 6343.46 C 2600.68 6333.24 2599.62 6322.66 2595.63 6313.04 C 2591.63 6303.42 2584.87 6295.20 2576.21 6289.42 C 2567.55 6283.64 2557.36 6280.55 2546.95 6280.55 C 2540.01 6280.55 2533.13 6281.92 2526.72 6284.59 C 2520.31 6287.25 2514.49 6291.15 2509.59 6296.07 C 2504.69 6300.99 2500.81 6306.83 2498.18 6313.26 C 2495.54 6319.68 2494.20 6326.56 2494.23 6333.50 Z" fill="#e6e6e6" fill-rule="nonzero" node-id="238" stroke="none" target-height="106.450195" target-width="106.47998" target-x="2494.2" target-y="6280.55"></path><path d="M 2434.61 3646.30 L 2213.49 3646.30 C 2233.87 3753.56 2246.70 3862.12 2251.90 3971.17 C 2251.90 4090.43 2083.50 4563.42 2323.45 4563.42 C 2563.41 4563.42 2395.01 4091.63 2395.01 3971.17 C 2400.60 3862.09 2413.83 3753.53 2434.61 3646.30 Z" fill="#e0e0e0" fill-rule="nonzero" node-id="240" stroke="none" target-height="917.1199" target-width="479.9099" target-x="2083.5" target-y="3646.3"></path><path d="M 1593.33 4130.03 L 1593.33 4273.14 C 1593.59 4349.86 1624.17 4423.37 1678.42 4477.62 C 1732.67 4531.87 1806.18 4562.46 1882.90 4562.71 L 2026.01 4562.71 C 2102.74 4562.46 2176.24 4531.87 2230.49 4477.62 C 2284.74 4423.37 2315.33 4349.86 2315.58 4273.14 L 2315.58 4130.03 L 1593.33 4130.03 Z" fill="#f5f5f5" fill-rule="nonzero" node-id="242" stroke="none" target-height="432.68018" target-width="722.2501" target-x="1593.33" target-y="4130.03"></path><path d="M 4667.18 5468.38 C 4667.18 5635.35 4853.94 5771.78 5082.21 5771.78 L 5288.29 5771.78 C 5516.56 5771.78 5703.32 5635.35 5703.32 5468.38 L 4667.18 5468.38 Z" fill="#e0e0e0" fill-rule="nonzero" node-id="244" stroke="none" target-height="303.3999" target-width="1036.1396" target-x="4667.18" target-y="5468.38"></path><path d="M 10127.90 5223.65 C 10002.90 5325.74 9830.25 5512.51 9672.35 5775.36 C 9566.92 5950.43 9503.47 6133.14 9475.57 6375.96 C 9475.57 6101.66 9477.24 5807.08 9478.19 5528.96 C 9509.91 5457.41 9582.43 5292.35 9634.42 5162.12 C 9807.83 4727.29 9872.95 4620.19 10028.70 4245.23 C 10236.90 3744.33 10450.20 3151.37 10389.10 3198.83 C 10264.60 3295.43 9787.55 4188.70 9736.03 4316.55 C 9595.60 4657.74 9508.78 5018.60 9478.67 5386.33 C 9478.67 5123.95 9480.58 4885.43 9481.53 4700.33 C 9484.87 4096.63 9495.13 3901.76 9500.13 3841.65 C 9519.46 3811.12 9542.11 3775.58 9555.47 3756.50 C 9667.58 3594.30 9710.75 3456.44 9816.18 3214.57 C 9965.97 2872.29 10094.80 2264.30 10057.10 2294.83 C 9900.14 2422.68 9776.58 2696.98 9613.91 3046.89 C 9451.24 3396.81 9497.75 3597.88 9465.55 3896.51 C 9458.87 3955.19 9453.62 4176.54 9449.81 4483.04 C 9407.83 4156.26 9328.64 3941.12 9184.33 3745.53 C 9006.87 3504.86 8835.13 3342.42 8709.19 3257.51 C 8583.25 3172.59 8926.73 3763.66 9090.83 4020.78 C 9237.04 4250.72 9371.81 4453.23 9448.61 4652.87 C 9444.56 5068.61 9442.65 5594.80 9442.65 6084.01 C 9404.96 5861.23 9343.42 5621.03 9261.37 5435.22 C 9162.62 5211.97 9010.92 4869.45 8889.99 4753.29 C 8861.13 4725.38 9016.41 5391.57 9116.11 5568.56 C 9215.81 5745.54 9289.04 5912.75 9351.77 6013.17 C 9366.32 6037.02 9414.98 6126.94 9442.65 6178.94 C 9442.65 6776.92 9445.99 7304.53 9451.24 7484.14 L 9477.00 7484.14 C 9475.33 7437.86 9474.85 7133.51 9475.57 6730.88 C 9537.82 6512.39 9679.98 6262.90 9797.33 6035.35 C 9925.18 5788.95 10252.90 5122.28 10127.90 5223.65 Z" fill="#e0e0e0" fill-rule="nonzero" node-id="246" stroke="none" target-height="5219.84" target-width="1866.9502" target-x="8583.25" target-y="2264.3"></path><path d="M 9837.64 7852.42 L 9090.11 7852.42 L 9033.58 7119.68 L 9894.17 7119.68 L 9837.64 7852.42 Z" fill="#f0f0f0" fill-rule="nonzero" node-id="248" stroke="none" target-height="732.73975" target-width="860.58984" target-x="9033.58" target-y="7119.68"></path><path d="M 9949.75 7205.07 L 8977.77 7205.07 L 8950.10 6957.72 L 9977.66 6957.72 L 9949.75 7205.07 Z" fill="#f5f5f5" fill-rule="nonzero" node-id="250" stroke="none" target-height="247.34961" target-width="1027.5605" target-x="8950.1" target-y="6957.72"></path><path d="M 2963.89 488.97 L 1626.97 488.97 L 1626.97 1957.08 L 2963.89 1957.08 L 2963.89 488.97 Z" fill="#e0e0e0" fill-rule="nonzero" node-id="252" stroke="none" target-height="1468.1069" target-width="1336.9199" target-x="1626.97" target-y="488.973"></path><path d="M 3108.67 488.97 L 1727.62 488.97 L 1727.62 1957.08 L 3108.67 1957.08 L 3108.67 488.97 Z" fill="#f5f5f5" fill-rule="nonzero" node-id="254" stroke="none" target-height="1468.1069" target-width="1381.0499" target-x="1727.62" target-y="488.973"></path><path d="M 2992.99 1841.40 L 2992.99 604.66 L 1843.31 604.66 L 1843.31 1841.40 L 2992.99 1841.40 Z" fill="#ffffff" fill-rule="nonzero" node-id="256" stroke="none" target-height="1236.744" target-width="1149.6799" target-x="1843.31" target-y="604.656"></path><path d="M 2714.15 1541.34 L 2714.15 904.24 L 2121.90 904.24 L 2121.90 1541.34 L 2714.15 1541.34 Z" fill="#f5f5f5" fill-rule="nonzero" node-id="258" stroke="none" target-height="637.1" target-width="592.25" target-x="2121.9" target-y="904.24"></path><path d="M 9780.64 659.99 L 8538.65 659.99 L 8538.65 2023.87 L 9780.64 2023.87 L 9780.64 659.99 Z" fill="#e0e0e0" fill-rule="nonzero" node-id="260" stroke="none" target-height="1363.876" target-width="1241.9893" target-x="8538.65" target-y="659.994"></path><path d="M 9915.16 659.99 L 8632.39 659.99 L 8632.39 2023.87 L 9915.16 2023.87 L 9915.16 659.99 Z" fill="#f5f5f5" fill-rule="nonzero" node-id="262" stroke="none" target-height="1363.876" target-width="1282.7705" target-x="8632.39" target-y="659.994"></path><path d="M 9807.83 1916.29 L 9807.83 767.57 L 8739.96 767.57 L 8739.96 1916.29 L 9807.83 1916.29 Z" fill="#ffffff" fill-rule="nonzero" node-id="264" stroke="none" target-height="1148.7241" target-width="1067.8701" target-x="8739.96" target-y="767.566"></path><path d="M 9273.78 1675.15 C 9457.81 1675.15 9606.99 1525.96 9606.99 1341.93 C 9606.99 1157.90 9457.81 1008.71 9273.78 1008.71 C 9089.74 1008.71 8940.56 1157.90 8940.56 1341.93 C 8940.56 1525.96 9089.74 1675.15 9273.78 1675.15 Z" fill="#f5f5f5" fill-rule="nonzero" node-id="266" stroke="none" target-height="666.44" target-width="666.43066" target-x="8940.56" target-y="1008.71"></path><path d="M 4352.81 1364.35 L 3361.03 1364.35 L 3361.03 2453.45 L 4352.81 2453.45 L 4352.81 1364.35 Z" fill="#e0e0e0" fill-rule="nonzero" node-id="268" stroke="none" target-height="1089.1" target-width="991.78" target-x="3361.03" target-y="1364.35"></path><path d="M 4460.14 1364.35 L 3435.69 1364.35 L 3435.69 2453.45 L 4460.14 2453.45 L 4460.14 1364.35 Z" fill="#f5f5f5" fill-rule="nonzero" node-id="270" stroke="none" target-height="1089.1" target-width="1024.4502" target-x="3435.69" target-y="1364.35"></path><path d="M 4374.27 2367.58 L 4374.27 1450.22 L 3521.55 1450.22 L 3521.55 2367.58 L 4374.27 2367.58 Z" fill="#ffffff" fill-rule="nonzero" node-id="272" stroke="none" target-height="917.3601" target-width="852.72" target-x="3521.55" target-y="1450.22"></path><path d="M 3948.03 1676.82 L 3714.76 2080.87 L 4181.31 2080.87 L 3948.03 1676.82 Z" fill="#f5f5f5" fill-rule="nonzero" node-id="274" stroke="none" target-height="404.05017" target-width="466.55005" target-x="3714.76" target-y="1676.82"></path><path d="M 5963.08 8886.41 C 8517.24 8886.41 10587.80 8765.53 10587.80 8616.41 C 10587.80 8467.28 8517.24 8346.40 5963.08 8346.40 C 3408.91 8346.40 1338.35 8467.28 1338.35 8616.41 C 1338.35 8765.53 3408.91 8886.41 5963.08 8886.41 Z" fill="#f5f5f5" fill-rule="nonzero" node-id="276" stroke="none" target-height="540.00977" target-width="9249.45" target-x="1338.35" target-y="8346.4"></path><path d="M 8330.42 2586.31 L 8093.80 2490.90 C 8093.80 2490.90 7781.58 3060.25 7692.13 3089.11 C 7570.48 3128.23 7318.60 3237.00 7169.29 3256.08 C 7149.01 3279.93 7115.86 3354.11 7118.96 3381.06 C 7319.56 3448.09 7760.35 3359.12 7854.80 3288.99 C 8069.71 3129.90 8330.42 2586.31 8330.42 2586.31 Z" fill="#e58a7b" fill-rule="nonzero" node-id="278" stroke="none" target-height="957.1902" target-width="1214.56" target-x="7115.86" target-y="2490.9"></path><path d="M 8403.17 2456.79 C 8447.29 2619.70 8208.29 2947.43 8208.29 2947.43 L 7895.11 2771.88 C 7895.11 2771.88 7953.79 2637.11 8025.35 2499.96 C 8140.08 2278.37 8352.84 2270.98 8403.17 2456.79 Z" fill="#429cfd" fill-rule="nonzero" node-id="280" stroke="none" target-height="676.44995" target-width="552.1802" target-x="7895.11" target-y="2270.98"></path><g node-id="588"><path d="M 8403.17 2456.79 C 8447.29 2619.70 8208.29 2947.43 8208.29 2947.43 L 7895.11 2771.88 C 7895.11 2771.88 7953.79 2637.11 8025.35 2499.96 C 8140.08 2278.37 8352.84 2270.98 8403.17 2456.79 Z" fill="#000000" fill-opacity="0.2" fill-rule="nonzero" group-id="1" node-id="284" stroke="none" target-height="676.44995" target-width="552.1802" target-x="7895.11" target-y="2270.98"></path></g><g node-id="589"><path d="M 8019.38 2842.00 L 8142.70 2911.17 L 8164.41 2532.64 C 8092.61 2587.74 8042.04 2753.75 8019.38 2842.00 Z" fill="#000000" fill-opacity="0.2" fill-rule="nonzero" group-id="2" node-id="289" stroke="none" target-height="378.53003" target-width="145.03027" target-x="8019.38" target-y="2532.64"></path></g><path d="M 8197.08 2334.19 C 8197.08 2334.19 7953.31 2876.59 8095.47 3886.49 L 9056.00 3886.49 C 9071.27 3739.09 9020.70 3019.70 9203.65 2325.12 C 9098.28 2304.53 8991.67 2290.90 8884.51 2284.34 C 8748.58 2276.46 8612.32 2276.46 8476.39 2284.34 C 8382.17 2293.90 8288.80 2310.57 8197.08 2334.19 Z" fill="#429cfd" fill-rule="nonzero" node-id="292" stroke="none" target-height="1610.03" target-width="1250.3403" target-x="7953.31" target-y="2276.46"></path><path d="M 8197.08 2334.19 C 8197.08 2334.19 7953.31 2876.59 8095.47 3886.49 L 9056.00 3886.49 C 9071.27 3739.09 9020.70 3019.70 9203.65 2325.12 C 9098.28 2304.53 8991.67 2290.90 8884.51 2284.34 C 8748.58 2276.46 8612.32 2276.46 8476.39 2284.34 C 8382.17 2293.90 8288.80 2310.57 8197.08 2334.19 Z" fill="#000000" fill-opacity="0.2" fill-rule="nonzero" group-id="3" node-id="296" stroke="none" target-height="1610.03" target-width="1250.3403" target-x="7953.31" target-y="2276.46"></path><path d="M 7974.30 8637.88 C 7972.87 8663.64 8337.10 8684.39 8787.67 8684.39 C 9238.24 8684.39 9605.08 8663.64 9606.52 8637.88 C 9607.95 8612.11 9243.96 8591.60 8793.15 8591.60 C 8342.34 8591.60 7975.97 8612.35 7974.30 8637.88 Z" fill="#e8ecf1" fill-rule="nonzero" group-id="4" node-id="301" stroke="none" target-height="92.79004" target-width="1635.0801" target-x="7972.87" target-y="8591.6"></path><path d="M 8615.47 7961.01 L 8445.10 8026.96 L 8591.85 8406.06 L 8762.22 8340.11 L 8615.47 7961.01 Z" fill="#e58a7b" fill-rule="nonzero" node-id="304" stroke="none" target-height="445.0498" target-width="317.12012" target-x="8445.1" target-y="7961.01"></path><path d="M 9375.15 8454.45 L 9195.54 8454.45 L 9129.71 8038.70 L 9309.32 8038.70 L 9375.15 8454.45 Z" fill="#e58a7b" fill-rule="nonzero" node-id="306" stroke="none" target-height="415.75" target-width="245.44043" target-x="9129.71" target-y="8038.7"></path><path d="M 9183.14 8433.70 L 9384.93 8433.70 C 9388.43 8433.71 9391.81 8434.96 9394.48 8437.23 C 9397.14 8439.50 9398.91 8442.65 9399.48 8446.10 L 9425.48 8605.67 C 9426.02 8609.68 9425.70 8613.75 9424.54 8617.62 C 9423.37 8621.49 9421.38 8625.06 9418.71 8628.09 C 9416.04 8631.12 9412.75 8633.55 9409.06 8635.19 C 9405.37 8636.84 9401.37 8637.67 9397.33 8637.63 C 9326.97 8636.44 9293.10 8632.15 9204.37 8632.15 C 9149.74 8632.15 9037.40 8637.87 8961.55 8637.87 C 8885.70 8637.87 8880.69 8563.45 8911.94 8556.54 C 9052.19 8526.24 9106.57 8484.98 9153.32 8444.91 C 9161.56 8437.67 9172.17 8433.68 9183.14 8433.70 Z" fill="#263238" fill-rule="nonzero" node-id="308" stroke="none" target-height="204.19043" target-width="545.3291" target-x="8880.69" target-y="8433.68"></path><path d="M 8586.83 8372.16 L 8777.65 8316.35 C 8781.05 8315.39 8784.68 8315.62 8787.94 8317.01 C 8791.19 8318.40 8793.87 8320.86 8795.54 8323.98 L 8867.09 8467.09 C 8868.76 8470.72 8869.61 8474.67 8869.58 8478.67 C 8869.56 8482.66 8868.67 8486.60 8866.96 8490.21 C 8865.26 8493.82 8862.79 8497.02 8859.72 8499.58 C 8856.65 8502.13 8853.06 8503.99 8849.21 8505.02 C 8779.80 8524.10 8733.28 8535.79 8646.46 8561.07 C 8586.59 8578.48 8525.53 8606.87 8466.38 8625.71 C 8425.35 8638.83 8328.99 8639.31 8279.14 8639.31 C 8205.43 8639.31 8188.97 8561.55 8220.70 8557.97 C 8300.60 8549.14 8311.34 8553.20 8355.46 8531.02 C 8427.66 8499.46 8493.10 8454.26 8548.19 8397.92 C 8558.58 8386.08 8571.91 8377.19 8586.83 8372.16 Z" fill="#263238" fill-rule="nonzero" node-id="310" stroke="none" target-height="323.91992" target-width="680.64014" target-x="8188.97" target-y="8315.39"></path><path d="M 7199.34 3255.12 L 7001.84 3172.36 L 6920.51 3391.32 C 7001.46 3403.65 7083.81 3403.65 7164.76 3391.32 L 7199.34 3255.12 Z" fill="#e58a7b" fill-rule="nonzero" node-id="312" stroke="none" target-height="231.2898" target-width="278.83008" target-x="6920.51" target-y="3172.36"></path><path d="M 6854.91 3166.63 L 6849.67 3312.13 L 6920.51 3390.84 L 7001.84 3171.88 L 6854.91 3166.63 Z" fill="#e58a7b" fill-rule="nonzero" node-id="314" stroke="none" target-height="224.2102" target-width="152.16992" target-x="6849.67" target-y="3166.63"></path><path d="M 8638.84 7993.20 L 8467.94 8059.18 L 8543.63 8255.22 L 8714.52 8189.24 L 8638.84 7993.20 Z" fill="#cf6f64" fill-rule="nonzero" node-id="316" stroke="none" target-height="262.01953" target-width="246.5791" target-x="8467.94" target-y="7993.2"></path><path d="M 9309.32 8038.70 L 9129.71 8038.70 L 9163.82 8253.14 L 9343.42 8253.14 L 9309.32 8038.70 Z" fill="#cf6f64" fill-rule="nonzero" node-id="318" stroke="none" target-height="214.43945" target-width="213.70996" target-x="9129.71" target-y="8038.7"></path><path d="M 8064.94 3613.38 C 8068.52 3656.56 8072.57 3700.68 8077.82 3746.00 L 8791.96 3514.16 C 8903.48 3481.11 9000.41 3411.02 9066.74 3315.47 C 9069.60 3251.78 9073.18 3184.76 9078.66 3114.87 C 9081.05 3081.00 9083.91 3046.18 9087.01 3010.88 C 9090.11 2975.57 9094.41 2936.46 9098.94 2898.77 L 8064.94 3613.38 Z" fill="#000000" fill-opacity="0.2" fill-rule="nonzero" group-id="5" node-id="322" stroke="none" target-height="847.23" target-width="1034.0005" target-x="8064.94" target-y="2898.77"></path><path d="M 8298.22 2831.03 L 8274.36 2828.17 C 8288.44 2708.91 8377.41 2614.93 8471.15 2617.31 L 8471.15 2641.17 C 8389.09 2639.50 8310.86 2724.17 8298.22 2831.03 Z" fill="#ffffff" fill-rule="nonzero" node-id="325" stroke="none" target-height="216.1001" target-width="196.79004" target-x="8274.36" target-y="2614.93"></path><path d="M 8425.35 3051.19 L 8421.29 3051.19 L 8421.29 3027.33 C 8503.35 3030.43 8580.39 2944.81 8593.03 2838.19 L 8616.88 2841.05 C 8604.24 2957.69 8518.14 3051.19 8425.35 3051.19 Z" fill="#ffffff" fill-rule="nonzero" node-id="327" stroke="none" target-height="213" target-width="195.58984" target-x="8421.29" target-y="2838.19"></path><path d="M 8871.15 1824.70 C 8837.52 1956.13 8797.92 2196.80 8884.51 2284.34 C 8884.51 2284.34 8823.92 2417.67 8579.91 2417.67 C 8356.89 2417.67 8476.39 2284.34 8476.39 2284.34 C 8624.75 2249.51 8627.38 2141.22 8607.82 2038.66 L 8871.15 1824.70 Z" fill="#e58a7b" fill-rule="nonzero" node-id="329" stroke="none" target-height="592.97" target-width="527.6201" target-x="8356.89" target-y="1824.7"></path><path d="M 8763.81 1912.00 L 8608.06 2038.66 C 8612.89 2062.22 8615.68 2086.17 8616.41 2110.21 C 8661.96 2155.53 8753.32 2040.80 8762.62 1982.13 C 8767.35 1959.03 8767.75 1935.25 8763.81 1912.00 Z" fill="#cf6f64" fill-rule="nonzero" node-id="331" stroke="none" target-height="243.53003" target-width="159.69043" target-x="8608.06" target-y="1912"></path><path d="M 8340.20 1823.03 C 8351.03 1841.82 8365.63 1858.16 8383.07 1871.05 C 8400.52 1883.94 8420.43 1893.09 8441.57 1897.93 C 8498.81 1910.57 8527.44 1857.86 8511.70 1804.90 C 8497.62 1757.20 8450.63 1693.04 8392.43 1704.01 C 8379.97 1706.58 8368.30 1712.10 8358.40 1720.10 C 8348.50 1728.11 8340.67 1738.37 8335.56 1750.02 C 8330.44 1761.68 8328.19 1774.39 8329.00 1787.09 C 8329.81 1799.79 8333.65 1812.12 8340.20 1823.03 Z" fill="#cf6f64" fill-rule="nonzero" node-id="333" stroke="none" target-height="217.5299" target-width="199.25" target-x="8328.19" target-y="1693.04"></path><path d="M 8434.89 1402.51 C 8345.68 1443.30 8314.20 1797.75 8426.30 1850.22 C 8538.41 1902.70 8603.77 1324.99 8434.89 1402.51 Z" fill="#263238" fill-rule="nonzero" node-id="335" stroke="none" target-height="577.70996" target-width="289.56934" target-x="8314.2" target-y="1324.99"></path><path d="M 8898.34 1626.97 C 8876.87 1804.90 8874.49 1909.62 8779.08 2000.73 C 8749.51 2030.97 8712.17 2052.45 8671.17 2062.79 C 8630.16 2073.14 8587.10 2071.96 8546.73 2059.37 C 8506.35 2046.79 8470.24 2023.29 8442.39 1991.48 C 8414.53 1959.66 8396.00 1920.76 8388.86 1879.08 C 8359.99 1719.27 8399.83 1455.23 8578.24 1384.39 C 8615.73 1367.85 8656.96 1361.65 8697.65 1366.41 C 8738.34 1371.17 8777.02 1386.73 8809.68 1411.48 C 8842.33 1436.23 8867.77 1469.26 8883.36 1507.15 C 8898.95 1545.03 8904.12 1586.40 8898.34 1626.97 Z" fill="#e58a7b" fill-rule="nonzero" node-id="337" stroke="none" target-height="711.48987" target-width="544.1299" target-x="8359.99" target-y="1361.65"></path><path d="M 8605.20 1494.59 C 8737.34 1460.95 8834.42 1438.06 8799.59 1548.01 C 8753.56 1694.94 8698.22 1837.10 8772.40 1843.54 C 8817.72 1847.60 9018.08 1762.69 8992.56 1676.58 C 8970.37 1601.68 9064.11 1581.17 9080.81 1543.24 C 9142.59 1405.85 8965.84 1423.98 8997.33 1340.50 C 9028.81 1257.02 8854.21 1122.49 8758.80 1189.51 C 8603.53 1297.80 8337.10 1296.13 8477.11 1117.96 C 8577.53 990.83 8398.40 1016.82 8398.40 1016.82 C 8398.40 1016.82 8506.69 1080.99 8324.45 1180.21 C 8131.73 1286.12 8308.47 1570.67 8605.20 1494.59 Z" fill="#263238" fill-rule="nonzero" node-id="339" stroke="none" target-height="856.77496" target-width="1010.85986" target-x="8131.73" target-y="990.825"></path><path d="M 8968.47 1823.03 C 8942.38 1860.78 8903.19 1887.48 8858.51 1897.93 C 8799.59 1910.57 8776.93 1857.86 8799.12 1804.90 C 8818.91 1757.20 8873.30 1693.04 8929.59 1704.01 C 8985.88 1714.98 8998.76 1776.28 8968.47 1823.03 Z" fill="#e58a7b" fill-rule="nonzero" node-id="341" stroke="none" target-height="217.5299" target-width="221.83008" target-x="8776.93" target-y="1693.04"></path><path d="M 8095.47 3886.49 C 8095.47 3886.49 7934.23 5329.56 7921.59 5877.21 C 7908.71 6446.80 8468.05 8224.04 8468.05 8224.04 L 8754.27 8104.77 C 8754.27 8104.77 8420.34 6480.91 8468.05 5921.57 C 8518.61 5311.67 8727.56 3887.45 8727.56 3887.45 L 8095.47 3886.49 Z" fill="#429cfd" fill-rule="nonzero" node-id="343" stroke="none" target-height="4337.55" target-width="845.5596" target-x="7908.71" target-y="3886.49"></path><path d="M 8496.19 4282.68 C 8367.63 4549.35 8454.21 5076.72 8523.86 5389.19 C 8550.34 5168.56 8581.82 4929.08 8611.64 4707.49 C 8608.77 4366.88 8582.30 4103.79 8496.19 4282.68 Z" fill="#000000" fill-opacity="0.2" fill-rule="nonzero" group-id="6" node-id="347" stroke="none" target-height="1285.3999" target-width="244.00977" target-x="8367.63" target-y="4103.79"></path><path d="M 8741.63 8010.32 C 8743.06 8010.32 8775.50 8101.44 8775.50 8101.44 L 8445.39 8240.26 L 8393.39 8143.42 L 8741.63 8010.32 Z" fill="#429cfd" fill-rule="nonzero" node-id="350" stroke="none" target-height="229.93994" target-width="382.11035" target-x="8393.39" target-y="8010.32"></path><path d="M 8436.32 3886.49 C 8436.32 3886.49 8559.64 5258.96 8641.21 5772.97 C 8730.90 6336.13 9082.48 8211.63 9082.48 8211.63 L 9411.40 8211.63 C 9411.40 8211.63 9214.38 6381.68 9177.17 5824.02 C 9136.63 5219.12 9056.00 3886.49 9056.00 3886.49 L 8436.32 3886.49 Z" fill="#429cfd" fill-rule="nonzero" node-id="352" stroke="none" target-height="4325.1396" target-width="975.0801" target-x="8436.32" target-y="3886.49"></path><path d="M 9416.41 8126.00 C 9417.84 8126.00 9427.38 8217.83 9427.38 8217.83 L 9065.78 8217.83 L 9040.02 8112.41 L 9416.41 8126.00 Z" fill="#429cfd" fill-rule="nonzero" node-id="354" stroke="none" target-height="105.41992" target-width="387.36035" target-x="9040.02" target-y="8112.41"></path><path d="M 9290.47 8017.24 C 9289.73 8017.25 9289.00 8016.99 9288.43 8016.50 C 9287.86 8016.02 9287.49 8015.35 9287.37 8014.61 C 9285.46 7997.92 9107.76 6344.95 9074.37 5844.05 C 9038.12 5300.70 8965.13 4095.44 8964.41 4083.28 C 8964.38 4082.88 8964.43 4082.48 8964.56 4082.11 C 8964.69 4081.73 8964.89 4081.39 8965.16 4081.10 C 8965.43 4080.81 8965.76 4080.57 8966.12 4080.41 C 8966.48 4080.26 8966.88 4080.17 8967.27 4080.18 C 8968.06 4080.17 8968.81 4080.47 8969.39 4081.00 C 8969.96 4081.53 8970.31 4082.26 8970.37 4083.04 C 8970.37 4095.20 9044.08 5299.51 9080.33 5843.82 C 9113.73 6344.71 9291.43 7996.49 9293.10 8014.38 C 9293.16 8014.77 9293.15 8015.17 9293.05 8015.56 C 9292.95 8015.95 9292.77 8016.31 9292.53 8016.63 C 9292.28 8016.94 9291.97 8017.20 9291.61 8017.39 C 9291.26 8017.58 9290.87 8017.69 9290.47 8017.71 L 9290.47 8017.24 Z" fill="#000000" fill-opacity="0.2" fill-rule="nonzero" group-id="7" node-id="358" stroke="none" target-height="3937.54" target-width="328.78027" target-x="8964.38" target-y="4080.17"></path><path d="M 8625.47 1676.58 C 8625.47 1691.13 8616.41 1702.82 8606.87 1702.82 C 8597.32 1702.82 8590.41 1691.13 8591.36 1676.58 C 8592.32 1662.03 8600.43 1650.34 8609.97 1650.34 C 8619.51 1650.34 8626.42 1662.27 8625.47 1676.58 Z" fill="#263238" fill-rule="nonzero" node-id="361" stroke="none" target-height="52.47998" target-width="36.009766" target-x="8590.41" target-y="1650.34"></path><path d="M 8461.84 1676.58 C 8461.84 1691.13 8452.54 1702.82 8443.24 1702.82 C 8433.94 1702.82 8426.78 1691.13 8427.50 1676.58 C 8428.21 1662.03 8436.80 1650.34 8446.34 1650.34 C 8455.88 1650.34 8462.80 1662.27 8461.84 1676.58 Z" fill="#263238" fill-rule="nonzero" node-id="363" stroke="none" target-height="52.47998" target-width="36.01953" target-x="8426.78" target-y="1650.34"></path><path d="M 8513.36 1683.97 C 8493.45 1728.40 8467.79 1770.02 8437.04 1807.77 C 8460.89 1831.62 8505.49 1820.65 8505.49 1820.65 L 8513.36 1683.97 Z" fill="#df5753" fill-rule="nonzero" node-id="365" stroke="none" target-height="147.65002" target-width="76.32031" target-x="8437.04" target-y="1683.97"></path><path d="M 8517.66 1881.47 C 8517.10 1881.47 8516.56 1881.36 8516.05 1881.14 C 8515.54 1880.92 8515.08 1880.60 8514.70 1880.20 C 8514.32 1879.80 8514.03 1879.32 8513.84 1878.80 C 8513.65 1878.28 8513.57 1877.73 8513.60 1877.18 C 8513.66 1876.02 8514.17 1874.92 8515.01 1874.12 C 8515.86 1873.33 8516.97 1872.88 8518.13 1872.88 C 8536.38 1873.01 8554.42 1869.05 8570.93 1861.29 C 8587.44 1853.53 8602.00 1842.17 8613.54 1828.04 C 8614.37 1827.32 8615.43 1826.92 8616.53 1826.92 C 8617.62 1826.92 8618.68 1827.32 8619.51 1828.04 C 8620.28 1828.84 8620.71 1829.91 8620.71 1831.02 C 8620.71 1832.13 8620.28 1833.20 8619.51 1834.00 C 8607.15 1849.02 8591.59 1861.07 8573.97 1869.29 C 8556.34 1877.50 8537.10 1881.66 8517.66 1881.47 Z" fill="#263238" fill-rule="nonzero" node-id="367" stroke="none" target-height="54.73999" target-width="107.13965" target-x="8513.57" target-y="1826.92"></path><path d="M 8654.57 1632.69 C 8653.43 1633.28 8652.16 1633.58 8650.87 1633.58 C 8649.59 1633.58 8648.32 1633.28 8647.18 1632.69 C 8638.25 1626.92 8628.10 1623.33 8617.53 1622.21 C 8606.97 1621.10 8596.29 1622.48 8586.35 1626.25 C 8585.38 1626.73 8584.33 1627.02 8583.25 1627.09 C 8582.17 1627.16 8581.08 1627.01 8580.06 1626.66 C 8579.04 1626.30 8578.10 1625.74 8577.29 1625.02 C 8576.49 1624.29 8575.84 1623.41 8575.38 1622.43 C 8574.49 1620.31 8574.47 1617.93 8575.32 1615.79 C 8576.17 1613.65 8577.81 1611.93 8579.91 1610.98 C 8592.38 1605.89 8605.90 1603.88 8619.31 1605.13 C 8632.72 1606.37 8645.64 1610.84 8656.96 1618.14 C 8657.87 1618.76 8658.65 1619.56 8659.25 1620.49 C 8659.86 1621.41 8660.27 1622.45 8660.47 1623.54 C 8660.67 1624.62 8660.65 1625.74 8660.42 1626.82 C 8660.18 1627.90 8659.74 1628.92 8659.10 1629.83 C 8657.90 1631.20 8656.32 1632.19 8654.57 1632.69 Z" fill="#263238" fill-rule="nonzero" node-id="369" stroke="none" target-height="29.699951" target-width="86.200195" target-x="8574.47" target-y="1603.88"></path><path d="M 8398.63 1584.99 C 8397.36 1584.68 8396.21 1584.02 8395.30 1583.08 C 8394.50 1582.30 8393.87 1581.37 8393.44 1580.35 C 8393.01 1579.32 8392.79 1578.22 8392.79 1577.11 C 8392.79 1576.00 8393.01 1574.90 8393.44 1573.88 C 8393.87 1572.86 8394.50 1571.93 8395.30 1571.15 C 8404.44 1560.90 8415.82 1552.89 8428.57 1547.76 C 8441.31 1542.63 8455.06 1540.51 8468.76 1541.57 C 8469.86 1541.74 8470.91 1542.14 8471.85 1542.73 C 8472.79 1543.32 8473.60 1544.10 8474.22 1545.02 C 8474.85 1545.93 8475.28 1546.97 8475.49 1548.06 C 8475.70 1549.15 8475.68 1550.27 8475.44 1551.35 C 8474.93 1553.56 8473.63 1555.51 8471.78 1556.83 C 8469.94 1558.14 8467.68 1558.74 8465.42 1558.51 C 8454.58 1557.83 8443.73 1559.62 8433.69 1563.75 C 8423.65 1567.88 8414.68 1574.25 8407.46 1582.36 C 8406.37 1583.57 8404.97 1584.45 8403.42 1584.92 C 8401.86 1585.38 8400.20 1585.40 8398.63 1584.99 Z" fill="#263238" fill-rule="nonzero" node-id="371" stroke="none" target-height="44.890015" target-width="82.91016" target-x="8392.79" target-y="1540.51"></path><path d="M 9295.96 2559.83 L 9047.89 2493.76 C 9047.89 2493.76 8804.60 3092.69 8718.49 3131.57 C 8601.62 3185.00 8305.61 3370.09 8179.67 3457.63 C 8172.75 3487.44 8178.24 3566.40 8193.98 3588.10 C 8408.65 3548.98 8819.63 3390.84 8905.50 3310.46 C 9101.32 3127.04 9295.96 2559.83 9295.96 2559.83 Z" fill="#e58a7b" fill-rule="nonzero" node-id="373" stroke="none" target-height="1094.3401" target-width="1123.21" target-x="8172.75" target-y="2493.76"></path><path d="M 9122.79 8465.18 C 9110.69 8466.14 9098.63 8462.85 9088.68 8455.88 C 9085.61 8453.11 9083.31 8449.58 9082.02 8445.65 C 9080.72 8441.72 9080.47 8437.52 9081.29 8433.46 C 9081.44 8430.93 9082.27 8428.48 9083.70 8426.38 C 9085.13 8424.28 9087.10 8422.61 9089.40 8421.53 C 9109.43 8411.28 9165.49 8446.82 9171.93 8450.87 C 9172.63 8451.31 9173.18 8451.96 9173.48 8452.74 C 9173.78 8453.51 9173.82 8454.37 9173.60 8455.17 C 9173.39 8456.00 9172.98 8456.76 9172.39 8457.39 C 9171.81 8458.02 9171.07 8458.48 9170.26 8458.74 C 9154.71 8462.56 9138.80 8464.72 9122.79 8465.18 Z M 9098.94 8427.97 C 9097.13 8427.57 9095.26 8427.57 9093.45 8427.97 C 9092.54 8428.44 9091.78 8429.16 9091.27 8430.05 C 9090.76 8430.94 9090.53 8431.96 9090.59 8432.98 C 9089.95 8435.76 9090.06 8438.65 9090.90 8441.37 C 9091.74 8444.10 9093.28 8446.55 9095.36 8448.49 C 9104.66 8456.84 9128.04 8457.79 9158.81 8451.83 C 9140.49 8439.76 9119.85 8431.64 9098.22 8427.97 L 9098.94 8427.97 Z" fill="#429cfd" fill-rule="nonzero" node-id="375" stroke="none" target-height="54.859375" target-width="93.350586" target-x="9080.47" target-y="8411.28"></path><path d="M 9169.06 8458.74 C 9168.44 8458.94 9167.78 8458.94 9167.16 8458.74 C 9149.27 8448.72 9115.64 8409.37 9120.64 8389.33 C 9121.39 8386.16 9123.19 8383.32 9125.74 8381.29 C 9128.29 8379.26 9131.45 8378.14 9134.72 8378.12 C 9137.92 8377.69 9141.17 8377.96 9144.26 8378.91 C 9147.35 8379.86 9150.20 8381.46 9152.61 8383.61 C 9172.40 8400.54 9173.60 8452.54 9173.60 8455.16 C 9173.71 8455.95 9173.56 8456.75 9173.17 8457.44 C 9172.79 8458.13 9172.18 8458.67 9171.45 8458.98 C 9170.65 8459.14 9169.82 8459.06 9169.06 8458.74 Z M 9137.10 8385.99 L 9135.43 8385.99 C 9129.95 8385.99 9129.23 8389.09 9128.99 8390.29 C 9126.13 8401.97 9147.36 8431.79 9165.01 8445.86 C 9164.93 8425.71 9158.69 8406.07 9147.12 8389.57 C 9144.35 8387.16 9140.77 8385.88 9137.10 8385.99 Z" fill="#429cfd" fill-rule="nonzero" node-id="377" stroke="none" target-height="81.44922" target-width="58.070313" target-x="9115.64" target-y="8377.69"></path><path d="M 8489.51 8435.37 C 8474.92 8440.46 8459.03 8440.46 8444.43 8435.37 C 8441.12 8433.57 8438.31 8430.97 8436.26 8427.80 C 8434.22 8424.63 8433.01 8421.00 8432.74 8417.24 C 8432.44 8414.88 8432.74 8412.49 8433.62 8410.27 C 8434.50 8408.06 8435.92 8406.11 8437.75 8404.60 C 8456.83 8387.42 8534.83 8404.60 8543.66 8407.94 C 8544.50 8408.15 8545.24 8408.65 8545.76 8409.34 C 8546.28 8410.04 8546.55 8410.89 8546.52 8411.75 C 8546.55 8412.65 8546.32 8413.53 8545.86 8414.30 C 8545.39 8415.06 8544.71 8415.67 8543.90 8416.05 C 8526.33 8423.98 8508.14 8430.44 8489.51 8435.37 Z M 8450.63 8406.98 C 8447.91 8407.53 8445.36 8408.76 8443.24 8410.56 C 8442.48 8411.13 8441.90 8411.90 8441.56 8412.79 C 8441.22 8413.68 8441.14 8414.64 8441.33 8415.57 C 8441.49 8418.07 8442.27 8420.50 8443.60 8422.62 C 8444.93 8424.75 8446.78 8426.51 8448.96 8427.74 C 8461.60 8434.41 8490.94 8429.17 8528.87 8413.19 C 8503.32 8406.74 8476.87 8404.65 8450.63 8406.98 Z" fill="#429cfd" fill-rule="nonzero" node-id="379" stroke="none" target-height="53.04004" target-width="114.109375" target-x="8432.44" target-y="8387.42"></path><path d="M 8543.18 8416.05 L 8541.27 8416.05 C 8517.42 8411.75 8469.71 8384.32 8468.28 8363.81 C 8468.28 8359.04 8470.43 8352.36 8481.88 8348.55 C 8485.75 8347.17 8489.85 8346.58 8493.95 8346.83 C 8498.05 8347.08 8502.06 8348.15 8505.73 8349.98 C 8531.49 8362.62 8545.09 8408.41 8545.80 8410.56 C 8545.97 8411.28 8545.95 8412.03 8545.74 8412.75 C 8545.53 8413.46 8545.14 8414.10 8544.61 8414.62 C 8544.26 8415.20 8543.76 8415.69 8543.18 8416.05 Z M 8486.65 8355.70 L 8484.27 8355.70 C 8476.87 8358.32 8476.87 8361.43 8476.87 8362.38 C 8476.87 8374.78 8511.46 8397.44 8535.55 8405.08 C 8530.00 8385.92 8518.26 8369.14 8502.15 8357.37 C 8497.36 8354.93 8491.85 8354.34 8486.65 8355.70 Z" fill="#429cfd" fill-rule="nonzero" node-id="381" stroke="none" target-height="69.46973" target-width="77.68945" target-x="8468.28" target-y="8346.58"></path><path d="M 8199.95 3443.56 L 7951.17 3558.05 L 7922.30 3629.60 L 8014.14 3691.38 C 8014.14 3691.38 8185.87 3672.78 8234.77 3562.34 L 8199.95 3443.56 Z" fill="#e58a7b" fill-rule="nonzero" node-id="383" stroke="none" target-height="247.81982" target-width="312.46973" target-x="7922.3" target-y="3443.56"></path><path d="M 8210.44 3592.16 C 8204.88 3544.36 8189.10 3498.31 8164.17 3457.15 L 8203.52 3427.58 C 8233.13 3475.00 8252.01 3528.32 8258.86 3583.81 L 8210.44 3592.16 Z" fill="#263238" fill-rule="nonzero" node-id="385" stroke="none" target-height="164.57983" target-width="94.69043" target-x="8164.17" target-y="3427.58"></path><path d="M 8252.90 3477.43 C 8258.16 3485.70 8260.74 3495.39 8260.30 3505.18 C 8259.85 3514.98 8256.40 3524.39 8250.42 3532.16 C 8244.43 3539.92 8236.20 3545.65 8226.84 3548.57 C 8217.48 3551.48 8207.45 3551.45 8198.12 3548.46 C 8188.78 3545.48 8180.59 3539.69 8174.66 3531.88 C 8168.73 3524.08 8165.34 3514.64 8164.97 3504.84 C 8164.60 3495.05 8167.25 3485.37 8172.57 3477.14 C 8177.89 3468.90 8185.62 3462.51 8194.70 3458.82 C 8204.89 3453.63 8216.73 3452.67 8227.62 3456.15 C 8238.52 3459.64 8247.61 3467.28 8252.90 3477.43 Z" fill="#263238" fill-rule="nonzero" node-id="387" stroke="none" target-height="98.81006" target-width="96.14014" target-x="8164.6" target-y="3452.67"></path><path d="M 7783.01 3650.60 L 7816.16 3683.99 L 8039.42 3588.58 L 7951.17 3558.05 L 7783.01 3650.60 Z" fill="#e58a7b" fill-rule="nonzero" node-id="389" stroke="none" target-height="125.93994" target-width="256.41016" target-x="7783.01" target-y="3558.05"></path><path d="M 8741.63 8010.32 C 8743.06 8010.32 8775.50 8101.44 8775.50 8101.44 L 8445.39 8240.26 L 8393.39 8143.42 L 8741.63 8010.32 Z" fill="#000000" fill-opacity="0.2" fill-rule="nonzero" group-id="8" node-id="393" stroke="none" target-height="229.93994" target-width="382.11035" target-x="8393.39" target-y="8010.32"></path><path d="M 9416.41 8126.00 C 9417.84 8126.00 9427.38 8217.83 9427.38 8217.83 L 9065.78 8217.83 L 9040.02 8112.41 L 9416.41 8126.00 Z" fill="#000000" fill-opacity="0.2" fill-rule="nonzero" group-id="9" node-id="398" stroke="none" target-height="105.41992" target-width="387.36035" target-x="9040.02" target-y="8112.41"></path><path d="M 9360.60 2491.13 C 9426.19 2702.70 9169.78 2992.03 9169.78 2992.03 L 8815.57 2847.49 C 8857.56 2725.20 8905.97 2605.22 8960.60 2488.03 C 9069.36 2253.56 9294.29 2277.66 9360.60 2491.13 Z" fill="#429cfd" fill-rule="nonzero" node-id="401" stroke="none" target-height="738.47" target-width="610.6201" target-x="8815.57" target-y="2253.56"></path><path d="M 9360.60 2491.13 C 9426.19 2702.70 9169.78 2992.03 9169.78 2992.03 L 8815.57 2847.49 C 8857.56 2725.20 8905.97 2605.22 8960.60 2488.03 C 9069.36 2253.56 9294.29 2277.66 9360.60 2491.13 Z" fill="#000000" fill-opacity="0.2" fill-rule="nonzero" group-id="10" node-id="405" stroke="none" target-height="738.47" target-width="610.6201" target-x="8815.57" target-y="2253.56"></path><path d="M 5840.95 371.38 L 5688.54 371.38 L 5688.54 395.95 L 5840.95 395.95 L 5840.95 371.38 Z" fill="#429cfd" fill-rule="nonzero" node-id="408" stroke="none" target-height="24.567993" target-width="152.41016" target-x="5688.54" target-y="371.381"></path><path d="M 7813.97 1343.76 L 7795.52 1753.12 L 7820.07 1754.23 L 7838.51 1344.86 L 7813.97 1343.76 Z" fill="#429cfd" fill-rule="nonzero" node-id="410" stroke="none" target-height="410.46997" target-width="42.989746" target-x="7795.52" target-y="1343.76"></path><path d="M 7766.55 481.58 L 4951.98 481.58 L 4690.08 6342.57 L 7504.65 6342.57 L 7766.55 481.58 Z" fill="#429cfd" fill-rule="nonzero" node-id="412" stroke="none" target-height="5860.9917" target-width="3076.4697" target-x="4690.08" target-y="481.578"></path><path d="M 7682.59 562.20 L 4868.02 562.20 L 4606.12 6423.19 L 7420.69 6423.19 L 7682.59 562.20 Z" fill="#fafafa" fill-opacity="0.56" fill-rule="nonzero" group-id="11" node-id="416" stroke="none" target-height="5860.991" target-width="3076.4697" target-x="4606.12" target-y="562.199"></path><path d="M 7598.63 642.58 L 4784.06 642.58 L 4521.92 6503.57 L 7336.49 6503.57 L 7598.63 642.58 Z" fill="#429cfd" fill-opacity="0.07" fill-rule="nonzero" group-id="12" node-id="421" stroke="none" target-height="5860.988" target-width="3076.71" target-x="4521.92" target-y="642.582"></path><path d="M 7278.29 3198.83 L 4875.89 3198.83 L 4855.85 3647.26 L 7258.26 3647.26 L 7278.29 3198.83 Z" fill="#ffffff" fill-rule="nonzero" node-id="424" stroke="none" target-height="448.42993" target-width="2422.44" target-x="4855.85" target-y="3198.83"></path><path d="M 6197.07 2871.58 L 4890.44 2871.58 L 4881.61 3072.18 L 6188.24 3072.18 L 6197.07 2871.58 Z" fill="#429cfd" fill-rule="nonzero" node-id="426" stroke="none" target-height="200.59985" target-width="1315.46" target-x="4881.61" target-y="2871.58"></path><path d="M 7224.15 4409.10 L 4821.74 4409.10 L 4801.71 4857.52 L 7204.11 4857.52 L 7224.15 4409.10 Z" fill="#ffffff" fill-rule="nonzero" node-id="428" stroke="none" target-height="448.41992" target-width="2422.44" target-x="4801.71" target-y="4409.1"></path><path d="M 6783.60 5463.13 L 5168.08 5463.13 L 5143.99 6000.53 L 6759.51 6000.53 L 6783.60 5463.13 Z" fill="#429cfd" fill-opacity="0.47" fill-rule="nonzero" group-id="13" node-id="432" stroke="none" target-height="537.3999" target-width="1639.6099" target-x="5143.99" target-y="5463.13"></path><path d="M 6675.54 6084.01 L 5060.03 6084.01 C 5059.32 6084.19 5058.59 6084.19 5057.88 6084.01 C 5057.65 6083.31 5057.65 6082.56 5057.88 6081.86 L 5081.73 5544.23 C 5081.73 5543.86 5081.81 5543.50 5081.95 5543.17 C 5082.10 5542.83 5082.31 5542.53 5082.58 5542.29 C 5082.85 5542.04 5083.17 5541.85 5083.52 5541.73 C 5083.86 5541.62 5084.23 5541.57 5084.60 5541.61 L 6700.11 5541.61 C 6700.41 5541.46 6700.74 5541.38 6701.07 5541.38 C 6701.40 5541.38 6701.72 5541.46 6702.02 5541.61 C 6702.19 5541.90 6702.28 5542.23 6702.28 5542.56 C 6702.28 5542.90 6702.19 5543.22 6702.02 5543.51 L 6678.65 6082.34 C 6678.36 6082.90 6677.91 6083.36 6677.35 6083.66 C 6676.80 6083.95 6676.17 6084.08 6675.54 6084.01 Z M 5062.89 6078.28 L 6672.68 6078.28 L 6696.53 5546.38 L 5086.74 5546.38 L 5062.89 6078.28 Z" fill="#ffffff" fill-rule="nonzero" node-id="435" stroke="none" target-height="542.81006" target-width="1644.6299" target-x="5057.65" target-y="5541.38"></path><path d="M 5914.89 4081.85 L 4836.29 4081.85 L 4827.47 4282.68 L 5905.83 4282.68 L 5914.89 4081.85 Z" fill="#429cfd" fill-rule="nonzero" node-id="437" stroke="none" target-height="200.83008" target-width="1087.4199" target-x="4827.47" target-y="4081.85"></path><path d="M 6752.83 1750.28 C 6746.66 1880.79 6700.25 2006.19 6619.97 2109.26 C 6560.54 2187.12 6484.06 2250.32 6396.41 2294.03 C 6308.75 2337.73 6212.25 2360.77 6114.30 2361.38 C 6035.15 2361.98 5956.72 2346.38 5883.83 2315.52 C 5810.94 2284.66 5745.14 2239.21 5690.48 2181.96 C 5635.82 2124.71 5593.46 2056.87 5566.01 1982.63 C 5538.56 1908.39 5526.61 1829.32 5530.87 1750.28 C 5539.26 1586.28 5609.99 1431.67 5728.59 1318.08 C 5847.19 1204.49 6004.70 1140.49 6168.92 1139.19 C 6248.13 1138.45 6326.65 1153.96 6399.63 1184.76 C 6472.61 1215.57 6538.49 1261.01 6593.22 1318.28 C 6647.94 1375.55 6690.34 1443.44 6717.79 1517.74 C 6745.24 1592.05 6757.17 1671.19 6752.83 1750.28 Z" fill="#ffffff" fill-rule="nonzero" node-id="439" stroke="none" target-height="1223.53" target-width="1230.56" target-x="5526.61" target-y="1138.45"></path><path d="M 6810.31 1267.03 C 6808.75 1301.74 6796.41 1335.09 6775.01 1362.44 C 6759.17 1383.12 6738.82 1399.91 6715.50 1411.53 C 6692.19 1423.14 6666.53 1429.28 6640.48 1429.47 C 6615.25 1429.62 6590.36 1423.59 6567.99 1411.91 C 6545.62 1400.23 6526.45 1383.24 6512.16 1362.44 C 6493.23 1334.34 6483.86 1300.88 6485.44 1267.03 C 6487.75 1223.49 6506.58 1182.46 6538.09 1152.33 C 6569.60 1122.19 6611.43 1105.20 6655.03 1104.84 C 6676.07 1104.65 6696.92 1108.76 6716.30 1116.94 C 6735.69 1125.11 6753.19 1137.17 6767.74 1152.36 C 6782.29 1167.56 6793.57 1185.57 6800.89 1205.29 C 6808.21 1225.01 6811.42 1246.03 6810.31 1267.03 Z" fill="#429cfd" fill-rule="nonzero" node-id="441" stroke="none" target-height="324.96997" target-width="327.56006" target-x="6483.86" target-y="1104.65"></path><path d="M 5134.69 3423.05 C 5133.54 3442.27 5125.15 3460.34 5111.21 3473.62 C 5097.26 3486.90 5078.80 3494.40 5059.55 3494.60 C 5050.25 3494.71 5041.03 3492.92 5032.46 3489.32 C 5023.89 3485.73 5016.14 3480.41 5009.70 3473.71 C 5003.26 3467.00 4998.27 3459.04 4995.03 3450.33 C 4991.79 3441.62 4990.37 3432.33 4990.86 3423.05 C 4991.89 3403.79 5000.25 3385.65 5014.21 3372.35 C 5028.18 3359.04 5046.70 3351.58 5065.99 3351.49 C 5075.28 3351.41 5084.48 3353.23 5093.04 3356.84 C 5101.60 3360.45 5109.33 3365.76 5115.76 3372.46 C 5122.19 3379.16 5127.19 3387.10 5130.44 3395.80 C 5133.70 3404.50 5135.14 3413.77 5134.69 3423.05 Z" fill="#263238" fill-rule="nonzero" node-id="443" stroke="none" target-height="143.30005" target-width="144.77002" target-x="4990.37" target-y="3351.41"></path><path d="M 5456.21 3423.04 C 5455.12 3442.28 5446.75 3460.39 5432.80 3473.68 C 5418.84 3486.97 5400.35 3494.45 5381.08 3494.60 C 5371.80 3494.68 5362.61 3492.86 5354.06 3489.25 C 5345.52 3485.64 5337.80 3480.32 5331.39 3473.62 C 5324.97 3466.91 5320.00 3458.97 5316.77 3450.27 C 5313.55 3441.57 5312.14 3432.31 5312.62 3423.04 C 5313.66 3403.82 5321.98 3385.72 5335.89 3372.43 C 5349.81 3359.13 5368.27 3351.64 5387.52 3351.49 C 5396.82 3351.38 5406.04 3353.17 5414.61 3356.77 C 5423.18 3360.36 5430.93 3365.68 5437.37 3372.38 C 5443.81 3379.09 5448.80 3387.05 5452.04 3395.76 C 5455.29 3404.47 5456.70 3413.76 5456.21 3423.04 Z" fill="#263238" fill-rule="nonzero" node-id="445" stroke="none" target-height="143.30005" target-width="144.56006" target-x="5312.14" target-y="3351.38"></path><path d="M 5777.98 3423.04 C 5776.89 3442.28 5768.52 3460.39 5754.56 3473.68 C 5740.61 3486.97 5722.12 3494.45 5702.85 3494.60 C 5693.56 3494.68 5684.36 3492.86 5675.80 3489.25 C 5667.24 3485.64 5659.51 3480.33 5653.08 3473.63 C 5646.65 3466.93 5641.65 3458.99 5638.40 3450.29 C 5635.14 3441.59 5633.70 3432.32 5634.15 3423.04 C 5635.24 3403.80 5643.62 3385.70 5657.57 3372.41 C 5671.53 3359.12 5690.02 3351.64 5709.29 3351.49 C 5718.58 3351.38 5727.80 3353.17 5736.38 3356.77 C 5744.95 3360.36 5752.70 3365.68 5759.14 3372.38 C 5765.58 3379.09 5770.57 3387.05 5773.81 3395.76 C 5777.05 3404.47 5778.47 3413.76 5777.98 3423.04 Z" fill="#263238" fill-rule="nonzero" node-id="447" stroke="none" target-height="143.30005" target-width="144.77002" target-x="5633.7" target-y="3351.38"></path><path d="M 5080.54 4633.31 C 5079.40 4652.53 5071.01 4670.60 5057.06 4683.88 C 5043.12 4697.16 5024.66 4704.66 5005.41 4704.87 C 4996.12 4704.94 4986.92 4703.12 4978.36 4699.52 C 4969.80 4695.91 4962.07 4690.60 4955.64 4683.90 C 4949.20 4677.20 4944.21 4669.25 4940.95 4660.56 C 4937.70 4651.86 4936.26 4642.59 4936.71 4633.31 C 4937.80 4614.07 4946.17 4595.97 4960.13 4582.68 C 4974.08 4569.39 4992.58 4561.91 5011.85 4561.75 C 5021.13 4561.68 5030.34 4563.50 5038.90 4567.11 C 5047.45 4570.71 5055.19 4576.03 5061.62 4582.73 C 5068.05 4589.43 5073.04 4597.37 5076.30 4606.07 C 5079.55 4614.76 5081.00 4624.04 5080.54 4633.31 Z" fill="#263238" fill-rule="nonzero" node-id="449" stroke="none" target-height="143.25977" target-width="144.74023" target-x="4936.26" target-y="4561.68"></path><path d="M 5402.07 4633.31 C 5400.98 4652.51 5392.64 4670.58 5378.74 4683.87 C 5364.83 4697.15 5346.40 4704.66 5327.17 4704.87 C 5317.88 4704.98 5308.66 4703.18 5300.08 4699.59 C 5291.51 4695.99 5283.76 4690.68 5277.32 4683.97 C 5270.89 4677.26 5265.89 4669.31 5262.65 4660.59 C 5259.41 4651.88 5257.99 4642.60 5258.48 4633.31 C 5259.57 4614.07 5267.94 4595.97 5281.90 4582.68 C 5295.85 4569.39 5314.34 4561.91 5333.61 4561.75 C 5342.89 4561.68 5352.08 4563.50 5360.63 4567.11 C 5369.18 4570.72 5376.89 4576.04 5383.31 4582.74 C 5389.72 4589.44 5394.69 4597.39 5397.92 4606.08 C 5401.15 4614.78 5402.56 4624.05 5402.07 4633.31 Z" fill="#263238" fill-rule="nonzero" node-id="451" stroke="none" target-height="143.2998" target-width="144.56982" target-x="5257.99" target-y="4561.68"></path><path d="M 5724.55 4633.31 C 5723.46 4652.55 5715.09 4670.66 5701.13 4683.95 C 5687.18 4697.24 5668.69 4704.72 5649.42 4704.87 C 5640.14 4704.91 5630.95 4703.07 5622.41 4699.45 C 5613.87 4695.83 5606.15 4690.51 5599.73 4683.82 C 5593.30 4677.13 5588.30 4669.20 5585.04 4660.52 C 5581.77 4651.84 5580.30 4642.58 5580.72 4633.31 C 5581.87 4614.09 5590.26 4596.02 5604.20 4582.74 C 5618.15 4569.46 5636.60 4561.96 5655.86 4561.75 C 5665.15 4561.64 5674.37 4563.44 5682.95 4567.04 C 5691.52 4570.63 5699.27 4575.94 5705.71 4582.65 C 5712.15 4589.36 5717.14 4597.31 5720.38 4606.03 C 5723.62 4614.74 5725.04 4624.03 5724.55 4633.31 Z" fill="#263238" fill-rule="nonzero" node-id="453" stroke="none" target-height="143.27002" target-width="144.74023" target-x="5580.3" target-y="4561.64"></path><path d="M 6045.61 4633.31 C 6044.46 4652.53 6036.07 4670.60 6022.13 4683.88 C 6008.18 4697.16 5989.72 4704.66 5970.47 4704.87 C 5961.19 4704.91 5952.00 4703.07 5943.46 4699.45 C 5934.92 4695.83 5927.20 4690.51 5920.78 4683.82 C 5914.35 4677.13 5909.36 4669.20 5906.09 4660.52 C 5902.82 4651.83 5901.36 4642.58 5901.78 4633.31 C 5902.92 4614.09 5911.31 4596.02 5925.25 4582.74 C 5939.20 4569.46 5957.66 4561.96 5976.91 4561.75 C 5986.20 4561.68 5995.40 4563.50 6003.96 4567.11 C 6012.52 4570.71 6020.25 4576.03 6026.68 4582.73 C 6033.11 4589.43 6038.11 4597.37 6041.36 4606.07 C 6044.62 4614.76 6046.06 4624.04 6045.61 4633.31 Z" fill="#263238" fill-rule="nonzero" node-id="455" stroke="none" target-height="143.22998" target-width="144.7002" target-x="5901.36" target-y="4561.68"></path><path d="M 6368.57 4633.31 C 6367.42 4652.53 6359.03 4670.60 6345.09 4683.88 C 6331.14 4697.16 6312.68 4704.66 6293.43 4704.87 C 6284.13 4704.98 6274.91 4703.18 6266.34 4699.59 C 6257.77 4695.99 6250.02 4690.68 6243.58 4683.97 C 6237.14 4677.26 6232.15 4669.31 6228.91 4660.59 C 6225.67 4651.88 6224.25 4642.60 6224.74 4633.31 C 6225.83 4614.07 6234.20 4595.97 6248.15 4582.68 C 6262.11 4569.39 6280.60 4561.91 6299.87 4561.75 C 6309.16 4561.68 6318.36 4563.50 6326.92 4567.11 C 6335.48 4570.71 6343.21 4576.03 6349.64 4582.73 C 6356.07 4589.43 6361.07 4597.37 6364.32 4606.07 C 6367.58 4614.76 6369.02 4624.04 6368.57 4633.31 Z" fill="#263238" fill-rule="nonzero" node-id="457" stroke="none" target-height="143.2998" target-width="144.77002" target-x="6224.25" target-y="4561.68"></path><path d="M 6319.75 1718.46 C 6419.58 1620.83 6424.88 1464.34 6331.58 1368.93 C 6238.28 1273.52 6081.71 1275.32 5981.88 1372.95 C 5882.05 1470.58 5876.75 1627.07 5970.05 1722.48 C 6063.35 1817.88 6219.91 1816.08 6319.75 1718.46 Z" fill="#429cfd" fill-rule="nonzero" node-id="459" stroke="none" target-height="544.36" target-width="548.1299" target-x="5876.75" target-y="1273.52"></path><path d="M 6619.97 2109.26 C 6560.54 2187.12 6484.06 2250.32 6396.41 2294.03 C 6308.75 2337.73 6212.24 2360.77 6114.30 2361.38 C 6019.32 2362.18 5925.60 2339.61 5841.41 2295.64 C 5757.22 2251.67 5685.14 2187.66 5631.53 2109.26 C 5747.45 1993.81 5930.88 1918.44 6134.10 1918.44 C 6337.32 1918.44 6514.30 1993.81 6619.97 2109.26 Z" fill="#429cfd" fill-rule="nonzero" node-id="461" stroke="none" target-height="443.74" target-width="988.4404" target-x="5631.53" target-y="1918.44"></path><path d="M 6319.75 1718.46 C 6419.58 1620.83 6424.88 1464.34 6331.58 1368.93 C 6238.28 1273.52 6081.71 1275.32 5981.88 1372.95 C 5882.05 1470.58 5876.75 1627.07 5970.05 1722.48 C 6063.35 1817.88 6219.91 1816.08 6319.75 1718.46 Z" fill="#ffffff" fill-opacity="0.1" fill-rule="nonzero" group-id="14" node-id="465" stroke="none" target-height="544.36" target-width="548.1299" target-x="5876.75" target-y="1273.52"></path><path d="M 6619.97 2109.26 C 6560.54 2187.12 6484.06 2250.32 6396.41 2294.03 C 6308.75 2337.73 6212.24 2360.77 6114.30 2361.38 C 6019.32 2362.18 5925.60 2339.61 5841.41 2295.64 C 5757.22 2251.67 5685.14 2187.66 5631.53 2109.26 C 5747.45 1993.81 5930.88 1918.44 6134.10 1918.44 C 6337.32 1918.44 6514.30 1993.81 6619.97 2109.26 Z" fill="#ffffff" fill-opacity="0.1" fill-rule="nonzero" group-id="15" node-id="470" stroke="none" target-height="443.74" target-width="988.4404" target-x="5631.53" target-y="1918.44"></path><path d="M 3110.58 3755.31 C 3087.92 3804.92 3064.07 3859.54 3043.32 3912.49 C 3022.56 3965.45 3001.34 4020.07 2982.97 4074.45 C 2945.47 4181.63 2916.91 4291.72 2897.58 4403.61 L 2892.33 4438.68 C 2891.83 4444.69 2892.40 4450.75 2894.00 4456.57 C 2899.63 4476.33 2908.50 4495.03 2920.24 4511.90 C 2950.87 4555.57 2986.40 4595.58 3026.14 4631.16 C 3068.04 4670.14 3111.99 4706.84 3157.81 4741.12 C 3203.60 4776.42 3251.79 4810.77 3299.25 4843.21 L 3254.65 4926.93 C 3141.31 4877.55 3033.72 4815.88 2933.83 4743.03 C 2880.54 4704.17 2832.45 4658.63 2790.72 4607.55 C 2765.99 4577.14 2746.70 4542.68 2733.71 4505.70 C 2726.16 4482.60 2722.30 4458.45 2722.26 4434.14 C 2722.26 4428.42 2722.26 4420.07 2722.26 4416.02 L 2722.26 4404.33 L 2724.65 4380.48 C 2738.32 4256.21 2764.45 4133.63 2802.65 4014.58 C 2821.25 3955.91 2841.05 3897.47 2863.71 3840.46 C 2886.37 3783.45 2909.74 3727.64 2938.60 3669.68 L 3110.58 3755.31 Z" fill="#e58a7b" fill-rule="nonzero" node-id="473" stroke="none" target-height="1257.2502" target-width="576.99" target-x="2722.26" target-y="3669.68"></path><path d="M 3265.62 4828.42 L 3434.25 4743.03 L 3390.61 4928.12 C 3390.61 4928.12 3274.92 4960.56 3221.25 4904.27 L 3265.62 4828.42 Z" fill="#e58a7b" fill-rule="nonzero" node-id="475" stroke="none" target-height="217.53027" target-width="213" target-x="3221.25" target-y="4743.03"></path><path d="M 3588.58 4773.32 L 3543.74 4926.46 L 3390.61 4928.12 L 3434.26 4743.03 L 3588.58 4773.32 Z" fill="#e58a7b" fill-rule="nonzero" node-id="477" stroke="none" target-height="185.09033" target-width="197.96997" target-x="3390.61" target-y="4743.03"></path><path d="M 3826.63 2862.28 C 3835.65 2895.33 3848.20 2927.32 3864.07 2957.69 C 3859.44 2962.95 3853.46 2966.85 3846.79 2968.99 C 3840.11 2971.14 3832.98 2971.43 3826.15 2969.85 L 3826.63 2862.28 Z" fill="#df5753" fill-rule="nonzero" node-id="479" stroke="none" target-height="109.1499" target-width="37.920166" target-x="3826.15" target-y="2862.28"></path><path d="M 3821.62 2863.71 C 3831.50 2863.71 3839.51 2851.43 3839.51 2836.28 C 3839.51 2821.13 3831.50 2808.85 3821.62 2808.85 C 3811.74 2808.85 3803.73 2821.13 3803.73 2836.28 C 3803.73 2851.43 3811.74 2863.71 3821.62 2863.71 Z" fill="#263238" fill-rule="nonzero" node-id="481" stroke="none" target-height="54.859863" target-width="35.78003" target-x="3803.73" target-y="2808.85"></path><path d="M 3816.37 2809.80 L 3852.62 2799.54 C 3852.62 2799.54 3834.97 2827.69 3816.37 2809.80 Z" fill="#263238" fill-rule="nonzero" node-id="483" stroke="none" target-height="28.149902" target-width="36.25" target-x="3816.37" target-y="2799.54"></path><path d="M 3360.79 3037.35 C 3382.49 3148.27 3404.20 3351.73 3326.44 3425.91 C 3326.44 3425.91 3356.97 3538.49 3563.30 3538.49 C 3790.13 3538.49 3671.58 3425.91 3671.58 3425.91 C 3547.79 3396.33 3550.89 3304.50 3572.60 3218.15 L 3360.79 3037.35 Z" fill="#e58a7b" fill-rule="nonzero" node-id="485" stroke="none" target-height="501.1399" target-width="463.68994" target-x="3326.44" target-y="3037.35"></path><path d="M 3300.44 2784.52 C 3311.89 2969.85 3312.85 3048.56 3406.35 3143.73 C 3547.31 3286.85 3772.48 3232.47 3816.61 3048.33 C 3856.44 2881.36 3831.16 2606.58 3649.64 2532.88 C 3609.80 2516.46 3566.42 2510.49 3523.63 2515.51 C 3480.83 2520.53 3440.02 2536.39 3405.06 2561.58 C 3370.10 2586.78 3342.14 2620.47 3323.84 2659.48 C 3305.53 2698.49 3297.48 2741.53 3300.44 2784.52 Z" fill="#e58a7b" fill-rule="nonzero" node-id="487" stroke="none" target-height="776.3601" target-width="558.95996" target-x="3297.48" target-y="2510.49"></path><path d="M 3318.81 2576.05 C 3225.79 2609.92 3101.75 2584.64 3150.41 2871.58 C 3201.93 3175.46 3122.74 3275.40 3122.74 3275.40 C 3122.74 3275.40 3475.52 3350.53 3835.69 3270.87 C 3835.69 3270.87 3725.73 3078.62 3756.50 2936.94 C 3795.86 2758.04 3764.85 2691.97 3764.85 2691.97 C 3764.85 2691.97 3449.52 2528.35 3318.81 2576.05 Z" fill="#263238" fill-rule="nonzero" node-id="489" stroke="none" target-height="822.17993" target-width="733.93994" target-x="3101.75" target-y="2528.35"></path><path d="M 3712.37 2881.12 C 3712.47 2916.36 3722.56 2950.85 3741.47 2980.58 C 3766.76 3019.22 3796.57 3004.44 3803.97 2963.41 C 3810.64 2927.39 3805.64 2863.71 3773.43 2838.90 C 3741.23 2814.09 3712.85 2838.42 3712.37 2881.12 Z" fill="#e58a7b" fill-rule="nonzero" node-id="491" stroke="none" target-height="205.12988" target-width="98.269775" target-x="3712.37" target-y="2814.09"></path><path d="M 3237.95 2607.30 C 3211.24 2532.16 3338.61 2416.48 3608.14 2464.18 C 3877.67 2511.89 3889.36 2736.34 3889.36 2736.34 L 3834.97 2671.46 L 3837.36 2739.68 L 3560.43 2792.87 L 3237.95 2607.30 Z" fill="#263238" fill-rule="nonzero" node-id="493" stroke="none" target-height="376.39014" target-width="678.1201" target-x="3211.24" target-y="2416.48"></path><path d="M 3260.85 3438.55 C 3259.26 3427.66 3261.98 3416.58 3268.44 3407.66 C 3274.90 3398.75 3284.59 3392.72 3295.43 3390.84 C 3379.39 3377.01 3570.21 3348.86 3666.10 3362.22 C 3737.66 3372.24 3756.26 3413.74 3759.36 3447.85 C 3759.85 3453.82 3759.05 3459.83 3757.02 3465.47 C 3754.99 3471.11 3751.78 3476.24 3747.60 3480.54 C 3743.42 3484.83 3738.37 3488.18 3732.78 3490.36 C 3727.20 3492.54 3721.22 3493.50 3715.23 3493.17 L 3300.68 3474.56 C 3290.91 3474.07 3281.61 3470.22 3274.35 3463.65 C 3267.09 3457.09 3262.32 3448.22 3260.85 3438.55 Z" fill="#429cfd" fill-rule="nonzero" node-id="495" stroke="none" target-height="144.6399" target-width="500.5901" target-x="3259.26" target-y="3348.86"></path><path d="M 3260.85 3438.55 C 3259.26 3427.66 3261.98 3416.58 3268.44 3407.66 C 3274.90 3398.75 3284.59 3392.72 3295.43 3390.84 C 3379.39 3377.01 3570.21 3348.86 3666.10 3362.22 C 3737.66 3372.24 3756.26 3413.74 3759.36 3447.85 C 3759.85 3453.82 3759.05 3459.83 3757.02 3465.47 C 3754.99 3471.11 3751.78 3476.24 3747.60 3480.54 C 3743.42 3484.83 3738.37 3488.18 3732.78 3490.36 C 3727.20 3492.54 3721.22 3493.50 3715.23 3493.17 L 3300.68 3474.56 C 3290.91 3474.07 3281.61 3470.22 3274.35 3463.65 C 3267.09 3457.09 3262.32 3448.22 3260.85 3438.55 Z" fill="#000000" fill-opacity="0.6" fill-rule="nonzero" group-id="16" node-id="499" stroke="none" target-height="144.6399" target-width="500.5901" target-x="3259.26" target-y="3348.86"></path><path d="M 3500.56 7605.55 L 3654.41 7712.41 L 3911.78 7363.45 L 3757.93 7256.83 L 3500.56 7605.55 Z" fill="#e58a7b" fill-rule="nonzero" node-id="502" stroke="none" target-height="455.58008" target-width="411.21997" target-x="3500.56" target-y="7256.83"></path><path d="M 3141.83 7598.63 L 3304.26 7691.18 L 3532.05 7322.18 L 3369.61 7229.63 L 3141.83 7598.63 Z" fill="#e58a7b" fill-rule="nonzero" node-id="504" stroke="none" target-height="461.5503" target-width="390.21997" target-x="3141.83" target-y="7229.63"></path><path d="M 3911.54 7363.45 L 3778.92 7543.29 L 3625.07 7436.67 L 3757.69 7256.83 L 3911.54 7363.45 Z" fill="#cf6f64" fill-rule="nonzero" node-id="506" stroke="none" target-height="286.45996" target-width="286.46997" target-x="3625.07" target-y="7256.83"></path><path d="M 3369.38 7229.63 L 3532.05 7322.42 L 3414.70 7512.52 L 3252.02 7419.74 L 3369.38 7229.63 Z" fill="#cf6f64" fill-rule="nonzero" node-id="508" stroke="none" target-height="282.89014" target-width="280.03003" target-x="3252.02" target-y="7229.63"></path><path d="M 3630.32 4603.50 C 3630.32 4603.50 4230.92 5360.33 4118.10 6084.25 C 4027.22 6668.87 3500.09 7460.53 3500.09 7460.53 L 3252.26 7337.45 C 3426.94 6987.42 3576.01 6625.19 3698.30 6253.60 C 3736.01 6138.23 3747.02 6015.81 3730.49 5895.57 C 3713.96 5775.32 3670.33 5660.41 3602.89 5559.50 C 3298.54 5115.13 2810.99 5379.65 3138.96 4603.50 L 3630.32 4603.50 Z" fill="#429cfd" fill-rule="nonzero" node-id="510" stroke="none" target-height="2857.0298" target-width="1419.9299" target-x="2810.99" target-y="4603.5"></path><path d="M 3630.32 4603.50 C 3630.32 4603.50 4230.92 5360.33 4118.10 6084.25 C 4027.22 6668.87 3500.09 7460.53 3500.09 7460.53 L 3252.26 7337.45 C 3426.94 6987.42 3576.01 6625.19 3698.30 6253.60 C 3736.01 6138.23 3747.02 6015.81 3730.49 5895.57 C 3713.96 5775.32 3670.33 5660.41 3602.89 5559.50 C 3298.54 5115.13 2810.99 5379.65 3138.96 4603.50 L 3630.32 4603.50 Z" fill="#000000" fill-opacity="0.6" fill-rule="nonzero" group-id="17" node-id="514" stroke="none" target-height="2857.0298" target-width="1419.9299" target-x="2810.99" target-y="4603.5"></path><path d="M 3924.90 5089.61 L 3837.60 5002.78 C 3837.60 5009.70 4006.71 6053.72 4054.18 6347.10 C 4082.19 6261.39 4103.64 6173.68 4118.34 6084.72 C 4174.15 5729.56 4057.52 5366.77 3924.90 5089.61 Z" fill="#000000" fill-opacity="0.4" fill-rule="nonzero" group-id="18" node-id="519" stroke="none" target-height="1344.3203" target-width="336.5498" target-x="3837.6" target-y="5002.78"></path><path d="M 3898.42 4603.50 C 3898.42 4603.50 4621.62 5554.73 4642.14 6125.03 C 4659.07 6602.08 3855.01 7526.36 3855.01 7526.36 L 3621.26 7375.13 C 3621.26 7375.13 4091.86 6718.72 4210.41 6182.52 C 4164.61 5651.09 3196.21 4603.50 3196.21 4603.50 L 3898.42 4603.50 Z" fill="#429cfd" fill-rule="nonzero" node-id="522" stroke="none" target-height="2922.8599" target-width="1462.8599" target-x="3196.21" target-y="4603.5"></path><path d="M 3898.42 4603.50 C 3898.42 4603.50 4621.62 5554.73 4642.14 6125.03 C 4659.07 6602.08 3855.01 7526.36 3855.01 7526.36 L 3621.26 7375.13 C 3621.26 7375.13 4091.86 6718.72 4210.41 6182.52 C 4164.61 5651.09 3196.21 4603.50 3196.21 4603.50 L 3898.42 4603.50 Z" fill="#000000" fill-opacity="0.6" fill-rule="nonzero" group-id="19" node-id="526" stroke="none" target-height="2922.8599" target-width="1462.8599" target-x="3196.21" target-y="4603.5"></path><path d="M 3003.72 3468.36 C 2926.44 3486.73 2852.26 3767.71 2852.26 3767.71 L 3154.47 3969.50 C 3154.47 3969.50 3255.12 3747.20 3219.82 3649.88 C 3183.33 3548.51 3100.80 3445.23 3003.72 3468.36 Z" fill="#429cfd" fill-rule="nonzero" node-id="529" stroke="none" target-height="524.27" target-width="402.8601" target-x="2852.26" target-y="3445.23"></path><path d="M 3062.87 3649.40 L 3041.88 3894.37 L 3154.23 3969.74 C 3185.25 3899.90 3208.22 3826.76 3222.69 3751.73 L 3062.87 3649.40 Z" fill="#000000" fill-opacity="0.2" fill-rule="nonzero" group-id="20" node-id="533" stroke="none" target-height="320.3401" target-width="180.81006" target-x="3041.88" target-y="3649.4"></path><path d="M 3987.87 3473.85 C 3987.87 3473.85 4077.07 3505.10 3898.42 4603.26 L 3138.49 4603.26 C 3151.37 4293.18 3151.60 4102.36 3003.72 3468.36 C 3110.13 3446.44 3217.98 3432.25 3326.44 3425.91 C 3441.34 3417.67 3556.68 3417.67 3671.59 3425.91 C 3819.95 3439.50 3987.87 3473.85 3987.87 3473.85 Z" fill="#429cfd" fill-rule="nonzero" node-id="536" stroke="none" target-height="1185.5898" target-width="1073.3501" target-x="3003.72" target-y="3417.67"></path><path d="M 4065.15 3649.40 C 4082.32 3697.11 4100.45 3748.39 4119.53 3797.76 C 4138.61 3847.14 4156.74 3897.94 4176.06 3948.03 L 4234.50 4097.83 L 4249.29 4135.27 L 4256.92 4153.88 L 4260.50 4163.18 C 4260.50 4164.85 4260.50 4164.85 4260.50 4164.61 C 4256.14 4158.47 4250.43 4153.41 4243.80 4149.82 C 4234.37 4144.27 4223.73 4141.08 4212.79 4140.52 C 4203.71 4140.24 4194.67 4141.95 4186.32 4145.53 C 4175.35 4150.54 4175.35 4152.69 4175.58 4152.45 C 4177.57 4150.86 4179.33 4149.01 4180.83 4146.96 C 4194.04 4129.63 4205.46 4111.01 4214.94 4091.39 C 4226.15 4069.44 4236.88 4046.07 4247.62 4022.45 C 4268.61 3974.75 4287.93 3925.37 4307.25 3875.52 C 4326.57 3825.67 4344.94 3775.34 4362.82 3724.54 L 4417.21 3572.36 L 4509.04 3596.21 C 4490.91 3704.98 4467.54 3810.88 4439.39 3918.69 C 4425.79 3972.36 4409.81 4025.55 4391.69 4079.22 C 4382.62 4106.17 4372.60 4132.89 4361.15 4160.32 C 4349.22 4190.09 4334.53 4218.68 4317.27 4245.71 C 4310.92 4254.81 4303.91 4263.42 4296.28 4271.47 C 4284.10 4284.63 4269.31 4295.10 4252.87 4302.24 C 4238.27 4308.51 4222.46 4311.44 4206.59 4310.83 C 4188.81 4310.16 4171.50 4304.99 4156.26 4295.80 C 4138.29 4284.59 4123.38 4269.10 4112.85 4250.72 C 4109.27 4244.52 4106.17 4238.32 4104.03 4233.78 L 4099.50 4224.72 L 4090.43 4206.11 L 4072.30 4169.14 C 4048.45 4119.53 4024.60 4069.44 4003.85 4019.11 C 3983.10 3968.78 3961.15 3917.74 3940.64 3866.46 C 3920.13 3815.18 3901.76 3763.89 3884.35 3708.56 L 4065.15 3649.40 Z" fill="#e58a7b" fill-rule="nonzero" node-id="538" stroke="none" target-height="739.07983" target-width="624.68994" target-x="3884.35" target-y="3572.36"></path><path d="M 3987.87 3473.85 C 4079.22 3495.56 4182.03 3765.56 4182.03 3765.56 L 3910.35 3996.69 C 3910.35 3996.69 3734.56 3702.36 3770.10 3605.28 C 3807.07 3504.14 3868.61 3445.47 3987.87 3473.85 Z" fill="#429cfd" fill-rule="nonzero" node-id="540" stroke="none" target-height="551.22" target-width="447.46973" target-x="3734.56" target-y="3445.47"></path><path d="M 4460.38 3486.97 L 4555.79 3407.30 L 4622.10 3510.58 L 4573.20 3596.69 C 4573.20 3596.69 4495.44 3668.25 4426.75 3631.75 C 4415.85 3607.25 4413.23 3579.85 4419.30 3553.72 C 4425.37 3527.60 4439.79 3504.16 4460.38 3486.97 Z" fill="#e58a7b" fill-rule="nonzero" node-id="542" stroke="none" target-height="260.94995" target-width="208.87012" target-x="4413.23" target-y="3407.3"></path><path d="M 4728.00 3407.54 L 4720.85 3433.54 L 4569.86 3458.82 L 4555.07 3407.30 L 4728.00 3407.54 Z" fill="#e58a7b" fill-rule="nonzero" node-id="544" stroke="none" target-height="51.52002" target-width="172.93018" target-x="4555.07" target-y="3407.3"></path><path d="M 3873.61 7538.52 L 3601.22 7362.49 L 3650.12 7277.58 L 3956.14 7465.77 L 3873.61 7538.52 Z" fill="#429cfd" fill-rule="nonzero" node-id="546" stroke="none" target-height="260.93994" target-width="354.91992" target-x="3601.22" target-y="7277.58"></path><path d="M 3410.88 7678.77 C 3386.98 7675.85 3364.02 7667.71 3343.62 7654.92 C 3342.77 7654.63 3342.04 7654.08 3341.53 7653.35 C 3341.01 7652.63 3340.73 7651.76 3340.73 7650.87 C 3340.73 7649.98 3341.01 7649.11 3341.53 7648.38 C 3342.04 7647.65 3342.77 7647.10 3343.62 7646.81 C 3351.01 7644.43 3415.17 7624.63 3433.78 7639.89 C 3435.87 7641.63 3437.46 7643.90 3438.38 7646.46 C 3439.30 7649.01 3439.53 7651.77 3439.02 7654.44 C 3438.69 7658.74 3437.27 7662.88 3434.89 7666.47 C 3432.51 7670.06 3429.25 7672.98 3425.43 7674.96 C 3420.96 7677.40 3415.97 7678.71 3410.88 7678.77 Z M 3357.21 7652.54 C 3387.03 7667.80 3410.88 7673.29 3422.33 7667.56 C 3424.82 7666.18 3426.92 7664.19 3428.42 7661.76 C 3429.93 7659.34 3430.78 7656.58 3430.92 7653.73 C 3430.92 7649.91 3430.92 7648.24 3428.77 7647.29 C 3418.75 7639.18 3382.97 7645.38 3356.73 7652.54 L 3357.21 7652.54 Z" fill="#263238" fill-rule="nonzero" node-id="548" stroke="none" target-height="54.140137" target-width="98.80005" target-x="3340.73" target-y="7624.63"></path><path d="M 3345.29 7656.59 C 3344.03 7656.57 3342.83 7656.06 3341.95 7655.16 C 3341.59 7654.50 3341.41 7653.76 3341.41 7653.01 C 3341.41 7652.26 3341.59 7651.53 3341.95 7650.87 C 3341.95 7648.72 3357.45 7596.96 3381.78 7585.27 C 3384.89 7583.85 3388.26 7583.12 3391.68 7583.12 C 3395.09 7583.12 3398.47 7583.85 3401.58 7585.27 C 3404.93 7586.33 3407.83 7588.48 3409.81 7591.37 C 3411.80 7594.27 3412.77 7597.75 3412.55 7601.25 C 3410.88 7622.72 3367.23 7652.30 3347.19 7657.31 L 3345.29 7656.59 Z M 3391.56 7591.47 C 3389.24 7591.55 3386.96 7592.11 3384.88 7593.14 C 3370.09 7600.30 3357.93 7628.21 3351.96 7645.14 C 3372.95 7636.32 3401.82 7612.94 3402.77 7599.82 C 3402.77 7597.67 3402.77 7595.05 3397.28 7592.67 C 3395.50 7591.71 3393.56 7591.06 3391.56 7590.76 L 3391.56 7591.47 Z" fill="#263238" fill-rule="nonzero" node-id="550" stroke="none" target-height="74.18994" target-width="71.36011" target-x="3341.41" target-y="7583.12"></path><path d="M 3751.25 7781.81 C 3724.30 7781.81 3686.85 7747.23 3666.34 7726.00 C 3665.81 7725.27 3665.53 7724.39 3665.53 7723.50 C 3665.53 7722.60 3665.81 7721.72 3666.34 7720.99 C 3666.81 7720.22 3667.48 7719.60 3668.28 7719.18 C 3669.07 7718.76 3669.97 7718.56 3670.87 7718.61 C 3680.41 7718.61 3763.18 7731.01 3774.87 7754.38 C 3776.10 7756.48 3776.76 7758.87 3776.76 7761.30 C 3776.76 7763.74 3776.10 7766.12 3774.87 7768.22 C 3773.11 7771.86 3770.46 7774.99 3767.17 7777.33 C 3763.87 7779.67 3760.04 7781.13 3756.02 7781.58 L 3751.25 7781.81 Z M 3682.08 7729.34 C 3712.13 7758.44 3738.61 7774.66 3753.64 7772.75 C 3756.27 7772.41 3758.78 7771.42 3760.94 7769.88 C 3763.10 7768.34 3764.85 7766.30 3766.04 7763.93 C 3766.57 7763.11 3766.86 7762.16 3766.86 7761.18 C 3766.86 7760.21 3766.57 7759.25 3766.04 7758.44 C 3759.84 7745.56 3715.71 7734.59 3682.08 7729.34 Z" fill="#263238" fill-rule="nonzero" node-id="552" stroke="none" target-height="63.25" target-width="111.22998" target-x="3665.53" target-y="7718.56"></path><path d="M 3684.70 7728.15 C 3679.35 7728.30 3673.99 7727.90 3668.72 7726.96 C 3667.99 7726.85 3667.29 7726.55 3666.71 7726.09 C 3666.12 7725.63 3665.67 7725.02 3665.38 7724.33 C 3665.03 7723.63 3664.84 7722.85 3664.84 7722.07 C 3664.84 7721.28 3665.03 7720.50 3665.38 7719.80 C 3666.81 7718.13 3699.02 7679.25 3729.55 7676.63 C 3738.19 7675.96 3746.75 7678.70 3753.40 7684.26 C 3762.70 7692.37 3762.22 7699.53 3759.84 7704.06 C 3753.88 7720.28 3712.61 7728.15 3684.70 7728.15 Z M 3678.50 7719.32 C 3705.22 7720.75 3747.91 7711.93 3753.40 7700.24 C 3753.40 7700.24 3755.31 7696.42 3749.11 7691.18 C 3746.64 7689.03 3743.75 7687.42 3740.64 7686.43 C 3737.52 7685.45 3734.23 7685.11 3730.98 7685.45 C 3710.41 7691.19 3692.10 7703.10 3678.50 7719.56 L 3678.50 7719.32 Z" fill="#263238" fill-rule="nonzero" node-id="554" stroke="none" target-height="52.339844" target-width="97.85986" target-x="3664.84" target-y="7675.96"></path><path d="M 3351.73 7630.83 L 3149.46 7573.58 C 3145.97 7572.53 3142.22 7572.80 3138.92 7574.34 C 3135.62 7575.88 3133.00 7578.58 3131.57 7581.93 L 3063.35 7735.30 C 3061.75 7739.23 3061.00 7743.45 3061.14 7747.69 C 3061.29 7751.93 3062.33 7756.09 3064.20 7759.90 C 3066.07 7763.71 3068.73 7767.08 3071.99 7769.79 C 3075.26 7772.49 3079.06 7774.48 3083.15 7775.61 C 3154.71 7794.22 3189.05 7799.47 3278.02 7824.99 C 3332.88 7840.25 3411.12 7868.64 3486.73 7890.10 C 3562.34 7911.57 3587.62 7837.87 3558.29 7822.13 C 3425.67 7752.00 3415.17 7702.86 3378.92 7650.39 C 3372.42 7640.89 3362.80 7633.96 3351.73 7630.83 Z" fill="#429cfd" fill-rule="nonzero" node-id="556" stroke="none" target-height="339.04004" target-width="526.6201" target-x="3061" target-y="7572.53"></path><path d="M 3671.82 7698.09 L 3499.13 7578.83 C 3496.21 7576.70 3492.60 7575.71 3488.99 7576.07 C 3485.39 7576.42 3482.04 7578.08 3479.57 7580.74 L 3365.08 7703.82 C 3362.29 7707.00 3360.21 7710.74 3358.98 7714.78 C 3357.75 7718.83 3357.39 7723.10 3357.93 7727.29 C 3358.47 7731.49 3359.90 7735.52 3362.12 7739.12 C 3364.34 7742.73 3367.30 7745.81 3370.81 7748.18 C 3431.63 7788.97 3463.12 7805.43 3539.21 7858.14 C 3586.91 7890.58 3679.22 7962.61 3743.62 8007.46 C 3808.02 8052.30 3855.96 7990.76 3833.07 7966.43 C 3730.50 7856.95 3708.08 7788.25 3691.14 7726.00 C 3688.20 7714.71 3681.36 7704.82 3671.82 7698.09 Z" fill="#429cfd" fill-rule="nonzero" node-id="558" stroke="none" target-height="476.58984" target-width="498.57007" target-x="3357.39" target-y="7575.71"></path><path d="M 3531.81 7476.27 L 3220.54 7321.46 L 3252.74 7237.03 L 3585.24 7400.18 L 3531.81 7476.27 Z" fill="#429cfd" fill-rule="nonzero" node-id="560" stroke="none" target-height="239.24023" target-width="364.69995" target-x="3220.54" target-y="7237.03"></path><path d="M 3127.04 4558.65 L 3100.80 4627.35 C 3098.18 4632.60 3104.38 4638.08 3113.20 4638.08 L 3902.24 4638.08 C 3909.15 4638.08 3914.88 4634.74 3915.36 4630.45 L 3922.03 4562.23 C 3922.03 4557.70 3916.55 4553.64 3909.15 4553.64 L 3139.44 4553.64 C 3137.12 4553.43 3134.79 4553.77 3132.63 4554.64 C 3130.47 4555.51 3128.55 4556.89 3127.04 4558.65 Z" fill="#429cfd" fill-rule="nonzero" node-id="562" stroke="none" target-height="84.6499" target-width="823.8501" target-x="3098.18" target-y="4553.43"></path><path d="M 3127.04 4558.65 L 3100.80 4627.35 C 3098.18 4632.60 3104.38 4638.08 3113.20 4638.08 L 3902.24 4638.08 C 3909.15 4638.08 3914.88 4634.74 3915.36 4630.45 L 3922.03 4562.23 C 3922.03 4557.70 3916.55 4553.64 3909.15 4553.64 L 3139.44 4553.64 C 3137.12 4553.43 3134.79 4553.77 3132.63 4554.64 C 3130.47 4555.51 3128.55 4556.89 3127.04 4558.65 Z" fill="#ffffff" fill-opacity="0.4" fill-rule="nonzero" group-id="21" node-id="566" stroke="none" target-height="84.6499" target-width="823.8501" target-x="3098.18" target-y="4553.43"></path><path d="M 3251.31 4644.76 L 3230.56 4644.76 C 3226.50 4644.76 3223.40 4642.61 3223.64 4639.99 L 3233.42 4551.50 C 3233.42 4549.11 3237.23 4546.96 3241.29 4546.96 L 3262.04 4546.96 C 3266.10 4546.96 3269.20 4549.11 3268.96 4551.50 L 3259.18 4639.99 C 3258.94 4642.61 3255.36 4644.76 3251.31 4644.76 Z" fill="#429cfd" fill-rule="nonzero" node-id="569" stroke="none" target-height="97.799805" target-width="45.80005" target-x="3223.4" target-y="4546.96"></path><path d="M 3737.89 4644.76 L 3717.38 4644.76 C 3713.33 4644.76 3710.23 4642.61 3710.46 4639.99 L 3720.01 4551.50 C 3720.01 4549.11 3724.06 4546.96 3728.11 4546.96 L 3748.63 4546.96 C 3752.68 4546.96 3756.02 4549.11 3755.54 4551.50 L 3746.00 4639.99 C 3744.81 4642.61 3742.19 4644.76 3737.89 4644.76 Z" fill="#429cfd" fill-rule="nonzero" node-id="571" stroke="none" target-height="97.799805" target-width="45.79004" target-x="3710.23" target-y="4546.96"></path><path d="M 3233.18 8684.15 C 3586.09 8684.15 3872.18 8663.43 3872.18 8637.88 C 3872.18 8612.32 3586.09 8591.60 3233.18 8591.60 C 2880.27 8591.60 2594.18 8612.32 2594.18 8637.88 C 2594.18 8663.43 2880.27 8684.15 3233.18 8684.15 Z" fill="#f5f5f5" fill-rule="nonzero" group-id="22" node-id="575" stroke="none" target-height="92.55078" target-width="1278" target-x="2594.18" target-y="8591.6"></path><path d="M 3622.45 8572.52 C 3509.39 8539.60 3383.93 8497.38 3308.08 8453.26 C 3305.93 8451.83 3303.54 8451.11 3301.40 8449.92 L 3301.40 7938.05 L 3530.14 7938.05 C 3547.50 7937.02 3563.82 7929.40 3575.75 7916.74 C 3587.68 7904.08 3594.33 7887.34 3594.33 7869.95 C 3594.33 7852.55 3587.68 7835.82 3575.75 7823.16 C 3563.82 7810.50 3547.50 7802.88 3530.14 7801.85 L 3302.59 7801.85 L 3302.59 5468.62 L 3165.20 5468.62 L 3165.20 7801.85 L 2937.89 7801.85 C 2928.61 7801.30 2919.31 7802.65 2910.57 7805.83 C 2901.83 7809.00 2893.83 7813.93 2887.07 7820.31 C 2880.30 7826.68 2874.91 7834.38 2871.22 7842.91 C 2867.54 7851.45 2865.64 7860.65 2865.64 7869.95 C 2865.64 7879.25 2867.54 7888.45 2871.22 7896.98 C 2874.91 7905.52 2880.30 7913.21 2887.07 7919.59 C 2893.83 7925.97 2901.83 7930.90 2910.57 7934.07 C 2919.31 7937.24 2928.61 7938.60 2937.89 7938.05 L 3165.20 7938.05 L 3165.20 8449.20 C 3163.05 8449.20 3160.91 8451.11 3158.76 8452.54 C 3081.72 8497.38 2957.21 8539.60 2844.15 8571.80 C 2836.51 8574.11 2829.95 8579.08 2825.66 8585.81 C 2821.37 8592.53 2819.63 8600.57 2820.75 8608.47 C 2821.88 8616.37 2825.79 8623.61 2831.79 8628.87 C 2837.79 8634.13 2845.47 8637.07 2853.45 8637.16 L 3613.15 8637.16 C 3620.77 8636.64 3627.99 8633.52 3633.59 8628.32 C 3639.19 8623.12 3642.84 8616.16 3643.93 8608.60 C 3645.02 8601.03 3643.48 8593.33 3639.57 8586.76 C 3635.66 8580.19 3629.62 8575.17 3622.45 8572.52 Z" fill="#e0e0e0" fill-rule="nonzero" node-id="578" stroke="none" target-height="3168.54" target-width="825.39014" target-x="2819.63" target-y="5468.62"></path><path d="M 3657.51 5231.05 L 2809.32 5231.05 C 2741.09 5231.05 2685.77 5286.37 2685.77 5354.60 L 2685.77 5606.72 C 2685.77 5674.96 2741.09 5730.28 2809.32 5730.28 L 3657.51 5730.28 C 3725.75 5730.28 3781.07 5674.96 3781.07 5606.72 L 3781.07 5354.60 C 3781.07 5286.37 3725.75 5231.05 3657.51 5231.05 Z" fill="#429cfd" fill-rule="nonzero" node-id="580" stroke="none" target-height="499.22998" target-width="1095.3" target-x="2685.77" target-y="5231.05"></path><path d="M 2801.45 5730.52 L 2801.45 5773.93 C 2801.45 5809.71 2840.33 5838.81 2888.04 5838.81 L 3579.75 5838.81 C 3627.46 5838.81 3666.34 5809.71 3666.34 5773.93 L 3666.34 5730.52 L 2801.45 5730.52 Z" fill="#429cfd" fill-rule="nonzero" node-id="582" stroke="none" target-height="108.29004" target-width="864.89014" target-x="2801.45" target-y="5730.52"></path><path d="M 2801.45 5730.52 L 2801.45 5773.93 C 2801.45 5809.71 2840.33 5838.81 2888.04 5838.81 L 3579.75 5838.81 C 3627.46 5838.81 3666.34 5809.71 3666.34 5773.93 L 3666.34 5730.52 L 2801.45 5730.52 Z" fill="#ffffff" fill-opacity="0.3" fill-rule="nonzero" group-id="23" node-id="586" stroke="none" target-height="108.29004" target-width="864.89014" target-x="2801.45" target-y="5730.52"></path></svg>