<?xml version="1.0" standalone="no"?><!DOCTYPE svg PUBLIC "-//W3C//DTD SVG 1.1//EN"
        "http://www.w3.org/Graphics/SVG/1.1/DTD/svg11.dtd">
<svg class="icon" width="200px" height="200.00px" viewBox="0 0 1024 1024" version="1.1"
     xmlns="http://www.w3.org/2000/svg">
    <path d="M251.656 465.031a46.667 46.667 0 1 0 93.335 0.001 46.667 46.667 0 0 0-93.335 0zM465.74 465.031c0 25.774 20.893 46.667 46.666 46.667 25.774 0 46.667-20.893 46.667-46.667 0-25.773-20.893-46.666-46.667-46.666-25.773 0-46.666 20.893-46.666 46.666zM679.823 465.031a46.667 46.667 0 1 0 93.334 0.001 46.667 46.667 0 0 0-93.334 0z"
          fill="#6E6E6E"/>
</svg>