<?xml version="1.0" standalone="no"?><!DOCTYPE svg PUBLIC "-//W3C//DTD SVG 1.1//EN"
        "http://www.w3.org/Graphics/SVG/1.1/DTD/svg11.dtd">
<svg class="icon" width="200px" height="200.00px" viewBox="0 0 1024 1024" version="1.1"
     xmlns="http://www.w3.org/2000/svg">
    <path d="M199.110656 284.444672c-31.418368 0-56.88832-25.469952-56.88832-56.889344 0-31.418368 25.469952-56.88832 56.88832-56.88832 31.419392 0 56.889344 25.469952 56.889344 56.88832 0 31.419392-25.469952 56.889344-56.889344 56.889344z m156.444672-99.555328h483.555328c23.564288 0 42.667008 19.101696 42.667008 42.665984 0 23.564288-19.10272 42.667008-42.667008 42.667008H355.555328c-23.564288 0-42.665984-19.10272-42.665984-42.667008s19.101696-42.665984 42.665984-42.665984z m0 284.443648h483.555328c23.564288 0 42.667008 19.10272 42.667008 42.667008s-19.10272 42.667008-42.667008 42.667008H355.555328c-23.564288 0-42.665984-19.10272-42.665984-42.667008s19.101696-42.667008 42.665984-42.667008z m0 284.444672h483.555328c23.564288 0 42.667008 19.10272 42.667008 42.667008s-19.10272 42.665984-42.667008 42.665984H355.555328c-23.564288 0-42.665984-19.101696-42.665984-42.665984 0-23.564288 19.101696-42.667008 42.665984-42.667008zM199.110656 568.889344c-31.418368 0-56.88832-25.470976-56.88832-56.889344s25.469952-56.889344 56.88832-56.889344C230.530048 455.110656 256 480.581632 256 512s-25.469952 56.889344-56.889344 56.889344z m0 284.443648c-31.418368 0-56.88832-25.469952-56.88832-56.88832 0-31.419392 25.469952-56.889344 56.88832-56.889344 31.419392 0 56.889344 25.469952 56.889344 56.889344 0 31.418368-25.469952 56.88832-56.889344 56.88832z"
          fill="#6e6e6e"/>
</svg>