<?xml version="1.0" standalone="no"?><!DOCTYPE svg PUBLIC "-//W3C//DTD SVG 1.1//EN"
        "http://www.w3.org/Graphics/SVG/1.1/DTD/svg11.dtd">
<svg class="icon" width="200px" height="200.00px" viewBox="0 0 1024 1024" version="1.1"
     xmlns="http://www.w3.org/2000/svg">
    <path  fill="#6E6E6E" d="M1022.244739 804.543567h-43.881535a300.100943 300.100943 0 0 0-297.906867-255.975621c-3.413008 0-6.826017 0.828873-10.726597 0.975145a442.082087 442.082087 0 0 0 6.826017-43.881535c1.462718 0 2.437863 0.390058 3.90058 0.390058a170.650414 170.650414 0 1 0 0-341.300828 174.063423 174.063423 0 0 0-60.459003 11.311684c-5.850871-13.066946-12.676888-25.890106-19.502905-38.420722a217.213599 217.213599 0 0 1 79.961908-15.699838 214.87325 214.87325 0 0 1 215.994668 213.313018 212.094086 212.094086 0 0 1-112.629274 186.203981 342.471003 342.471003 0 0 1 238.423008 283.084658zM504.442625 578.553662a390.545662 390.545662 0 0 1 269.627654 323.504428h-49.732406a339.691839 339.691839 0 0 0-672.850205 0H1.755261a390.545662 390.545662 0 0 1 269.627655-323.504428 243.786306 243.786306 0 1 1 233.059709 0zM387.91277 170.699172a195.029045 195.029045 0 1 0 195.029045 195.029044 195.029045 195.029045 0 0 0-195.029045-195.029044z"/>
</svg>