<?xml version="1.0" standalone="no"?><!DOCTYPE svg PUBLIC "-//W3C//DTD SVG 1.1//EN"
        "http://www.w3.org/Graphics/SVG/1.1/DTD/svg11.dtd">
<svg class="icon" width="200px" height="200.00px" viewBox="0 0 1024 1024" version="1.1"
     xmlns="http://www.w3.org/2000/svg">
    <path d="M192.512 1012.622c-65.536 0-118.329-52.793-118.329-118.329v-700.871c0-65.536 52.793-118.329 118.329-118.329h72.818v-63.715h45.511v63.715h400.498v-63.715h45.511v63.715h72.818c65.536 0 118.329 52.793 118.329 118.329v700.871c0 65.536-52.793 118.329-118.329 118.329h-637.155zM119.694 894.293c0 40.050 32.768 72.818 72.818 72.818h637.155c40.050 0 72.818-32.768 72.818-72.818v-518.827h-782.791v518.827zM192.512 120.605c-40.050 0-72.818 32.768-72.818 72.818v136.533h782.791v-136.533c0-40.050-32.768-72.818-72.818-72.818h-72.818v63.715h-45.511v-63.715h-400.498v63.715h-45.511v-63.715h-72.818z" fill="#6E6E6E"/>
    <path d="M265.33 521.102h491.52v45.511h-491.52zM265.33 714.069h491.52v45.511h-491.52z" fill="#6E6E6E"/>
</svg>