<?xml version="1.0" standalone="no"?><!DOCTYPE svg PUBLIC "-//W3C//DTD SVG 1.1//EN"
        "http://www.w3.org/Graphics/SVG/1.1/DTD/svg11.dtd">
<svg class="icon" width="48px" height="48.00px" viewBox="0 0 1024 1024" version="1.1"
     xmlns="http://www.w3.org/2000/svg">
    <path d="M512 127.8c-213.7 0-384.2 170.5-384.2 384.2S298.3 896.2 512 896.2 896.2 725.7 896.2 512 725.7 127.8 512 127.8z m-29.2 199.3c8-8 14.8-13.3 27.7-13.3 14.4-1.1 27.7 5.7 33 15.9 6.1 7.2 9.5 23.2 8 32.6 0 2.7-1.9 20.5-2.7 25.4l-10.6 134.8c0 13.3-2.7 26.6-8 36.8-2.7 8-10.6 13.3-21.3 13.3-8 0-15.9-5.3-18.6-13.3-5.3-13.3-8-23.9-8-36.8l-7.2-132.1c-2.7-23.9-2.7-15.9-2.7-29.2 0.1-12.8 2.8-23.5 10.4-34.1z m58.4 372.4c-8 8-18.6 10.6-26.6 10.6-10.6 0-21.3-2.7-29.2-10.6-8-8-13.3-18.6-13.3-31.5 0-10.6 2.7-21.3 10.6-29.2 8-8 18.6-13.3 29.2-13.3 10.6 0 21.3 5.3 29.2 13.3 8 8 10.6 18.6 10.6 29.2-0.2 12.9-2.9 23.5-10.5 31.5z m0 0"
          fill="#6e6e6e"/>
</svg>