<svg xml:space="preserve" style="enable-background:new 0 0 1024 1024;" viewBox="0 0 1024 1024" y="0px" x="0px"
     xmlns="http://www.w3.org/2000/svg" id="图层_1" version="1.1">
<style type="text/css">
	.st0{fill:none;stroke:#C7CEFB;stroke-width:2;}
	.st1{fill:none;stroke:#F1F3FF;stroke-width:2;}
	.st2{fill:none;stroke:#E0E6FF;stroke-width:2;}
	.st3{fill:none;stroke:#E6ECFF;stroke-width:2;}
	.st4{fill:none;stroke:#B0C6FF;stroke-width:2;}
	.st5{fill:none;stroke:#808098;stroke-width:2;}
	.st6{fill:none;stroke:#8F98E7;stroke-width:2;}
	.st7{fill:none;stroke:#B5BBF1;stroke-width:2;}
	.st8{fill:none;stroke:#9CA8F9;stroke-width:2;}
	.st9{fill:none;stroke:#878DDA;stroke-width:2;}
	.st10{fill:none;stroke:#FEE7F0;stroke-width:2;}
	.st11{fill:none;stroke:#2C41E1;stroke-width:2;}
	.st12{fill:none;stroke:#6476F4;stroke-width:2;}
	.st13{fill:none;stroke:#FCBCC1;stroke-width:2;}
	.st14{fill:none;stroke:#5767E3;stroke-width:2;}
	.st15{fill:none;stroke:#A8B5FB;stroke-width:2;}
	.st16{fill:none;stroke:#AEBBFB;stroke-width:2;}
	.st17{fill:none;stroke:#B9C1FB;stroke-width:2;}
	.st18{fill:none;stroke:#C6B6EC;stroke-width:2;}
	.st19{fill:none;stroke:#405FE7;stroke-width:2;}
	.st20{fill:none;stroke:#7D3D5A;stroke-width:2;}
	.st21{fill:none;stroke:#7895FB;stroke-width:2;}
	.st22{fill:none;stroke:#97B3FF;stroke-width:2;}
	.st23{fill:none;stroke:#1C2891;stroke-width:2;}
	.st24{fill:none;stroke:#2435D4;stroke-width:2;}
	.st25{fill:none;stroke:#1726C2;stroke-width:2;}
	.st26{fill:none;stroke:#E5D4F0;stroke-width:2;}
	.st27{fill:none;stroke:#7685E7;stroke-width:2;}
	.st28{fill:none;stroke:#080D73;stroke-width:2;}
	.st29{fill:none;stroke:#818CE7;stroke-width:2;}
	.st30{fill:none;stroke:#C6D3FF;stroke-width:2;}
	.st31{fill:none;stroke:#606798;stroke-width:2;}
	.st32{fill:none;stroke:#666D98;stroke-width:2;}
	.st33{fill:none;stroke:#484E93;stroke-width:2;}
	.st34{fill:none;stroke:#7F6889;stroke-width:2;}
	.st35{fill:none;stroke:#101980;stroke-width:2;}
	.st36{fill:none;stroke:#353B89;stroke-width:2;}
	.st37{fill:none;stroke:#314798;stroke-width:2;}
	.st38{fill:none;stroke:#9965BB;stroke-width:2;}
	.st39{fill:none;stroke:#8C55A9;stroke-width:2;}
	.st40{fill:none;stroke:#4D6FF9;stroke-width:2;}
	.st41{fill:none;stroke:#AD83C1;stroke-width:2;}
	.st42{fill:none;stroke:#3854DA;stroke-width:2;}
	.st43{fill:none;stroke:#844A9C;stroke-width:2;}
	.st44{fill:none;stroke:#7980DA;stroke-width:2;}
	.st45{fill:none;stroke:#E3A9C1;stroke-width:2;}
	.st46{fill:none;stroke:#8295F9;stroke-width:2;}
	.st47{fill:none;stroke:#D1DAFF;stroke-width:2;}
	.st48{fill:none;stroke:#DFCEF0;stroke-width:2;}
	.st49{fill:none;stroke:#F0DBF0;stroke-width:2;}
	.st50{fill:none;stroke:#9B90EA;stroke-width:2;}
	.st51{fill:none;stroke:#8E80D8;stroke-width:2;}
	.st52{fill:none;stroke:#8D9BF9;stroke-width:2;}
	.st53{fill:none;stroke:#7D89EC;stroke-width:2;}
	.st54{fill:none;stroke:#5163EA;stroke-width:2;}
	.st55{fill:none;stroke:#A2BAFF;stroke-width:2;}
	.st56{fill:none;stroke:#4554D9;stroke-width:2;}
	.st57{fill:#FFFFFF;}
	.st58{fill:#3850F2;}
	.st59{fill:#1F31CF;}
	.st60{fill:#8F9CF6;}
	.st61{fill:#000030;}
	.st62{fill:#F97983;}
	.st63{fill:#0F1AB5;}
	.st64{fill:#E2E6FF;}
	.st65{fill:#618DFF;}
	.st66{fill:#C0CDFF;}
	.st67{fill:#CCD9FF;}
	.st68{fill:#FDCFE1;}
	.st69{fill:#6A76E2;}
</style>
<g>
	<g>
		<path d="M467.4,197.1L187,197c-0.7,0-1,0.3-1,1l0,141.7" class="st0"></path>
		<path d="M186,339.7c-11.4-0.7-20.5,2.6-27.3,9.7c-3.5,3.7-6,9-8.5,14.1
			c-0.2,0.5-0.8,0.7-1.3,0.4c-0.1,0-0.2-0.1-0.3-0.2c-16.9-16.6-37-38.5-63.9-32.6c-30.5,6.6-32.1,51.4-30.5,75
			c2.1,29.7,11,60.1,21,92.6c0.2,0.7,0,1.2-0.8,1.3c-5.5,1-10.7,2.8-15.6,5.3c-1.1,0.5-1.7,1.1-1.9,1.5c-0.5,1.1-0.2,2,0.9,2.6
			l74.2,41.8" class="st1"></path>
		<path d="M131.9,551.3c4.7,13.4,9.7,25.4,14.9,35.8c9.5,19,21.3,39.6,35.4,62" class="st2"></path>
		<path d="M182.3,649.1c1.1,1,1.8,2.3,2.2,3.9" class="st0"></path>
		<path d="M184.5,653c-1.2-0.1-2.4-0.6-3.5-1.5c-22.6-18.7-54.4-31.6-77.6-6.9
			c-40.3,43.1,6.2,137.4,41.1,171.2c1,1,1.8,0.8,3.1,0.7" class="st3"></path>
		<path d="M147.6,816.5l-0.1,3" class="st4"></path>
		<path d="M147.5,819.5H77c-0.7,0-1,0.3-1,1V838c0,0.6,0.4,1,1,1l92,0" class="st5"></path>
		<path d="M169,838.9l19.5,0.8" class="st6"></path>
		<path d="M188.5,839.7c6.6-0.2,15.4,0.5,26.4,2.4c6.9,1.1,17.5,1.7,31.7,1.5
			c0.7,0,1.1,0.4,1.2,1.1l0.4,12.5c0,1.2,0.7,1.8,1.9,1.8h234.2" class="st0"></path>
		<path d="M484.2,859l121.3,0" class="st7"></path>
		<path d="M605.5,859l105.2,0" class="st8"></path>
		<path d="M710.7,859l70,0.1c0.7,0,1.1-0.4,1.1-1.1l0.1-19.1" class="st9"></path>
		<path d="M782,838.9l192.9,0.1c0.7,0,1.1-0.4,1.1-1.1v-17.4c0-0.7-0.3-1-1-1l-71,0" class="st5"></path>
		<path d="M904,819.5l-0.6-2.3c-0.1-0.5,0-1.1,0.4-1.5
			c25-26.3,47.5-69.1,44.4-106.5c-2.5-29.6-26.6-18.7-39.4-6c-0.9,0.9-1.6,1.5-2.3,1.8c-2.6,1.3-4.1,0.3-4.6-3
			c-0.1-0.4,0-0.8,0.1-1.1c11.2-38.6,18.8-73.3,15.4-113.9" class="st10"></path>
		<path d="M917.3,586.9c18.8-40.6,26.1-84.7,24.6-130c-0.8-22.7-9.1-83.8-40.4-85
			c-15.5-0.6-33,2.8-52.5,10.2" class="st1"></path>
		<path d="M849,382.2l0-119.3c0-0.9-0.7-1.5-1.5-1.5l0,0L547,261.5" class="st0"></path>
		<path d="M547,261.5c25.7-33.9,7.5-81.5-36-84.4" class="st6"></path>
		<path d="M511.1,177.1c-17.9-0.2-32.4,6.4-43.7,19.9" class="st8"></path>
		<path d="M511.1,177.1l-0.8,14.8c-0.1,1.4,0.7,2.7,2,3.3
			c22.9,9.9,33.1,38.6,13.3,56.6c-1.6,1.4-1.8,3.8-0.6,5.5l8.3,11.2c0.4,0.6,1,0.9,1.8,0.9l3.4,0.1" class="st11"></path>
		<path d="M538.6,269.5c-0.7,0.7-1.1,1.3-1.1,1.8" class="st12"></path>
		<path d="M537.4,271.4c-20.5,7.7-38.4,11.8-57.7-1.7
			c-20.1-14.1-26.5-34.6-19.1-61.6" class="st8"></path>
		<path d="M460.7,208l6.7-11" class="st12"></path>
		<path d="M537.4,271.4l299.5,0.7c0.6,0,1,0.4,1,1l-0.1,226" class="st0"></path>
		<path d="M837.8,499.1c-10.5,17.2-18.7,35.1-24.4,53.7c-0.2,0.6-0.8,0.9-1.4,0.7
			c-0.4-0.1-0.6-0.4-0.7-0.8c-0.2-0.9-0.4-2-0.5-3.4c-1-17-2.9-34.1-7.9-50.3" class="st3"></path>
		<path d="M802.9,499c1.1-1.1,2.3-1.6,3.4-1.7" class="st0"></path>
		<path d="M806.3,497.3l2.5-0.5c0.8-0.2,1.1-0.6,1.1-1.4l-0.3-41.8" class="st6"></path>
		<path d="M809.6,453.6c-3.8-69.6-61.9-119.5-129.4-119.7" class="st4"></path>
		<path d="M680.1,333.9c-63.1,1-116.8,48.5-124.6,110.7
			c-2.1,17.1-2.5,35.2-1.3,54.3c0,0.7,0.4,1.1,1.2,1.1H642c0.9,0,1.1-0.4,0.8-1.2c-3.6-7.5-5.7-13.2-6.5-16.9
			c-6.7-31,12.1-58,43.9-60.3" class="st6"></path>
		<path d="M680.1,421.6c23.6,1.7,38.7,14.4,45.4,38.1" class="st4"></path>
		<path d="M725.5,459.7c-14.4,1.2-28.4,2.5-42,4c-0.4,0-0.7,0.2-1,0.4
			c-0.9,0.8-0.6,1.5,0.9,2.3c0.1,0.1,0.2,0.1,0.3,0.1l41.9,10.2" class="st6"></path>
		<path d="M725.6,476.7l-8.3,22.2c-0.3,0.7,0,1.1,0.7,1.1l63,0" class="st4"></path>
		<path d="M781.1,500c-8.2,23.7-11.1,49.6-13.1,74.5c-0.1,1,0.2,2.3,0.7,3.8" class="st3"></path>
		<path d="M768.6,578.3v3.3" class="st4"></path>
		<path d="M768.6,581.7c-2.4,13-1.8,25.5,1.9,37.4" class="st3"></path>
		<path d="M770.6,619.1c-24.7,12.4-23.2,45.1-0.7,59.1c2.3,1.4,7.8,3.1,16.6,5.1" class="st6"></path>
		<path d="M786.4,683.3l-62.2,0.5" class="st0"></path>
		<path d="M724.2,683.8c1.1-14.2,1.6-28.5,1.7-42.8c0.1-10.8-9.8-13.3-18.9-12.5" class="st5"></path>
		<path d="M707.1,628.5c-1.9-8.7-5.6-16.8-11.2-24.4" class="st3"></path>
		<path d="M695.9,604.1c3.5-0.1,6.5-0.3,8.9-0.5c1-0.1,1.5-0.6,1.7-1.4
			c0.2-0.9-0.4-1.9-1.3-2.1c-0.1,0-0.2,0-0.3,0l-12.7-0.8" class="st4"></path>
		<path d="M692.2,599.3c-3.1-4.3-7.2-7.1-12.3-8.2c-19.2-4.3-33.4,23.4-36.3,37.4" class="st3"></path>
		<path d="M643.6,628.5c-63.3,0-126.5,0.2-189.6,0.4c-7.3,0-11.3,3.2-12,9.5
			c-0.8,7.7-1.5,22.8-2.2,45.5" class="st5"></path>
		<path d="M439.8,683.9l-15.7-0.5" class="st0"></path>
		<path d="M424.1,683.4c-4.6-13.2-10.4-25.7-17.3-37.5c-0.3-0.6-0.9-0.9-1.5-0.9
			l-3.4,0" class="st3"></path>
		<path d="M401.9,645l8.5-113.4" class="st5"></path>
		<path d="M410.5,531.6c1.2-0.8,2.8-0.8,4.8,0c0.8,0.3,1.7-0.1,2-0.9
			c0.1-0.3,0.1-0.5,0.1-0.8l-7.4-45.6c-0.1-0.4,0.2-0.8,0.6-0.9c0,0,0.1,0,0.1,0l0.9,0" class="st8"></path>
		<path d="M411.6,483.5c10.6,0.9,17.3-6.6,23.9-14.9c10.7-13.5,19.8-27.7,27.4-42.6" class="st6"></path>
		<path d="M462.9,425.9c7.3-15.6,11.8-30.3,13.6-43.9c0.5-3.5-1.4-5.1-5.6-5" class="st13"></path>
		<path d="M470.9,377l14.5-42.4c0.6-1.9,0-2.8-2-2.8l-80.1-0.6" class="st4"></path>
		<path d="M403.4,331.2c-17.3-6.6-33.3-13.8-48.1-21.6" class="st8"></path>
		<path d="M355.3,309.7l-0.8-9.8" class="st13"></path>
		<path d="M354.5,299.9l12.4-0.1c0.9,0,1.3-0.4,1.2-1.3l-1.6-17.5" class="st5"></path>
		<path d="M366.6,281c-0.1-1.7-0.6-3.3-1.6-4.9" class="st13"></path>
		<path d="M365,276.1c7-1.1,10.7-10.8,2-10.6" class="st5"></path>
		<path d="M367,265.5c1.7-6.3,1.6-12.3-0.5-17.8" class="st13"></path>
		<path d="M366.4,247.7c13.3-4.7,14.7-23.3,0.5-25.4c-3.6-0.5-7.8,0.8-11.5,1.8
			c-0.7,0.2-1.4,0-1.9-0.4c-6.6-4.9-13.1-8.8-20.7-2.8c-3.1,2.4-2.3,4.8-7.3,5.2c-10.6,0.9-12.1,9.4-11,18.2
			c0.1,0.7-0.2,1.4-0.8,1.8c-2.7,1.7-3.9,4.3-3.7,7.5c0.1,0.8,0.5,1.3,1.2,1.6l4,1.6c0.7,0.3,1.1,0.7,1.4,1.4l4.7,11.7" class="st5"></path>
		<path d="M321.3,269.8c3.7,2.5,5.1,6.3,4.3,11.2c-1.5,9.1-3.5,18.1-5.9,26.9" class="st13"></path>
		<path d="M319.7,307.9l-8.9,3.8" class="st6"></path>
		<path d="M310.8,311.7l-36.5,15.9" class="st9"></path>
		<path d="M274.3,327.7c-2.6,0.9-5.7,2.1-9.2,3.7c-18.6,8.3-43.9,84.7-47.5,105.5" class="st6"></path>
		<path d="M217.5,436.8c-3.3,20.8,9.8,24.4,27.3,23.4c9.7-0.6,19.4-1.3,29.2-2.3" class="st8"></path>
		<path d="M274,457.9l-0.8,72.3c0,0.7,0.3,1.2,0.9,1.6l1.3,0.7" class="st9"></path>
		<path d="M275.4,532.4c0.5,1,0.7,2.2,0.6,3.6c-1.1,35.6-2.5,71.3-4.1,107.1" class="st5"></path>
		<path d="M271.9,643.1l-3.5,0.2c-0.7,0-1.1,0.3-1.3,1l-7.3,18
			c-0.1,0.3-0.5,0.5-0.8,0.3c-0.3-0.1-0.4-0.4-0.4-0.7c0.2-1.3,0-2.4-0.7-3.4" class="st3"></path>
		<path d="M257.8,658.4c12.9-78.1-10.6-157.4-60.8-218.3" class="st2"></path>
		<path d="M547,261.5l-8.5,8" class="st14"></path>
		<path d="M460.7,208l-263.4,0c-0.4,0-0.8,0.3-0.8,0.8l0.5,231.3" class="st0"></path>
		<path d="M197,440.1l-0.6,1.8c-0.2,0.6-0.3,1.2-0.3,1.9
			c-0.2,70.6-0.3,141.3-0.3,211.9c0,5.4,1.7,10.3,3.5,15.2c0.3,0.9,0.1,1.5-0.7,2l-0.6,0.4c-0.5,0.3-1,0.3-1.3-0.2l-9-12.5" class="st15"></path>
		<path d="M187.7,660.6l-3.2-7.6" class="st16"></path>
		<path d="M182.3,649.1l2.8-2.8c0.4-0.4,0.6-0.9,0.5-1.5
			c-1.1-17.4-0.7-34.9,1.2-52.2c0.1-0.7,0-1.3-0.2-1.9c-0.5-1.6-0.8-3.8-0.7-6.6c0.5-38.5,0.4-90.2-0.3-155.3" class="st15"></path>
		<path d="M185.5,428.7l0.5-89" class="st17"></path>
		<path d="M849,382.2l-0.2,98.8" class="st17"></path>
		<path d="M848.8,480.9l-1,110.9" class="st15"></path>
		<path d="M847.8,591.8l-9.8,18.4" class="st18"></path>
		<path d="M838.1,610.2l-0.3-111.1" class="st16"></path>
		<path d="M680.1,333.9v87.7" class="st19"></path>
		<path d="M806.3,497.3c-3-1.3-5.7-3.3-8.2-6c-0.5-0.5-1-0.8-1.7-0.9
			c-3.1-0.7-6.3-0.4-9.3,0.8" class="st14"></path>
		<path d="M787.1,491.1l-61.5-14.4" class="st19"></path>
		<path d="M439.9,695.6l-12.1-0.5" class="st0"></path>
		<path d="M427.7,695l-29.4-1.6" class="st16"></path>
		<path d="M793.8,681.2c-4.5,0.3-7,1-7.3,2.1" class="st14"></path>
		<path d="M366.4,247.7c-6.1,0.1-11.8-1.4-17-4.6c-4.4-2.7-16.7-7.2-21.7-5.7
			c-3.1,0.9-5.4,2.8-6.8,5.5c-0.3,0.6-0.2,0.7,0.4,0.3c6.2-4.6,8.1-6.5,16.1-3.4c4.6,1.8,13.6,2.7,12.5,10c-1.1,7-5.5,9.8-13.3,8.5
			c-0.4-0.1-0.9,0.2-0.9,0.7c0,0.1,0,0.1,0,0.2l0.1,3.2c0,0.9,0.5,1.3,1.3,1.4l15,1.7c0.7,0.1,0.7,0.3,0.1,0.6l-1.7,0.9
			c-0.4,0.2-0.7,0.6-0.8,1.1c-0.4,2.7,0.7,4.6,3.3,5.7c1.2,0.5,2.5-0.1,3-1.3c0.1-0.3,0.2-0.6,0.2-0.8v-4.5c0-0.7,0.3-1.1,1-1.1
			l9.9-0.4" class="st20"></path>
		<path d="M365,276.1c-2.2-1.6-3.2-3.9-3-6.8c0.1-0.7-0.2-1.1-0.8-1.4l-1.1-0.5
			c-0.7-0.3-1.5,0.1-1.8,0.8c0,0.1-0.1,0.2-0.1,0.3l-0.4,3.8c-0.1,0.8-0.5,1.4-1.3,1.7c-4.8,2-8.1-0.9-8.5-5.7
			c-0.1-0.9-0.5-1.4-1.4-1.5l-9-1.3c-0.6-0.1-1,0.1-1.1,0.7c-3.5,11.7,16.1,25.5,27.1,26.5c0.8,0.1,1.2-0.3,1.3-1l0.9-5
			c0.2-1.1-0.3-1.6-1.4-1.3c-1.6,0.3-3.2,0.2-4.7-0.5c-0.3-0.1-0.6-0.3-0.7-0.6c-0.3-0.5-0.2-0.9,0.1-1.4c0.3-0.4,0.8-0.6,1.3-0.3
			l1.6,0.9c0.7,0.4,1.4,0.5,2.1,0.2c1.4-0.5,2.2-1.4,2.4-2.6" class="st20"></path>
		<path d="M354.5,299.9c-23.2-6.1-21.6-12.5-23.7-33.7c-0.1-0.7-0.4-1.3-0.9-1.7
			c-5-3.9-7.1,1.7-8.6,5.3" class="st20"></path>
		<path d="M787.1,491.1l-3.2,4.4c-0.4,0.5-0.5,1.2-0.3,1.8
			c0.4,1.6,0.1,2.5-1.1,2.5" class="st21"></path>
		<path d="M782.5,499.9c-0.5,0.2-1,0.2-1.5,0.1" class="st22"></path>
		<path d="M410.5,531.6l-41.5-0.9c-0.7,0-1.3-0.4-1.6-1l-12.6-26" class="st23"></path>
		<path d="M354.7,503.8c-1.8-19.9-2.9-40.5-3.2-61.6c0-1-0.2-1.7-0.7-2.1
			c-0.6-0.5-1.4-0.7-2.4-0.6" class="st24"></path>
		<path d="M326.6,320.6l20,28.7" class="st6"></path>
		<path d="M346.6,349.3l-0.2,1.1" class="st11"></path>
		<path d="M346.4,350.3l-6.7-0.8c-0.7-0.1-1.3,0-1.9,0.3
			c-7.3,3.1-12.4,0.4-15.9-6.5c-5.2-10.2-8.9-20.7-11.1-31.5" class="st25"></path>
		<path d="M838.1,610.2l-20.7,42.1" class="st26"></path>
		<path d="M817.4,652.3c-0.1-26.3-21.9-43.6-46.9-33.2" class="st27"></path>
		<path d="M768.6,581.7l36.2,0.1c0.8,0,1.5-0.7,1.5-1.5c0-0.4-0.1-0.8-0.4-1
			c-0.9-0.9-2.1-1.3-3.7-1.2c-11.1,0.6-22.4-0.1-33.6,0.3" class="st22"></path>
		<path d="M424.1,683.4l-25-0.1" class="st16"></path>
		<path d="M795.6,695.1l-68.4-0.4" class="st0"></path>
		<path d="M411.6,483.5l-0.7-0.4c-0.6-0.3-1-0.8-1.1-1.4l-7.8-46.8" class="st11"></path>
		<path d="M802.9,499l-20.4,0.8" class="st16"></path>
		<path d="M354.7,503.8l-13.6,25.2c-0.7,1.3-2,2.1-3.4,2.1l-62.4,1.4" class="st28"></path>
		<path d="M275.1,414.8c-1.6,2-2.6,4.3-3.2,7" class="st29"></path>
		<path d="M271.9,421.8c-19.2-0.4-40.5-0.1-54.4,15" class="st11"></path>
		<path d="M257.8,658.4c-0.1,0.2-0.3,0.3-0.5,0.5c-0.2,0.1-0.5,0.1-0.7-0.1
			c-16.9-20.5-35.6-39.2-56.2-56.1c-0.5-0.4-0.8-0.3-1.1,0.2l-0.3,0.5c-0.3,0.5-0.2,0.9,0.2,1.3c6.7,6.7,24.7,22.3,23.5,32.2
			c-1.7,15.1-2.7,30.4-2.9,45.7c0,0.8,0.6,1.5,1.5,1.5c0,0,0.1,0,0.1,0c16.2-1.2,32.4-0.9,48.4,0.9" class="st30"></path>
		<path d="M269.9,685l0.1,9.2" class="st31"></path>
		<path d="M270,694.2l-48.1-0.3c-0.8,0-1.3,0.4-1.5,1.1c-0.9,3,2.2,6.1,1,9.5
			c-0.2,0.5-0.7,0.8-1.2,0.6c-0.2-0.1-0.4-0.2-0.5-0.4l-6.4-9.5c-1.1-1.6-3.1-2.4-5-2c-6.7,1.6-16.4,2.7-18.4-6.1
			c-2.1-9.5-2.8-18.4-2.1-26.6" class="st30"></path>
		<path d="M401.9,645l-2.8,38.3" class="st32"></path>
		<path d="M399.1,683.3l-0.8,10.1" class="st33"></path>
		<path d="M398.3,693.5L389.4,809c-0.1,0.7,0.5,1.3,1.2,1.4
			c7.9,0.9,15,3.7,21.4,8.4c0.6,0.4,1.2,0.7,2,0.7h19c0.7,0,1.1-0.4,1.2-1.1L438,728" class="st32"></path>
		<path d="M438,728l1.9-32.4" class="st5"></path>
		<path d="M439.9,695.6l0-11.6" class="st33"></path>
		<path d="M643.6,628.5h63.4" class="st32"></path>
		<path d="M724.2,683.8l0,9.1" class="st33"></path>
		<path d="M724.2,693l-2.6,55.4" class="st34"></path>
		<path d="M721.7,748.4l-9.3-0.6c-0.7,0-1.1-0.4-1.1-1.2l1.8-73.2" class="st35"></path>
		<path d="M713,673.5l0.9-32.6c0-0.5-0.4-0.9-0.8-0.9c0,0,0,0,0,0H453.4
			c-0.8,0-1.3,0.4-1.3,1.3l-1.5,41" class="st5"></path>
		<path d="M450.6,682.2c-0.5,5.4-0.7,11-0.7,16.6c0.2,16.1-2.3,32-2.4,48.1
			c-0.1,7.9-1.8,16.9-1.5,24c0.4,12.2,0.1,24.4-0.9,36.5c0,0.3,0.2,0.5,0.5,0.6c0,0,0,0,0,0l163.2,0c0.8,0,1.5,0.6,1.5,1.5
			c0,0.2,0,0.3-0.1,0.4l-2.2,7c-0.6,2,0.1,3,2.2,2.9l26.1-0.3" class="st35"></path>
		<path d="M636.2,819.5l144.3,0" class="st23"></path>
		<path d="M780.5,819.5l7.8,0" class="st34"></path>
		<path d="M788.3,819.5l33.8-0.1c0.3,0,0.7-0.1,0.9-0.3l0.9-0.6" class="st23"></path>
		<path d="M824,818.5c0,0.2,0,0.4,0,0.5c0.1,0.3,0.2,0.4,0.5,0.4l79.5,0.1" class="st34"></path>
		<path d="M782,838.9l-68.7-0.4" class="st28"></path>
		<path d="M713.3,838.5L603,839" class="st23"></path>
		<path d="M603,839H483" class="st36"></path>
		<path d="M483,839H207.5" class="st33"></path>
		<path d="M207.5,839c-12.9-1.2-25.7-1.2-38.6-0.1" class="st35"></path>
		<path d="M147.5,819.5l32.6,0.2" class="st37"></path>
		<path d="M180.1,819.7l3.9-0.2" class="st32"></path>
		<path d="M184,819.5h43" class="st23"></path>
		<path d="M227,819.5l1.5,0" class="st32"></path>
		<path d="M228.5,819.4h28.2" class="st20"></path>
		<path d="M256.8,819.4l5.9,0c0.8,0,1.2-0.4,1.3-1.1c2.4-19.6,2.3-45.4,2.9-58.7
			c1.1-22.2,2.1-44,3.1-65.4" class="st32"></path>
		<path d="M269.9,685l2-41.9" class="st32"></path>
		<path d="M355.3,309.7l0,9.7" class="st38"></path>
		<path d="M355.4,319.4c-10.1,3.1-19.7,3.5-28.8,1.2" class="st13"></path>
		<path d="M326.6,320.6c-3.6-3.9-5.9-8.1-6.9-12.7" class="st39"></path>
		<path d="M692.2,599.3l-18.6,0.8c-0.7,0-1.2,0.5-1.3,1.2c-0.1,1,0.5,1.6,1.9,1.7
			c7.7,0.6,15,0.9,21.7,1.2" class="st22"></path>
		<path d="M462.9,425.9c-3.3,0.3-5.6-0.3-6.9-1.9" class="st39"></path>
		<path d="M403.4,331.2l-31.3,0.7c-0.7,0-1.2,0.4-1.4,1.1L349,405.5" class="st40"></path>
		<path d="M349,405.5c-2-19-2.9-37.4-2.6-55.2" class="st24"></path>
		<path d="M346.6,349.3c4-9.7,6.9-19.7,8.8-29.9" class="st8"></path>
		<path d="M809.6,453.6l-84.1,6.1" class="st19"></path>
		<path d="M470.9,377c-18,2.6-19.4,16.8-15.3,31.3c1.7,6,1.2,10,0.3,15.7" class="st41"></path>
		<path d="M456,424c-1-1-1.6-0.6-2,1c-0.8,3.5-2,6.4-3.5,8.5
			c-0.4,0.6-1,0.9-1.7,0.9l-46.8,0.6" class="st19"></path>
		<path d="M402,434.9l-46,0" class="st40"></path>
		<path d="M356,434.9l11-7.8c1.1-0.8,1.4-2.4,0.6-3.5c-0.1-0.2-0.3-0.3-0.4-0.5
			c-5.8-4.8-12.3-8.2-19.4-10.4" class="st41"></path>
		<path d="M349,405.5l-1.3,7.2" class="st42"></path>
		<path d="M347.7,412.7c-19-6-25.6,2.1-37.6,14.5" class="st43"></path>
		<path d="M310.1,427.2l-2.2-5.9c-0.3-0.9-1.2-1.4-2.1-1.3l-27.5,2.1
			c-0.7,0.1-1.4-0.2-1.8-0.7l-0.7-0.8" class="st24"></path>
		<path d="M275.8,420.5c0.5-2.1,0.3-4-0.7-5.7" class="st44"></path>
		<path d="M275.1,414.8c3.8-7.7,8.7-18.4,14.6-32.1c9.5-22.1,4.3-40.4-15.4-55" class="st25"></path>
		<path d="M310.8,440c-0.4,3.1,0.1,6.5,1.3,10.2c0.2,0.5-0.1,1.1-0.6,1.3
			c0,0-0.1,0-0.1,0l-37.3,6.4" class="st24"></path>
		<path d="M256.8,819.4l-0.7-54.6c0-1.3-0.6-1.9-1.9-1.8l-22.5,0.4
			c-0.8,0-1.2,0.4-1.2,1.2c-0.1,17-0.1,33.9-0.1,50.8c0,2.4-0.6,3.7-1.9,4.1" class="st45"></path>
		<path d="M227,819.5c-0.1-0.3-0.4-0.5-0.9-0.6c-0.3-0.1-0.4-0.2-0.4-0.5
			l-0.8-83.5c0-0.7-0.4-1-1.1-1l-38.8,0.2c-0.7,0-1,0.3-1,1l0,84.4" class="st46"></path>
		<path d="M180.1,819.7l-0.1-50c0-0.9-0.7-1.7-1.6-1.7h-29.9c-0.7,0-1,0.3-1,1
			l0.1,47.5" class="st22"></path>
		<path d="M185.5,428.7c-7.5-8.5-15.9-14.7-25.2-18.5
			c-32.3-13.4-41.2,32.7-41.7,53.9c-0.8,31.5,4.5,56.4,13.3,87.3" class="st47"></path>
		<path d="M905.6,561.4c-20.5-4.2-33.2,3.4-45.9,18.2c-3.8,4.3-7.7,8.4-11.9,12.3" class="st48"></path>
		<path d="M917.3,586.9c-3-8.8-6.9-17.3-11.7-25.5" class="st49"></path>
		<path d="M905.6,561.4c1.2-22.2,1.5-93.8-28.1-96c-13.8-1-18.9,8.1-28.7,15.5" class="st47"></path>
		<path d="M824,818.5v-28c0-0.7-0.3-1-1-1h-33.5c-0.9,0-1.3,0.4-1.3,1.3l0.1,28.7" class="st50"></path>
		<path d="M780.5,819.5l0-54.3c0-0.7-0.4-1.1-1.1-1.1l-58.1,0.3" class="st50"></path>
		<path d="M721.3,764.4l5.8-12.8c0.3-0.7,0.1-1.2-0.6-1.5l-4.8-1.6" class="st51"></path>
		<path d="M724.2,693c1.1,0.1,2.1,0.6,3,1.7" class="st18"></path>
		<path d="M727.2,694.6l2.1,16.5c0.2,1.6,0.9,1.8,2.1,0.8c9-7.5,19.7-8.4,28.7-0.3
			c10.4,9.2,15.5,29.7,18.9,42.7c0.1,0.4,0.5,0.6,0.8,0.5c0.2,0,0.3-0.2,0.4-0.3c0.2-0.4,0.4-0.9,0.5-1.6c3-19.4,7.9-38.7,14.9-57.9" class="st10"></path>
		<path d="M795.6,695.1l-1.9-13.9" class="st18"></path>
		<path d="M793.8,681.2c13.1-4.7,20.9-14.3,23.7-28.9" class="st51"></path>
		<path d="M427.7,695c4.4,10.3,7.2,21,8.2,32c0.1,0.7,0.4,1,1.1,1h1" class="st3"></path>
		<path d="M356,434.9l-7.6,4.5" class="st38"></path>
		<path d="M348.4,439.4c-11.5,7.4-25.8,4.7-37.7,0.6" class="st43"></path>
		<path d="M310.8,440c-2-4.6-2.2-8.9-0.7-12.8" class="st38"></path>
		<path d="M275.8,420.5c-0.4,1.5-1.7,1.9-3.9,1.3" class="st52"></path>
		<path d="M721.3,764.4l-12.5,19c-0.3,0.4-0.6,0.7-1,1l-6.4,4.6" class="st11"></path>
		<path d="M701.5,789l1-37.3c0-0.6-0.3-0.9-0.9-0.8l-7.6,1.7" class="st39"></path>
		<path d="M694,752.6c0-0.6-0.2-1.1-0.6-1.5c-0.3-0.3-0.7-0.4-1.3-0.5
			c-15.2-0.6-30.3-0.8-45.5-0.6c-0.9,0-1.6,0.2-2,0.6c-0.7,0.6-0.9,1.4-0.5,2.4c0.3,0.6,0.9,1.1,1.6,1.1l42.1,0.1" class="st6"></path>
		<path d="M687.8,754.2l-9.8,27.1c-0.2,0.5-0.8,0.8-1.3,0.6
			c-0.1,0-0.2-0.1-0.3-0.2l-9.4-8.9c-0.5-0.4-1.2-0.4-1.7,0.1c-0.1,0.1-0.2,0.3-0.3,0.4c-3.8,11.8-9,23.5-15.6,35.3" class="st39"></path>
		<path d="M649.5,808.5l-13.3,11" class="st11"></path>
		<path d="M483,839l-2.3,3.5c-0.3,0.5-0.4,1.1-0.3,1.6l1.1,5.3
			c0.1,0.6,0.4,1,0.8,1.4c1.7,1.4,2.4,4.1,1.9,8.2" class="st53"></path>
		<path d="M713.3,838.5c-0.8,4.1-0.6,7.5,0.3,10.2c0.2,0.6,0.2,1.2,0,1.8l-2.9,8.6" class="st24"></path>
		<path d="M605.5,859c-1.2-0.3-1.8-1.2-1.5-2.7c0.1-0.7-0.2-1.4-0.8-1.7l-5-2.6
			c-0.5-0.2-0.7-0.6-0.7-1.1c-0.1-2.3,0.7-4.3,2.2-5.9c0.5-0.5,0.8-1.2,0.8-1.9v-2.5c0-0.7,0.3-1,1-1c0.8,0,1.3-0.2,1.5-0.5" class="st54"></path>
		<path d="M713,673.5c-5.7,0.8-11.4,1.7-17,2.8c-9.3,1.8-16.9,8.1-24.5,13.3
			c-0.5,0.4-1.2,0.6-1.9,0.5c-12-0.1-24-0.4-36-0.6c-7.8-0.2-14.5,2.6-21.9,4.6c-0.5,0.1-1-0.2-1.1-0.7l-1.7-6
			c-0.3-1-1.3-1.6-2.3-1.3c-0.1,0-0.1,0-0.2,0.1c-8.4,3.3-16.8,6.7-25.3,10.1c-9.3,3.8-26.2,0.1-36-1.7
			c-4.7-0.9-10.8-12.1-13.8-16.1c-0.6-0.8-1.2-0.8-1.8,0l-13.7,16.8c-0.4,0.5-1,0.7-1.6,0.5c-16.2-5.4-32.4-10.7-48.4-16
			c-6-1.9-9.8,0.1-15.2,2.4" class="st6"></path>
		<path d="M207.5,839l-19.1,0.7" class="st14"></path>
		<path d="M701.5,789c-6.9,5.8-11.7,10.7-20.5,13.1c-9.9,2.7-20.4,4.9-31.5,6.4" class="st38"></path>
		<path d="M694,752.6c-1.4,1.2-3.5,1.7-6.2,1.6" class="st13"></path>
		<path d="M736.5,234.3c0-1-0.8-1.9-1.9-1.9l-24.5,0c-1,0-1.9,0.8-1.9,1.9
			c0,0,0,0,0,0l0,1.8c0,1,0.8,1.9,1.9,1.9l24.5,0c1,0,1.9-0.8,1.9-1.9c0,0,0,0,0,0L736.5,234.3" class="st13"></path>
		<path d="M705,234.1c0-0.9-0.7-1.6-1.6-1.6l0,0H573.6c-0.9,0-1.6,0.7-1.6,1.6v0
			v2.2c0,0.9,0.7,1.6,1.6,1.6l0,0h129.8c0.9,0,1.6-0.7,1.6-1.6l0,0V234.1" class="st6"></path>
		<path d="M767.8,234.4c0-0.9-0.8-1.6-1.7-1.6l-24,0.3c-0.9,0-1.6,0.8-1.6,1.7l0,1
			c0,0.9,0.8,1.6,1.7,1.6l24-0.3c0.9,0,1.6-0.8,1.6-1.7L767.8,234.4" class="st0"></path>
		<path d="M491.2,208.4c-7.3,0.1-9.5,9-2.8,13.4c11.1,7.1,21.7,14.8,31.9,23.1
			c0.2,0.2,0.5,0.2,0.6,0c0.1-0.2,0.2-0.4,0-0.6c-6-7.5-11.9-15.1-17.9-22.7C500.3,218,496.9,208.3,491.2,208.4" class="st8"></path>
		<path d="M235.1,284.9c15.3,0.5,28.1-11.8,28.6-27.6c0,0,0,0,0,0
			c0.6-15.8-11.4-29-26.6-29.5c-15.3-0.5-28.1,11.8-28.6,27.6c0,0,0,0,0,0C207.9,271.1,219.8,284.3,235.1,284.9" class="st8"></path>
		<path d="M298.4,249.9c0-1-0.8-1.9-1.9-1.9l-18.7-0.1c-1,0-1.9,0.8-1.9,1.9l0,0.2
			c0,1,0.8,1.9,1.9,1.9l18.7,0.1c1,0,1.9-0.8,1.9-1.9L298.4,249.9" class="st0"></path>
		<path d="M298.3,268c0-1-0.8-1.8-1.8-1.8l-18.6-0.2c-1,0-1.8,0.8-1.8,1.8l0,0
			l0,0.2c0,1,0.8,1.8,1.8,1.8l0,0l18.6,0.2c1,0,1.8-0.8,1.8-1.8l0,0L298.3,268" class="st0"></path>
		<path d="M499.1,458.5l-0.7,64.9c0,1,0.4,1.3,1.4,1l1-0.3c0.8-0.2,1.3-1,1.3-1.8
			l-0.9-64.9" class="st13"></path>
		<path d="M501.2,457.4l0.7-154.3c0-0.7-0.4-1.1-1.1-1.1h-1.4
			c-0.9,0-1.3,0.4-1.3,1.3l1,155.2" class="st6"></path>
		<path d="M501.2,457.4c-0.7,0.1-1.4,0.5-2.1,1.1" class="st39"></path>
		<path d="M594.8,308c0-0.9-0.7-1.7-1.7-1.7c0,0,0,0,0,0l-64.9-0.1
			c-0.9,0-1.7,0.7-1.7,1.7l0,0.2c0,0.9,0.7,1.7,1.7,1.7c0,0,0,0,0,0l64.9,0.1c0.9,0,1.7-0.7,1.7-1.7L594.8,308" class="st9"></path>
		<path d="M626.2,308c0-0.6-0.4-1-1-1h0l-26.9-0.2c-0.6,0-1,0.4-1,1c0,0,0,0,0,0
			l0,0.1c0,0.6,0.4,1,1,1l0,0l26.9,0.2c0.6,0,1-0.4,1-1c0,0,0,0,0,0L626.2,308" class="st13"></path>
		<path d="M583.3,343.7c0-0.8-0.7-1.5-1.5-1.5c0,0,0,0,0,0l-54.6,0.3
			c-0.8,0-1.5,0.7-1.5,1.5c0,0,0,0,0,0l0,0.9c0,0.8,0.7,1.5,1.5,1.5c0,0,0,0,0,0l54.6-0.3c0.8,0,1.5-0.7,1.5-1.5c0,0,0,0,0,0
			L583.3,343.7" class="st0"></path>
		<path d="M577.3,510.3c0-0.8-0.7-1.5-1.5-1.5l-20.2,0c-0.8,0-1.5,0.7-1.5,1.5v0
			l0,0.4c0,0.8,0.7,1.5,1.5,1.5h0l20.2,0c0.8,0,1.5-0.7,1.5-1.5l0,0L577.3,510.3" class="st4"></path>
		<path d="M644.2,510.2c0-0.7-0.6-1.3-1.3-1.3l-39.8,0.3c-0.7,0-1.3,0.6-1.3,1.3
			c0,0,0,0,0,0l0,0.1c0,0.7,0.6,1.3,1.3,1.3l39.8-0.3C643.6,511.6,644.2,511,644.2,510.2C644.2,510.2,644.2,510.2,644.2,510.2
			L644.2,510.2" class="st9"></path>
		<path d="M772.4,510.2c0-0.7-0.6-1.3-1.4-1.3c0,0,0,0,0,0l-45.4,0.4
			c-0.7,0-1.3,0.6-1.3,1.4l0,0.1c0,0.7,0.6,1.3,1.4,1.3c0,0,0,0,0,0l45.4-0.4C771.8,511.6,772.4,511,772.4,510.2L772.4,510.2" class="st9"></path>
		<path d="M644,517.4c0-0.8-0.6-1.4-1.4-1.4L603,516c-0.8,0-1.4,0.6-1.4,1.4
			c0,0,0,0,0,0l0,0.3c0,0.8,0.6,1.4,1.4,1.4l39.6,0.1c0.8,0,1.4-0.6,1.4-1.4c0,0,0,0,0,0L644,517.4" class="st9"></path>
		<path d="M771.9,517.3c0-0.6-0.5-1-1-1l-45.3-0.2c-0.6,0-1,0.5-1,1c0,0,0,0,0,0
			l0,0.8c0,0.6,0.5,1,1,1l45.3,0.2c0.6,0,1-0.5,1-1c0,0,0,0,0,0L771.9,517.3" class="st9"></path>
		<path d="M645.2,524.9c0-0.5-0.4-0.9-0.9-0.9l0,0l-41.2-0.2
			c-0.5,0-0.9,0.4-0.9,0.9v0l0,0.2c0,0.5,0.4,0.9,0.9,0.9l0,0l41.2,0.2c0.5,0,0.9-0.4,0.9-0.9L645.2,524.9" class="st9"></path>
		<path d="M763.1,525.1c0-0.6-0.5-1.1-1.1-1.1l-36.4-0.4c-0.6,0-1.1,0.5-1.1,1.1
			l0,0.1c0,0.6,0.5,1.1,1.1,1.1l36.4,0.4C762.6,526.2,763.1,525.8,763.1,525.1L763.1,525.1" class="st9"></path>
		<path d="M492.2,617.8c15.3,2.2,29.5-8.8,31.7-24.5c2.2-15.7-8.4-30.2-23.6-32.3
			c-15.3-2.2-29.5,8.8-31.7,24.5C466.3,601.2,476.9,615.7,492.2,617.8" class="st4"></path>
		<path d="M672.9,579.7c0-0.9-0.8-1.7-1.7-1.7H543.6c-0.9,0-1.7,0.8-1.7,1.7v0.6
			c0,0.9,0.8,1.7,1.7,1.7h127.6c0.9,0,1.7-0.8,1.7-1.7V579.7" class="st6"></path>
		<path d="M718.4,580c0-1-0.8-1.8-1.8-1.8h-38.6c-1,0-1.8,0.8-1.8,1.8v0.1
			c0,1,0.8,1.8,1.8,1.8h38.6C717.6,581.9,718.4,581.1,718.4,580L718.4,580" class="st4"></path>
		<path d="M760.5,579.9c0-1.1-0.9-1.9-1.9-1.9l-33.6,0.1c-1.1,0-1.9,0.9-1.9,1.9
			c0,0,0,0,0,0v0.1c0,1.1,0.9,1.9,1.9,1.9c0,0,0,0,0,0l33.6-0.1C759.6,581.9,760.5,581.1,760.5,579.9
			C760.5,580,760.5,580,760.5,579.9L760.5,579.9" class="st4"></path>
		<path d="M642,601.8c0-1-0.8-1.8-1.8-1.8l-32.5,0.2c-1,0-1.8,0.8-1.8,1.8l0,0.1
			c0,1,0.8,1.8,1.8,1.8l32.5-0.2C641.2,603.7,642,602.8,642,601.8L642,601.8" class="st4"></path>
		<path d="M752,601.8c0-1.1-0.9-1.9-1.9-1.9l0,0l-28.6,0.1c-1.1,0-1.9,0.9-1.9,1.9
			l0,0.1c0,1.1,0.9,1.9,1.9,1.9h0l28.6-0.2c1.1,0,1.9-0.9,1.9-1.9L752,601.8" class="st4"></path>
		<path d="M577.8,602c0-0.7-0.6-1.3-1.3-1.3l0,0l-33.1-0.1c-0.7,0-1.3,0.6-1.3,1.3
			l0,0l0,0.1c0,0.7,0.6,1.3,1.3,1.3l0,0l33.1,0.1c0.7,0,1.3-0.6,1.3-1.3l0,0L577.8,602" class="st7"></path>
		<path d="M367.9,273.9c1.4-0.2,2.4-1.9,2.1-3.8c-0.2-1.9-1.6-3.3-3-3.2
			c-1.4,0.2-2.4,1.9-2.1,3.8C365.1,272.7,366.5,274.1,367.9,273.9" class="st5"></path>
		<path d="M239,255.7c-0.6-0.1-1-0.5-1.1-1.1l-0.7-4.6c-0.1-0.7-0.8-1.2-1.6-1.1
			c-0.6,0.1-1,0.5-1.1,1.1l-0.7,4.6c-0.1,0.6-0.5,1-1.1,1.1l-4.6,0.7c-0.7,0.1-1.2,0.8-1.1,1.6c0.1,0.6,0.5,1,1.1,1.1l4.6,0.7
			c0.6,0.1,1,0.5,1.1,1.1l0.7,4.6c0.1,0.7,0.8,1.2,1.6,1.1c0.6-0.1,1-0.5,1.1-1.1l0.7-4.6c0.1-0.6,0.5-1,1.1-1.1l4.6-0.7
			c0.7-0.1,1.2-0.8,1.1-1.6c-0.1-0.6-0.5-1-1.1-1.1L239,255.7" class="st8"></path>
		<path d="M405.1,390.9c-0.2,0.3,0,0.7,0.3,0.9c0.1,0,0.2,0.1,0.3,0.1l17.9,0.2
			c0.4,0,0.7-0.3,0.7-0.7c0-0.1,0-0.2-0.1-0.3l-8.7-18c-0.2-0.3-0.6-0.5-0.9-0.3c-0.1,0.1-0.2,0.2-0.3,0.3L405.1,390.9" class="st4"></path>
		<path d="M727.8,420c-0.6-0.8-4.1,1.1-7.8,4.1c0,0,0,0,0,0
			c-3.7,3-6.1,6.1-5.5,6.9c0,0,0,0,0,0c0.6,0.8,4.1-1.1,7.8-4.1c0,0,0,0,0,0C726,423.9,728.5,420.8,727.8,420
			C727.8,420,727.8,420,727.8,420" class="st41"></path>
		<path d="M806.4,601.6c0-1-0.8-1.7-1.8-1.7l-31,0.3c-1,0-1.7,0.8-1.7,1.8l0,0.1
			c0,1,0.8,1.7,1.8,1.7l31-0.3c1,0,1.7-0.8,1.7-1.8L806.4,601.6" class="st22"></path>
		<path d="M321,684.3l-1.8,8.6" class="st31"></path>
		<path d="M319.1,692.9l-23.3,115.9c-0.2,0.8,0.3,1.5,1.1,1.7c0,0,0,0,0.1,0
			c7.5,1.2,14.4,4,20.5,8.5c0.5,0.4,1,0.5,1.6,0.5H356c1,0,1.8-0.8,1.8-1.8c0-0.1,0-0.1,0-0.2L346,692.9" class="st32"></path>
		<path d="M346,692.9l-0.8-7.8" class="st31"></path>
		<path d="M345.2,685.1l-7.7-76.2c0-0.3-0.2-0.6-0.5-0.6c-0.3,0-0.6,0.2-0.6,0.5
			l0,0L321,684.3" class="st32"></path>
		<path d="M345.2,685.1c-8.5-1.4-16.6-1.7-24.3-0.8" class="st30"></path>
		<path d="M346,692.9c-9.8,2.4-18.7,2.4-26.9,0" class="st30"></path>
		<path d="M505.9,577.8c0-0.5-0.4-0.9-0.9-1c-0.3,0-0.5,0.1-0.7,0.3l-15.8,15.1
			c-0.4,0.4-0.4,0.9,0,1.3c0.2,0.2,0.4,0.3,0.6,0.3l15.3,0.1c0.5,0,0.9-0.4,0.9-0.9L505.9,577.8" class="st4"></path>
		<path d="M782,655.2l8.6-2.3c0.2-0.1,0.3-0.3,0.3-0.5l-1.4-5.2
			c-0.7-2.6-3.3-4.1-5.8-3.4l-0.3,0.1c-2.5,0.7-4,3.3-3.3,5.9l1.4,5.2C781.5,655.1,781.8,655.2,782,655.2
			C782,655.2,782,655.2,782,655.2" class="st29"></path>
		<path d="M492.5,668c0.4-5.1-9.1-12.8-12.9-15.6c-1-0.8-2.5-0.6-3.3,0.4
			c-3.2,4-6.9,7.2-11.2,9.7c-1.8,1-2.4,3.3-1.3,5.1c0.7,1.1,1.8,1.8,3.1,1.8l23.7,0.3C491.6,669.8,492.4,669,492.5,668" class="st4"></path>
		<path d="M593.3,663.4c0-0.3-0.2-0.5-0.5-0.5c0,0,0,0,0,0l-82.1-0.3
			c-0.3,0-0.5,0.2-0.5,0.5l0,0l0,0.8c0,0.3,0.2,0.5,0.5,0.5h0l82.1,0.3c0.3,0,0.5-0.2,0.5-0.5c0,0,0,0,0,0L593.3,663.4" class="st7"></path>
		<path d="M692.4,663.7c0-0.6-0.5-1.1-1.1-1.1l-77.6-0.1c-0.6,0-1.1,0.5-1.1,1.1
			l0,0.1c0,0.6,0.5,1.1,1.1,1.1c0,0,0,0,0,0l77.6,0.1C691.9,664.8,692.4,664.3,692.4,663.7C692.4,663.7,692.4,663.7,692.4,663.7
			L692.4,663.7" class="st7"></path>
		<path d="M785.4,652.8c1.8-0.2,3.1-1.9,2.9-3.9c-0.2-2-1.8-3.4-3.6-3.3
			c-1.8,0.2-3.1,1.9-2.9,3.9C782,651.5,783.6,653,785.4,652.8" class="st29"></path>
		<path d="M483.3,664c0.4,0,0.7-0.3,0.7-0.6c0-0.2-0.1-0.3-0.2-0.4l-4.1-5
			c-0.2-0.3-0.6-0.3-0.9-0.1c0,0,0,0,0,0l-6.2,5c-0.3,0.2-0.3,0.6-0.1,0.9c0.1,0.2,0.3,0.3,0.5,0.3H483.3" class="st55"></path>
		<path d="M501.5,698.1c0-0.3-0.2-0.5-0.5-0.5l0,0h-0.1c-0.3,0-0.5,0.2-0.5,0.5
			l0,0v100.2c0,0.3,0.2,0.5,0.5,0.5l0,0h0.1c0.3,0,0.5-0.2,0.5-0.5l0,0V698.1" class="st56"></path>
		<path d="M575.6,701.6c0-0.3-0.2-0.5-0.5-0.5l0,0c-0.3,0-0.5,0.2-0.5,0.5l0,0
			l-0.2,96.9c0,0.3,0.2,0.5,0.5,0.5l0,0l0,0c0.3,0,0.5-0.2,0.5-0.5l0,0L575.6,701.6" class="st56"></path>
		<path d="M636,705.9c0-0.8-0.7-1.5-1.5-1.5c0,0,0,0,0,0l-48.7,0.1
			c-0.8,0-1.5,0.7-1.5,1.5l0,0.6c0,0.8,0.7,1.5,1.5,1.5c0,0,0,0,0,0l48.7-0.1c0.8,0,1.5-0.7,1.5-1.5L636,705.9" class="st6"></path>
		<path d="M702.5,705.9c0-1-0.8-1.7-1.7-1.7h0l-54.9,0.3c-1,0-1.7,0.8-1.7,1.7v0
			l0,0.2c0,1,0.8,1.7,1.7,1.7l0,0l54.9-0.3c1,0,1.7-0.8,1.7-1.7v0L702.5,705.9" class="st6"></path>
		<path d="M473.9,706.7c0-0.6-0.5-1.1-1.1-1.1l-19.5,0.2c-0.6,0-1.1,0.5-1.1,1.1
			c0,0,0,0,0,0l0,0.1c0,0.6,0.5,1.1,1.1,1.1l19.5-0.2c0.6,0,1.1-0.5,1.1-1.1v0L473.9,706.7" class="st6"></path>
		<path d="M480.3,708l0.9-0.4c0.5-0.2,0.6-0.8,0.4-1.3c-0.2-0.4-0.6-0.6-1.1-0.5
			l-1.9,0.6c-0.4,0.1-0.4,0.3-0.1,0.6l0.8,0.8C479.5,708.1,479.9,708.2,480.3,708" class="st27"></path>
		<path d="M536.7,707.5c0-0.8-5.4-1.5-12-1.5c-6.6-0.1-12,0.5-12,1.3c0,0,0,0,0,0
			c0,0.8,5.4,1.5,12,1.5C531.3,708.9,536.7,708.3,536.7,707.5C536.7,707.5,536.7,707.5,536.7,707.5" class="st6"></path>
		<path d="M538.5,707.3c0.8,0.6,1.7,0.9,2.6,0.7c0.4-0.1,0.6-0.5,0.5-0.9
			c-0.1-0.3-0.4-0.6-0.7-0.6l-2.3,0.1c-0.2,0-0.4,0.2-0.4,0.4C538.4,707.1,538.4,707.2,538.5,707.3" class="st27"></path>
		<path d="M636,713.9c0-1.1-0.9-1.9-1.9-1.9L586,712c-1.1,0-1.9,0.9-1.9,1.9
			c0,0,0,0,0,0l0,0.1c0,1.1,0.9,1.9,1.9,1.9l48.1-0.1C635.2,715.9,636,715,636,713.9L636,713.9" class="st6"></path>
		<path d="M694,713.8c0-1-0.8-1.8-1.8-1.8c0,0,0,0,0,0h-46.4c-1,0-1.8,0.8-1.8,1.8
			v0.4c0,1,0.8,1.8,1.8,1.8h46.4c1,0,1.8-0.8,1.8-1.8c0,0,0,0,0,0V713.8" class="st6"></path>
		<path d="M471.8,715.8c0-1-0.8-1.8-1.8-1.8l0,0l-16,0.1c-1,0-1.8,0.8-1.8,1.8
			c0,0,0,0,0,0l0,0.1c0,1,0.8,1.8,1.8,1.8l0,0l16-0.1c1,0,1.8-0.8,1.8-1.8v0L471.8,715.8" class="st6"></path>
		<path d="M533.9,716.7c0-0.7-0.5-1.2-1.2-1.2c0,0,0,0,0,0l-19,0
			c-0.7,0-1.2,0.5-1.2,1.2v0.1c0,0.7,0.5,1.2,1.2,1.2c0,0,0,0,0,0l19,0C533.3,718,533.9,717.4,533.9,716.7L533.9,716.7" class="st6"></path>
		<path d="M666.3,721.1c0-0.8-0.7-1.5-1.5-1.5l0,0h-19.2c-0.8,0-1.5,0.7-1.5,1.5
			v0.2c0,0.8,0.7,1.5,1.5,1.5l0,0h19.2c0.8,0,1.5-0.7,1.5-1.5v0V721.1" class="st6"></path>
		<path d="M534,725.9c0-1-0.8-1.8-1.8-1.8l-18.2,0c-1,0-1.8,0.8-1.8,1.8l0,0.2
			c0,1,0.8,1.8,1.8,1.8l18.2,0c1,0,1.8-0.8,1.8-1.8L534,725.9" class="st6"></path>
		<path d="M532.7,735c0-0.4-4.2-0.7-9.3-0.7c0,0,0,0,0,0c-5.1,0-9.3,0.3-9.3,0.6
			c0,0.4,4.2,0.7,9.3,0.7c0,0,0,0,0,0C528.5,735.6,532.7,735.4,532.7,735" class="st29"></path>
		<path d="M486,743.9c0-0.8-0.7-1.5-1.5-1.4l-31.3,0.4c-0.8,0-1.5,0.7-1.4,1.5l0,0
			l0,0.4c0,0.8,0.7,1.5,1.5,1.4l31.3-0.4c0.8,0,1.5-0.7,1.4-1.5L486,743.9" class="st6"></path>
		<path d="M533.9,744.3c0-0.9-0.7-1.6-1.6-1.6c0,0,0,0,0,0l-18.6-0.2
			c-0.9,0-1.6,0.7-1.6,1.6l0,0.2c0,0.9,0.7,1.6,1.6,1.6c0,0,0,0,0,0l18.6,0.2c0.9,0,1.6-0.7,1.6-1.6l0,0L533.9,744.3" class="st6"></path>
		<path d="M635.9,744.6c0-0.9-0.7-1.7-1.7-1.7l-48,0.2c-0.9,0-1.7,0.7-1.7,1.7l0,0
			l0,0.1c0,0.9,0.7,1.7,1.7,1.7l48-0.2c0.9,0,1.7-0.7,1.7-1.7l0,0L635.9,744.6" class="st6"></path>
		<path d="M702.1,744.4c0-0.8-0.6-1.4-1.4-1.4c0,0,0,0,0,0l-55.1,0.2
			c-0.8,0-1.4,0.6-1.4,1.4l0,0l0,0.6c0,0.8,0.6,1.4,1.4,1.4c0,0,0,0,0,0l55.1-0.2c0.8,0,1.4-0.6,1.4-1.4l0,0L702.1,744.4" class="st6"></path>
		<path d="M636,752c0-1.1-0.9-1.9-1.9-1.9h0l-47.4-0.1c-1.1,0-1.9,0.9-1.9,1.9l0,0
			v0c0,1.1,0.9,1.9,1.9,1.9l0,0L634,754C635.1,754,636,753.1,636,752L636,752L636,752" class="st6"></path>
		<path d="M679.8,756.9c0-0.3-1.1-0.5-2.5-0.5c-1.4,0-2.5,0.3-2.5,0.6v0
			c0,0.3,1.1,0.5,2.5,0.5C678.7,757.5,679.8,757.3,679.8,756.9C679.8,756.9,679.8,756.9,679.8,756.9" class="st19"></path>
		<path d="M636.2,759.7c0-0.9-0.8-1.7-1.7-1.7l-48.5,0.1c-0.9,0-1.7,0.8-1.7,1.7
			l0,0l0,0.1c0,0.9,0.8,1.7,1.7,1.7l0,0l48.5-0.1c0.9,0,1.7-0.8,1.7-1.7l0,0L636.2,759.7" class="st6"></path>
		<path d="M669.9,759.2c0-0.8-0.6-1.4-1.4-1.3l-23.1,0.3c-0.8,0-1.4,0.6-1.3,1.4
			l0,0.9c0,0.8,0.6,1.4,1.4,1.3l23.1-0.3c0.8,0,1.4-0.6,1.3-1.4L669.9,759.2" class="st6"></path>
		<path d="M459,763.6c2.2,0.1,4.4,0,6.5-0.2c0.2,0,0.4-0.2,0.4-0.4
			c0-0.2-0.2-0.4-0.4-0.4l0,0c-2.2-0.3-4.4-0.4-6.7-0.5c-0.8,0-1.4,0.3-1.3,0.7C457.6,763.3,458.2,763.6,459,763.6" class="st14"></path>
		<path d="M522.7,762.9c0-0.4-1.8-0.6-4.1-0.5c0,0,0,0,0,0
			c-2.3,0.1-4.1,0.4-4.1,0.7c0,0.4,1.8,0.6,4.1,0.5c0,0,0,0,0,0C520.9,763.6,522.7,763.3,522.7,762.9" class="st11"></path>
		<path d="M605.8,766.8c0-0.7-0.5-1.3-1.3-1.3l-18.6-0.6c-0.7,0-1.3,0.5-1.3,1.3
			l0,0.4c0,0.7,0.5,1.3,1.3,1.3l18.6,0.6c0.7,0,1.3-0.5,1.3-1.3L605.8,766.8" class="st6"></path>
		<path d="M661.5,766.8c0-0.6-0.5-1.1-1.1-1.1c0,0,0,0,0,0l-15-0.3
			c-0.6,0-1.1,0.5-1.1,1.1l0,0.5c0,0.6,0.5,1.1,1.1,1.1c0,0,0,0,0,0l15,0.3c0.6,0,1.1-0.5,1.1-1.1L661.5,766.8" class="st6"></path>
		<path d="M452.1,771.8c0.4,0.4,1.1,0.2,1.7-0.4c0.6-0.6,0.7-1.3,0.4-1.7
			c0,0,0,0,0,0c-0.4-0.4-1.1-0.2-1.7,0.4C451.9,770.7,451.8,771.5,452.1,771.8" class="st56"></path>
		<path d="M472.6,779.3c0-0.8-0.6-1.4-1.4-1.4c0,0,0,0,0,0l-17.6,0.1
			c-0.8,0-1.4,0.6-1.4,1.4l0,0.1c0,0.8,0.6,1.4,1.4,1.4c0,0,0,0,0,0l17.6-0.1C472,780.8,472.6,780.2,472.6,779.3L472.6,779.3" class="st6"></path>
		<path d="M490.5,779.1c0-0.6-3.4-1-7.5-1.1c-4.2,0-7.5,0.4-7.5,0.9c0,0,0,0,0,0
			c0,0.6,3.4,1,7.5,1.1S490.5,779.6,490.5,779.1C490.5,779.1,490.5,779.1,490.5,779.1" class="st29"></path>
		<path d="M534.7,779.6c0-1-5.1-1.8-11.5-1.8c0,0,0,0,0,0c-6.3,0-11.5,0.8-11.5,1.8
			l0,0c0,1,5.1,1.8,11.5,1.8S534.7,780.6,534.7,779.6" class="st6"></path>
		<path d="M551.4,778.9c0-0.5-3.3-1-7.4-0.9c-4.1,0-7.4,0.4-7.4,1v0
			c0,0.5,3.3,1,7.4,0.9C548.1,779.8,551.4,779.4,551.4,778.9C551.4,778.9,551.4,778.9,551.4,778.9" class="st29"></path>
		<path d="M635.6,779.8c0-0.3-0.2-0.5-0.5-0.5l-50.3,1.1c-0.3,0-0.5,0.2-0.5,0.5
			l0,0l0.1,2.5c0,0.3,0.2,0.5,0.5,0.5l0,0l50.3-1.1c0.3,0,0.5-0.2,0.5-0.5L635.6,779.8" class="st6"></path>
		<path d="M471.8,788c0-1-0.8-1.9-1.9-1.9l-16.1-0.1c-1,0-1.9,0.8-1.9,1.9l0,0
			l0,0.1c0,1,0.8,1.9,1.9,1.9l16.1,0.1c1,0,1.9-0.8,1.9-1.9v0L471.8,788" class="st6"></path>
		<path d="M533.4,788c0-1-0.8-1.9-1.9-1.9l-17.6-0.1c-1,0-1.9,0.8-1.9,1.9l0,0.1
			c0,1,0.8,1.9,1.9,1.9l17.6,0.1c1,0,1.9-0.8,1.9-1.9v0L533.4,788" class="st6"></path>
		<path d="M635.3,787.7c0-0.8-0.6-1.4-1.4-1.4l-47.9,0.4c-0.8,0-1.4,0.6-1.4,1.4
			c0,0,0,0,0,0l0,0.7c0,0.8,0.6,1.4,1.4,1.4l47.9-0.4c0.8,0,1.4-0.6,1.4-1.4c0,0,0,0,0,0L635.3,787.7" class="st6"></path>
	</g>
	<path d="M-2,0h1024v1024H-2V0z M463.4,197.1L183,197c-0.7,0-1,0.3-1,1l0,141.7c-11.4-0.7-20.5,2.6-27.3,9.7
		c-3.5,3.7-6,9-8.5,14.1c-0.2,0.5-0.8,0.7-1.3,0.4c-0.1,0-0.2-0.1-0.3-0.2c-16.9-16.6-37-38.5-63.9-32.6
		c-30.5,6.6-32.1,51.4-30.5,75c2.1,29.7,11,60.1,21,92.6c0.2,0.7,0,1.2-0.8,1.3c-5.5,1-10.7,2.8-15.6,5.3c-1.1,0.5-1.7,1.1-1.9,1.5
		c-0.5,1.1-0.2,2,0.9,2.6l74.2,41.8c4.7,13.4,9.7,25.4,14.9,35.8c9.5,19,21.3,39.6,35.4,62c1.1,1,1.8,2.3,2.2,3.9
		c-1.2-0.1-2.4-0.6-3.5-1.5c-22.6-18.7-54.4-31.6-77.6-6.9c-40.3,43.1,6.2,137.4,41.1,171.2c1,1,1.8,0.8,3.1,0.7l-0.1,3H73
		c-0.7,0-1,0.3-1,1V838c0,0.6,0.4,1,1,1l92,0l19.5,0.8c6.6-0.2,15.4,0.5,26.4,2.4c6.9,1.1,17.5,1.7,31.7,1.5c0.7,0,1.1,0.4,1.2,1.1
		l0.4,12.5c0,1.2,0.7,1.8,1.9,1.8h234.2l121.3,0l105.2,0l70,0.1c0.7,0,1.1-0.4,1.1-1.1l0.1-19.1l192.9,0.1c0.7,0,1.1-0.4,1.1-1.1
		v-17.4c0-0.7-0.3-1-1-1l-71,0l-0.6-2.3c-0.1-0.5,0-1.1,0.4-1.5c25-26.3,47.5-69.1,44.4-106.5c-2.5-29.6-26.6-18.7-39.4-6
		c-0.9,0.9-1.6,1.5-2.3,1.8c-2.6,1.3-4.1,0.3-4.6-3c-0.1-0.4,0-0.8,0.1-1.1c11.2-38.6,18.8-73.3,15.4-113.9
		c18.8-40.6,26.1-84.7,24.6-130c-0.8-22.7-9.1-83.8-40.4-85c-15.5-0.6-33,2.8-52.5,10.2l0-119.3c0-0.9-0.7-1.5-1.5-1.5l0,0
		L543,261.5c25.7-33.9,7.5-81.5-36-84.4C489.2,176.9,474.6,183.6,463.4,197.1z M732.5,234.3c0-1-0.8-1.9-1.9-1.9l-24.5,0
		c-1,0-1.9,0.8-1.9,1.9c0,0,0,0,0,0l0,1.8c0,1,0.8,1.9,1.9,1.9l24.5,0c1,0,1.9-0.8,1.9-1.9c0,0,0,0,0,0L732.5,234.3z M701,234.1
		c0-0.9-0.7-1.6-1.6-1.6l0,0H569.6c-0.9,0-1.6,0.7-1.6,1.6v0v2.2c0,0.9,0.7,1.6,1.6,1.6l0,0h129.8c0.9,0,1.6-0.7,1.6-1.6l0,0V234.1z
		 M763.8,234.4c0-0.9-0.8-1.6-1.7-1.6l-24,0.3c-0.9,0-1.6,0.8-1.6,1.7l0,1c0,0.9,0.8,1.6,1.7,1.6l24-0.3c0.9,0,1.6-0.8,1.6-1.7
		L763.8,234.4z" class="st57"></path>
	<path d="M511.1,177.1l-0.8,14.8c-0.1,1.4,0.7,2.7,2,3.3c22.9,9.9,33.1,38.6,13.3,56.6c-1.6,1.4-1.8,3.8-0.6,5.5
		l8.3,11.2c0.4,0.6,1,0.9,1.8,0.9l3.4,0.1c-0.7,0.7-1.1,1.3-1.1,1.8c-20.5,7.7-38.4,11.8-57.7-1.7c-20.1-14.1-26.5-34.6-19.1-61.6
		l6.7-11C478.6,183.6,493.2,176.9,511.1,177.1z M491.2,208.4c-7.3,0.1-9.5,9-2.8,13.4c11.1,7.1,21.7,14.8,31.9,23.1
		c0.2,0.2,0.5,0.2,0.6,0c0.1-0.2,0.2-0.4,0-0.6c-6-7.5-11.9-15.1-17.9-22.7C500.3,218,496.9,208.3,491.2,208.4z" class="st58"></path>
	<path d="M511.1,177.1c43.5,2.9,61.7,50.5,36,84.4l-8.5,8l-3.4-0.1c-0.7,0-1.3-0.3-1.8-0.9l-8.3-11.2
		c-1.2-1.7-1-4.1,0.6-5.5c19.8-17.9,9.6-46.7-13.3-56.6c-1.3-0.6-2.1-1.9-2-3.3L511.1,177.1z" class="st59"></path>
	<path d="M467.4,197.1l-6.7,11l-263.4,0c-0.4,0-0.8,0.3-0.8,0.8l0.5,231.3l-0.6,1.8c-0.2,0.6-0.3,1.2-0.3,1.9
		c-0.2,70.6-0.3,141.3-0.3,211.9c0,5.4,1.7,10.3,3.5,15.2c0.3,0.9,0.1,1.5-0.7,2l-0.6,0.4c-0.5,0.3-1,0.3-1.3-0.2l-9-12.5l-3.2-7.6
		c-0.4-1.6-1.1-2.9-2.2-3.9l2.8-2.8c0.4-0.4,0.6-0.9,0.5-1.5c-1.1-17.4-0.7-34.9,1.2-52.2c0.1-0.7,0-1.3-0.2-1.9
		c-0.5-1.6-0.8-3.8-0.7-6.6c0.5-38.5,0.4-90.2-0.3-155.3l0.5-89l0-141.7c0-0.7,0.3-1,1-1L467.4,197.1z" class="st60"></path>
	<path d="M460.7,208c-7.4,27-1,47.5,19.1,61.6c19.3,13.5,37.2,9.4,57.7,1.7l299.5,0.7c0.6,0,1,0.4,1,1l-0.1,226
		c-10.5,17.2-18.7,35.1-24.4,53.7c-0.2,0.6-0.8,0.9-1.4,0.7c-0.4-0.1-0.6-0.4-0.7-0.8c-0.2-0.9-0.4-2-0.5-3.4
		c-1-17-2.9-34.1-7.9-50.3c1.1-1.1,2.3-1.6,3.4-1.7l2.5-0.5c0.8-0.2,1.1-0.6,1.1-1.4l-0.3-41.8c-3.8-69.6-61.9-119.5-129.4-119.7
		c-63.1,1-116.8,48.5-124.6,110.7c-2.1,17.1-2.5,35.2-1.3,54.3c0,0.7,0.4,1.1,1.2,1.1H642c0.9,0,1.1-0.4,0.8-1.2
		c-3.6-7.5-5.7-13.2-6.5-16.9c-6.7-31,12.1-58,43.9-60.3c23.6,1.7,38.7,14.4,45.4,38.1c-14.4,1.2-28.4,2.5-42,4
		c-0.4,0-0.7,0.2-1,0.4c-0.9,0.8-0.6,1.5,0.9,2.3c0.1,0.1,0.2,0.1,0.3,0.1l41.9,10.2l-8.3,22.2c-0.3,0.7,0,1.1,0.7,1.1l63,0
		c-8.2,23.7-11.1,49.6-13.1,74.5c-0.1,1,0.2,2.3,0.7,3.8v3.3c-2.4,13-1.8,25.5,1.9,37.4c-24.7,12.4-23.2,45.1-0.7,59.1
		c2.3,1.4,7.8,3.1,16.6,5.1l-62.2,0.5c1.1-14.2,1.6-28.5,1.7-42.8c0.1-10.8-9.8-13.3-18.9-12.5c-1.9-8.7-5.6-16.8-11.2-24.4
		c3.5-0.1,6.5-0.3,8.9-0.5c1-0.1,1.5-0.6,1.7-1.4c0.2-0.9-0.4-1.9-1.3-2.1c-0.1,0-0.2,0-0.3,0l-12.7-0.8c-3.1-4.3-7.2-7.1-12.3-8.2
		c-19.2-4.3-33.4,23.4-36.3,37.4c-63.3,0-126.5,0.2-189.6,0.4c-7.3,0-11.3,3.2-12,9.5c-0.8,7.7-1.5,22.8-2.2,45.5l-15.7-0.5
		c-4.6-13.2-10.4-25.7-17.3-37.5c-0.3-0.6-0.9-0.9-1.5-0.9l-3.4,0l8.5-113.4c1.2-0.8,2.8-0.8,4.8,0c0.8,0.3,1.7-0.1,2-0.9
		c0.1-0.3,0.1-0.5,0.1-0.8l-7.4-45.6c-0.1-0.4,0.2-0.8,0.6-0.9c0,0,0.1,0,0.1,0l0.9,0c10.6,0.9,17.3-6.6,23.9-14.9
		c10.7-13.5,19.8-27.7,27.4-42.6c7.3-15.6,11.8-30.3,13.6-43.9c0.5-3.5-1.4-5.1-5.6-5l14.5-42.4c0.6-1.9,0-2.8-2-2.8l-80.1-0.6
		c-17.3-6.6-33.3-13.8-48.1-21.6l-0.8-9.8l12.4-0.1c0.9,0,1.3-0.4,1.2-1.3l-1.6-17.5c-0.1-1.7-0.6-3.3-1.6-4.9
		c7-1.1,10.7-10.8,2-10.6c1.7-6.3,1.6-12.3-0.5-17.8c13.3-4.7,14.7-23.3,0.5-25.4c-3.6-0.5-7.8,0.8-11.5,1.8c-0.7,0.2-1.4,0-1.9-0.4
		c-6.6-4.9-13.1-8.8-20.7-2.8c-3.1,2.4-2.3,4.8-7.3,5.2c-10.6,0.9-12.1,9.4-11,18.2c0.1,0.7-0.2,1.4-0.8,1.8
		c-2.7,1.7-3.9,4.3-3.7,7.5c0.1,0.8,0.5,1.3,1.2,1.6l4,1.6c0.7,0.3,1.1,0.7,1.4,1.4l4.7,11.7c3.7,2.5,5.1,6.3,4.3,11.2
		c-1.5,9.1-3.5,18.1-5.9,26.9l-8.9,3.8l-36.5,15.9c-2.6,0.9-5.7,2.1-9.2,3.7c-18.6,8.3-43.9,84.7-47.5,105.5
		c-3.3,20.8,9.8,24.4,27.3,23.4c9.7-0.6,19.4-1.3,29.2-2.3l-0.8,72.3c0,0.7,0.3,1.2,0.9,1.6l1.3,0.7c0.5,1,0.7,2.2,0.6,3.6
		c-1.1,35.6-2.5,71.3-4.1,107.1l-3.5,0.2c-0.7,0-1.1,0.3-1.3,1l-7.3,18c-0.1,0.3-0.5,0.5-0.8,0.3c-0.3-0.1-0.4-0.4-0.4-0.7
		c0.2-1.3,0-2.4-0.7-3.4c12.9-78.1-10.6-157.4-60.8-218.3l-0.5-231.3c0-0.4,0.3-0.8,0.8-0.8L460.7,208z M235.1,284.9
		c15.3,0.5,28.1-11.8,28.6-27.6c0,0,0,0,0,0c0.6-15.8-11.4-29-26.6-29.5c-15.3-0.5-28.1,11.8-28.6,27.6c0,0,0,0,0,0
		C207.9,271.1,219.8,284.3,235.1,284.9z M298.4,249.9c0-1-0.8-1.9-1.9-1.9l-18.7-0.1c-1,0-1.9,0.8-1.9,1.9l0,0.2
		c0,1,0.8,1.9,1.9,1.9l18.7,0.1c1,0,1.9-0.8,1.9-1.9L298.4,249.9z M298.3,268c0-1-0.8-1.8-1.8-1.8l-18.6-0.2c-1,0-1.8,0.8-1.8,1.8
		l0,0l0,0.2c0,1,0.8,1.8,1.8,1.8l0,0l18.6,0.2c1,0,1.8-0.8,1.8-1.8l0,0L298.3,268z M499.1,458.5l-0.7,64.9c0,1,0.4,1.3,1.4,1l1-0.3
		c0.8-0.2,1.3-1,1.3-1.8l-0.9-64.9l0.7-154.3c0-0.7-0.4-1.1-1.1-1.1h-1.4c-0.9,0-1.3,0.4-1.3,1.3L499.1,458.5z M594.8,308
		c0-0.9-0.7-1.7-1.7-1.7c0,0,0,0,0,0l-64.9-0.1c-0.9,0-1.7,0.7-1.7,1.7l0,0.2c0,0.9,0.7,1.7,1.7,1.7c0,0,0,0,0,0l64.9,0.1
		c0.9,0,1.7-0.7,1.7-1.7L594.8,308z M626.2,308c0-0.6-0.4-1-1-1h0l-26.9-0.2c-0.6,0-1,0.4-1,1c0,0,0,0,0,0l0,0.1c0,0.6,0.4,1,1,1
		l0,0l26.9,0.2c0.6,0,1-0.4,1-1c0,0,0,0,0,0L626.2,308z M583.3,343.7c0-0.8-0.7-1.5-1.5-1.5c0,0,0,0,0,0l-54.6,0.3
		c-0.8,0-1.5,0.7-1.5,1.5c0,0,0,0,0,0l0,0.9c0,0.8,0.7,1.5,1.5,1.5c0,0,0,0,0,0l54.6-0.3c0.8,0,1.5-0.7,1.5-1.5c0,0,0,0,0,0
		L583.3,343.7z M577.3,510.3c0-0.8-0.7-1.5-1.5-1.5l-20.2,0c-0.8,0-1.5,0.7-1.5,1.5v0l0,0.4c0,0.8,0.7,1.5,1.5,1.5h0l20.2,0
		c0.8,0,1.5-0.7,1.5-1.5l0,0L577.3,510.3z M644.2,510.2c0-0.7-0.6-1.3-1.3-1.3l-39.8,0.3c-0.7,0-1.3,0.6-1.3,1.3c0,0,0,0,0,0l0,0.1
		c0,0.7,0.6,1.3,1.3,1.3l39.8-0.3C643.6,511.6,644.2,511,644.2,510.2C644.2,510.2,644.2,510.2,644.2,510.2L644.2,510.2z
		 M772.4,510.2c0-0.7-0.6-1.3-1.4-1.3c0,0,0,0,0,0l-45.4,0.4c-0.7,0-1.3,0.6-1.3,1.4l0,0.1c0,0.7,0.6,1.3,1.4,1.3c0,0,0,0,0,0
		l45.4-0.4C771.8,511.6,772.4,511,772.4,510.2L772.4,510.2z M644,517.4c0-0.8-0.6-1.4-1.4-1.4L603,516c-0.8,0-1.4,0.6-1.4,1.4
		c0,0,0,0,0,0l0,0.3c0,0.8,0.6,1.4,1.4,1.4l39.6,0.1c0.8,0,1.4-0.6,1.4-1.4c0,0,0,0,0,0L644,517.4z M771.9,517.3c0-0.6-0.5-1-1-1
		l-45.3-0.2c-0.6,0-1,0.5-1,1c0,0,0,0,0,0l0,0.8c0,0.6,0.5,1,1,1l45.3,0.2c0.6,0,1-0.5,1-1c0,0,0,0,0,0L771.9,517.3z M645.2,524.9
		c0-0.5-0.4-0.9-0.9-0.9l0,0l-41.2-0.2c-0.5,0-0.9,0.4-0.9,0.9v0l0,0.2c0,0.5,0.4,0.9,0.9,0.9l0,0l41.2,0.2c0.5,0,0.9-0.4,0.9-0.9
		L645.2,524.9z M763.1,525.1c0-0.6-0.5-1.1-1.1-1.1l-36.4-0.4c-0.6,0-1.1,0.5-1.1,1.1l0,0.1c0,0.6,0.5,1.1,1.1,1.1l36.4,0.4
		C762.6,526.2,763.1,525.8,763.1,525.1L763.1,525.1z M492.2,617.8c15.3,2.2,29.5-8.8,31.7-24.5c2.2-15.7-8.4-30.2-23.6-32.3
		c-15.3-2.2-29.5,8.8-31.7,24.5C466.3,601.2,476.9,615.7,492.2,617.8z M672.9,579.7c0-0.9-0.8-1.7-1.7-1.7H543.6
		c-0.9,0-1.7,0.8-1.7,1.7v0.6c0,0.9,0.8,1.7,1.7,1.7h127.6c0.9,0,1.7-0.8,1.7-1.7V579.7z M718.4,580c0-1-0.8-1.8-1.8-1.8h-38.6
		c-1,0-1.8,0.8-1.8,1.8v0.1c0,1,0.8,1.8,1.8,1.8h38.6C717.6,581.9,718.4,581.1,718.4,580L718.4,580z M760.5,579.9
		c0-1.1-0.9-1.9-1.9-1.9l-33.6,0.1c-1.1,0-1.9,0.9-1.9,1.9c0,0,0,0,0,0v0.1c0,1.1,0.9,1.9,1.9,1.9c0,0,0,0,0,0l33.6-0.1
		C759.6,581.9,760.5,581.1,760.5,579.9C760.5,580,760.5,580,760.5,579.9L760.5,579.9z M642,601.8c0-1-0.8-1.8-1.8-1.8l-32.5,0.2
		c-1,0-1.8,0.8-1.8,1.8l0,0.1c0,1,0.8,1.8,1.8,1.8l32.5-0.2C641.2,603.7,642,602.8,642,601.8L642,601.8z M752,601.8
		c0-1.1-0.9-1.9-1.9-1.9l0,0l-28.6,0.1c-1.1,0-1.9,0.9-1.9,1.9l0,0.1c0,1.1,0.9,1.9,1.9,1.9h0l28.6-0.2c1.1,0,1.9-0.9,1.9-1.9
		L752,601.8z M577.8,602c0-0.7-0.6-1.3-1.3-1.3l0,0l-33.1-0.1c-0.7,0-1.3,0.6-1.3,1.3l0,0l0,0.1c0,0.7,0.6,1.3,1.3,1.3l0,0l33.1,0.1
		c0.7,0,1.3-0.6,1.3-1.3l0,0L577.8,602z" class="st57"></path>
	<path d="M491.2,208.4c5.7-0.1,9.1,9.5,11.9,13.2c5.9,7.6,11.9,15.2,17.9,22.7c0.2,0.2,0.1,0.5-0.1,0.6
		c-0.2,0.1-0.4,0.1-0.6,0c-10.1-8.3-20.8-16-31.9-23.1C481.7,217.4,483.9,208.6,491.2,208.4z" class="st57"></path>
	<path d="M366.4,247.7c-6.1,0.1-11.8-1.4-17-4.6c-4.4-2.7-16.7-7.2-21.7-5.7c-3.1,0.9-5.4,2.8-6.8,5.5
		c-0.3,0.6-0.2,0.7,0.4,0.3c6.2-4.6,8.1-6.5,16.1-3.4c4.6,1.8,13.6,2.7,12.5,10c-1.1,7-5.5,9.8-13.3,8.5c-0.4-0.1-0.9,0.2-0.9,0.7
		c0,0.1,0,0.1,0,0.2l0.1,3.2c0,0.9,0.5,1.3,1.3,1.4l15,1.7c0.7,0.1,0.7,0.3,0.1,0.6l-1.7,0.9c-0.4,0.2-0.7,0.6-0.8,1.1
		c-0.4,2.7,0.7,4.6,3.3,5.7c1.2,0.5,2.5-0.1,3-1.3c0.1-0.3,0.2-0.6,0.2-0.8v-4.5c0-0.7,0.3-1.1,1-1.1l9.9-0.4c8.7-0.2,5,9.5-2,10.6
		c-2.2-1.6-3.2-3.9-3-6.8c0.1-0.7-0.2-1.1-0.8-1.4l-1.1-0.5c-0.7-0.3-1.5,0.1-1.8,0.8c0,0.1-0.1,0.2-0.1,0.3l-0.4,3.8
		c-0.1,0.8-0.5,1.4-1.3,1.7c-4.8,2-8.1-0.9-8.5-5.7c-0.1-0.9-0.5-1.4-1.4-1.5l-9-1.3c-0.6-0.1-1,0.1-1.1,0.7
		c-3.5,11.7,16.1,25.5,27.1,26.5c0.8,0.1,1.2-0.3,1.3-1l0.9-5c0.2-1.1-0.3-1.6-1.4-1.3c-1.6,0.3-3.2,0.2-4.7-0.5
		c-0.3-0.1-0.6-0.3-0.7-0.6c-0.3-0.5-0.2-0.9,0.1-1.4c0.3-0.4,0.8-0.6,1.3-0.3l1.6,0.9c0.7,0.4,1.4,0.5,2.1,0.2
		c1.4-0.5,2.2-1.4,2.4-2.6l1.6,17.5c0.1,0.9-0.3,1.3-1.2,1.3l-12.4,0.1c-23.2-6.1-21.6-12.5-23.7-33.7c-0.1-0.7-0.4-1.3-0.9-1.7
		c-5-3.9-7.1,1.7-8.6,5.3l-4.7-11.7c-0.3-0.7-0.7-1.1-1.4-1.4l-4-1.6c-0.7-0.3-1.1-0.8-1.2-1.6c-0.3-3.3,1-5.8,3.7-7.5
		c0.6-0.4,0.9-1.1,0.8-1.8c-1.1-8.7,0.4-17.3,11-18.2c5-0.4,4.3-2.8,7.3-5.2c7.6-6,14-2.2,20.7,2.8c0.5,0.4,1.2,0.5,1.9,0.4
		c3.7-0.9,7.9-2.3,11.5-1.8C381.2,224.4,379.8,243,366.4,247.7z M367.9,273.9c1.4-0.2,2.4-1.9,2.1-3.8c-0.2-1.9-1.6-3.3-3-3.2
		c-1.4,0.2-2.4,1.9-2.1,3.8C365.1,272.7,366.5,274.1,367.9,273.9z" class="st61"></path>
	<path d="M235.1,284.9c-15.3-0.5-27.2-13.8-26.6-29.5c0.6-15.8,13.4-28.2,28.6-27.6c0,0,0,0,0,0
		c15.3,0.5,27.2,13.8,26.6,29.5S250.3,285.4,235.1,284.9C235.1,284.9,235.1,284.9,235.1,284.9z M239,255.7c-0.6-0.1-1-0.5-1.1-1.1
		l-0.7-4.6c-0.1-0.7-0.8-1.2-1.6-1.1c-0.6,0.1-1,0.5-1.1,1.1l-0.7,4.6c-0.1,0.6-0.5,1-1.1,1.1l-4.6,0.7c-0.7,0.1-1.2,0.8-1.1,1.6
		c0.1,0.6,0.5,1,1.1,1.1l4.6,0.7c0.6,0.1,1,0.5,1.1,1.1l0.7,4.6c0.1,0.7,0.8,1.2,1.6,1.1c0.6-0.1,1-0.5,1.1-1.1l0.7-4.6
		c0.1-0.6,0.5-1,1.1-1.1l4.6-0.7c0.7-0.1,1.2-0.8,1.1-1.6c-0.1-0.6-0.5-1-1.1-1.1L239,255.7z" class="st58"></path>
	<path d="M710.1,232.4l24.5,0c1,0,1.9,0.8,1.9,1.9l0,1.8c0,1-0.8,1.9-1.9,1.9l-24.5,0c-1,0-1.9-0.8-1.9-1.9l0-1.8
		C708.2,233.3,709.1,232.4,710.1,232.4z" class="st62"></path>
	<path d="M573.6,232.5h129.8c0.9,0,1.6,0.7,1.6,1.6v2.2c0,0.9-0.7,1.6-1.6,1.6H573.6c-0.9,0-1.6-0.7-1.6-1.6v-2.2
		C572,233.2,572.7,232.5,573.6,232.5z" class="st59"></path>
	<path d="M742.2,233.1l24-0.3c0.9,0,1.7,0.7,1.7,1.6l0,1c0,0.9-0.7,1.7-1.6,1.7l-24,0.3c-0.9,0-1.7-0.7-1.7-1.6l0-1
		C740.5,233.9,741.3,233.2,742.2,233.1z" class="st60"></path>
	<path d="M366.4,247.7c2.1,5.6,2.3,11.5,0.5,17.8L357,266c-0.7,0-1,0.4-1,1.1v4.5c0,1.3-1,2.3-2.3,2.3
		c-0.3,0-0.6-0.1-0.8-0.2c-2.6-1.1-3.7-3-3.3-5.7c0.1-0.5,0.3-0.9,0.8-1.1l1.7-0.9c0.6-0.3,0.6-0.5-0.1-0.6l-15-1.7
		c-0.9-0.1-1.3-0.6-1.3-1.4l-0.1-3.2c0-0.5,0.4-0.8,0.8-0.8c0.1,0,0.1,0,0.2,0c7.8,1.3,12.3-1.5,13.3-8.5c1.1-7.3-7.8-8.2-12.5-10
		c-8-3.1-9.9-1.2-16.1,3.4c-0.6,0.4-0.7,0.3-0.4-0.3c1.4-2.7,3.7-4.6,6.8-5.5c5-1.5,17.3,3,21.7,5.7
		C354.7,246.3,360.3,247.8,366.4,247.7z" class="st62"></path>
	<path d="M239,255.7l4.6,0.7c0.7,0.1,1.2,0.8,1.1,1.6c-0.1,0.6-0.5,1-1.1,1.1l-4.6,0.7c-0.6,0.1-1,0.6-1.1,1.1
		l-0.7,4.6c-0.1,0.7-0.8,1.2-1.6,1.1c-0.6-0.1-1-0.5-1.1-1.1l-0.7-4.6c-0.1-0.6-0.6-1-1.1-1.1l-4.6-0.7c-0.7-0.1-1.2-0.8-1.1-1.6
		c0.1-0.6,0.5-1,1.1-1.1l4.6-0.7c0.6-0.1,1-0.6,1.1-1.1l0.7-4.6c0.1-0.7,0.8-1.2,1.6-1.1c0.6,0.1,1,0.5,1.1,1.1l0.7,4.6
		C237.9,255.1,238.4,255.6,239,255.7z" class="st57"></path>
	<path d="M277.9,247.9l18.7,0.1c1,0,1.9,0.9,1.9,1.9l0,0.2c0,1-0.9,1.9-1.9,1.9l-18.7-0.1c-1,0-1.9-0.9-1.9-1.9l0-0.2
		C276,248.8,276.8,247.9,277.9,247.9z" class="st60"></path>
	<path d="M849,382.2l-0.2,98.8l-1,110.9l-9.8,18.4l-0.3-111.1l0.1-226c0-0.6-0.4-1-1-1l-299.5-0.7
		c0.1-0.5,0.4-1.1,1.1-1.8l8.5-8l300.4-0.3c0.8,0,1.5,0.7,1.5,1.5v0L849,382.2z" class="st60"></path>
	<path d="M354.5,299.9l0.8,9.8l0,9.7c-10.1,3.1-19.7,3.5-28.8,1.2c-3.6-3.9-5.9-8.1-6.9-12.7
		c2.4-8.9,4.4-17.8,5.9-26.9c0.8-4.9-0.6-8.7-4.3-11.2c1.5-3.5,3.5-9.2,8.6-5.3c0.5,0.4,0.9,1,0.9,1.7
		C333,287.5,331.3,293.9,354.5,299.9z" class="st62"></path>
	<path d="M365,276.1c1,1.6,1.5,3.3,1.6,4.9c-0.2,1.3-1,2.2-2.4,2.6c-0.7,0.2-1.4,0.2-2.1-0.2l-1.6-0.9
		c-0.4-0.3-1-0.1-1.3,0.3c-0.3,0.5-0.3,1-0.1,1.4c0.1,0.3,0.4,0.5,0.7,0.6c1.5,0.7,3,0.8,4.7,0.5c1.1-0.2,1.6,0.2,1.4,1.3l-0.9,5
		c-0.1,0.8-0.6,1.1-1.3,1c-11.1-0.9-30.6-14.7-27.1-26.5c0.2-0.6,0.5-0.8,1.1-0.7l9,1.3c0.9,0.1,1.3,0.6,1.4,1.5
		c0.4,4.8,3.7,7.6,8.5,5.7c0.8-0.3,1.2-0.8,1.3-1.7l0.4-3.8c0.1-0.7,0.8-1.3,1.5-1.2c0.1,0,0.2,0,0.3,0.1l1.1,0.5
		c0.6,0.3,0.9,0.7,0.8,1.4C361.8,272.2,362.8,274.5,365,276.1z" class="st62"></path>
	<path d="M277.9,266l18.6,0.2c1,0,1.8,0.8,1.8,1.8l0,0.2c0,1-0.8,1.8-1.8,1.8l-18.6-0.2c-1,0-1.8-0.8-1.8-1.8l0-0.2
		C276.1,266.8,276.9,266,277.9,266z" class="st60"></path>
	
		<ellipse ry="3.5" rx="2.6" cy="270.4" cx="367.5" class="st57" transform="matrix(0.9921 -0.1253 0.1253 0.9921 -30.9926 48.1871)"></ellipse>
	<path d="M501.2,457.4c-0.7,0.1-1.4,0.5-2.1,1.1l-1-155.2c0-0.9,0.4-1.3,1.3-1.3h1.4c0.7,0,1.1,0.4,1.1,1.1
		L501.2,457.4z" class="st59"></path>
	<path d="M528.2,306.2l64.9,0.1c0.9,0,1.7,0.8,1.7,1.7l0,0.2c0,0.9-0.8,1.7-1.7,1.7l-64.9-0.1c-0.9,0-1.7-0.8-1.7-1.7
		l0-0.2C526.5,307,527.3,306.2,528.2,306.2z" class="st63"></path>
	<path d="M598.3,306.8l26.9,0.2c0.6,0,1,0.5,1,1l0,0.1c0,0.6-0.5,1-1,1l-26.9-0.2c-0.6,0-1-0.5-1-1l0-0.1
		C597.3,307.2,597.7,306.8,598.3,306.8z" class="st62"></path>
	<path d="M319.7,307.9c1,4.6,3.3,8.8,6.9,12.7l20,28.7l-0.2,1.1l-6.7-0.8c-0.7-0.1-1.3,0-1.9,0.3
		c-7.3,3.1-12.4,0.4-15.9-6.5c-5.2-10.2-8.9-20.7-11.1-31.5L319.7,307.9z" class="st59"></path>
	<path d="M355.3,309.7c14.7,7.8,30.7,15,48.1,21.6l-31.3,0.7c-0.7,0-1.2,0.4-1.4,1.1L349,405.5
		c-2-19-2.9-37.4-2.6-55.2l0.2-1.1c4-9.7,6.9-19.7,8.8-29.9L355.3,309.7z" class="st58"></path>
	<path d="M310.8,311.7c2.2,10.8,5.9,21.3,11.1,31.5c3.5,6.9,8.6,9.7,15.9,6.5c0.6-0.3,1.2-0.3,1.9-0.3l6.7,0.8
		c-0.2,17.8,0.7,36.2,2.6,55.2l-1.3,7.2c-19-6-25.6,2.1-37.6,14.5l-2.2-5.9c-0.3-0.9-1.2-1.4-2.1-1.3l-27.5,2.1
		c-0.7,0.1-1.4-0.2-1.8-0.7l-0.7-0.8c0.5-2.1,0.3-4-0.7-5.7c3.8-7.7,8.7-18.4,14.6-32.1c9.5-22.1,4.3-40.4-15.4-55L310.8,311.7z" class="st63"></path>
	<path d="M355.4,319.4c-1.9,10.3-4.8,20.2-8.8,29.9l-20-28.7C335.6,322.9,345.2,322.5,355.4,319.4z" class="st57"></path>
	<path d="M274.3,327.7c19.7,14.6,24.8,32.9,15.4,55c-5.9,13.7-10.8,24.5-14.6,32.1c-1.6,2-2.6,4.3-3.2,7
		c-19.2-0.4-40.5-0.1-54.4,15c3.6-20.7,28.9-97.2,47.5-105.5C268.6,329.7,271.7,328.5,274.3,327.7z" class="st59"></path>
	<path d="M186,339.7l-0.5,89c-7.5-8.5-15.9-14.7-25.2-18.5c-32.3-13.4-41.2,32.7-41.7,53.9
		c-0.8,31.5,4.5,56.4,13.3,87.3l-74.2-41.8c-1.1-0.6-1.4-1.5-0.9-2.6c0.2-0.5,0.9-1,1.9-1.5c4.9-2.5,10.1-4.3,15.6-5.3
		c0.8-0.1,1-0.6,0.8-1.3c-10-32.6-18.9-62.9-21-92.6c-1.6-23.6,0-68.3,30.5-75c27-5.9,47.1,16,63.9,32.6c0.4,0.4,1,0.4,1.4,0
		c0.1-0.1,0.1-0.2,0.2-0.3c2.5-5,5-10.4,8.5-14.1C165.5,342.3,174.6,339,186,339.7z" class="st64"></path>
	<path d="M403.4,331.2l80.1,0.6c2,0,2.6,1,2,2.8L470.9,377c-18,2.6-19.4,16.8-15.3,31.3c1.7,6,1.2,10,0.3,15.7
		c-1-1-1.6-0.6-2,1c-0.8,3.5-2,6.4-3.5,8.5c-0.4,0.6-1,0.9-1.7,0.9l-46.8,0.6l-46,0l11-7.8c1.1-0.8,1.4-2.4,0.6-3.5
		c-0.1-0.2-0.3-0.3-0.4-0.5c-5.8-4.8-12.3-8.2-19.4-10.4l1.3-7.2l21.7-72.5c0.2-0.7,0.7-1.1,1.4-1.1L403.4,331.2z M405.1,390.9
		c-0.2,0.3,0,0.7,0.3,0.9c0.1,0,0.2,0.1,0.3,0.1l17.9,0.2c0.4,0,0.7-0.3,0.7-0.7c0-0.1,0-0.2-0.1-0.3l-8.7-18
		c-0.2-0.3-0.6-0.5-0.9-0.3c-0.1,0.1-0.2,0.2-0.3,0.3L405.1,390.9z" class="st65"></path>
	<path d="M680.1,333.9v87.7c-31.8,2.3-50.6,29.3-43.9,60.3c0.8,3.7,3,9.3,6.5,16.9c0.4,0.8,0.1,1.2-0.8,1.2h-86.5
		c-0.8,0-1.2-0.4-1.2-1.1c-1.3-19.1-0.9-37.2,1.3-54.3C563.3,382.4,617,334.9,680.1,333.9z" class="st59"></path>
	<path d="M680.1,333.9c67.5,0.2,125.6,50.1,129.4,119.7l-84.1,6.1c-6.6-23.7-21.7-36.4-45.4-38.1V333.9z M727.8,420
		c-0.6-0.8-4.1,1.1-7.8,4.1c0,0,0,0,0,0c-3.7,3-6.1,6.1-5.5,6.9c0,0,0,0,0,0c0.6,0.8,4.1-1.1,7.8-4.1c0,0,0,0,0,0
		C726,423.9,728.5,420.8,727.8,420C727.8,420,727.8,420,727.8,420z" class="st65"></path>
	<path d="M527.2,342.5l54.6-0.3c0.8,0,1.5,0.6,1.5,1.5l0,0.9c0,0.8-0.6,1.5-1.5,1.5l-54.6,0.3c-0.8,0-1.5-0.6-1.5-1.5
		l0-0.9C525.7,343.2,526.4,342.5,527.2,342.5z" class="st60"></path>
	<path d="M917.3,586.9c-3-8.8-6.9-17.3-11.7-25.5c1.2-22.2,1.5-93.8-28.1-96c-13.8-1-18.9,8.1-28.7,15.5l0.2-98.8
		c19.5-7.5,37-10.9,52.5-10.2c31.3,1.3,39.6,62.3,40.4,85C943.4,502.2,936.1,546.3,917.3,586.9z" class="st64"></path>
	<path d="M405.1,390.9l9.1-17.8c0.2-0.3,0.6-0.5,0.9-0.3c0.1,0.1,0.2,0.2,0.3,0.3l8.7,18c0.2,0.3,0,0.7-0.3,0.9
		c-0.1,0-0.2,0.1-0.3,0.1l-17.9-0.2c-0.4,0-0.7-0.3-0.7-0.7C405.1,391.1,405.1,391,405.1,390.9z" class="st57"></path>
	<path d="M470.9,377c4.2-0.2,6,1.5,5.6,5c-1.8,13.7-6.3,28.3-13.6,43.9c-3.3,0.3-5.6-0.3-6.9-1.9
		c0.9-5.7,1.4-9.7-0.3-15.7C451.5,393.8,452.9,379.6,470.9,377z" class="st62"></path>
	<path d="M185.5,428.7c0.7,65.1,0.8,116.8,0.3,155.3c0,2.9,0.2,5.1,0.7,6.6c0.2,0.6,0.3,1.3,0.2,1.9
		c-1.8,17.4-2.2,34.8-1.2,52.2c0,0.6-0.1,1.1-0.5,1.5l-2.8,2.8c-14.1-22.3-26-43-35.4-62c-5.2-10.4-10.2-22.4-14.9-35.8
		c-8.9-30.9-14.1-55.8-13.3-87.3c0.5-21.2,9.5-67.2,41.7-53.9C169.7,414,178,420.2,185.5,428.7z" class="st66"></path>
	<path d="M347.7,412.7c7.1,2.1,13.6,5.6,19.4,10.4c1.1,0.9,1.2,2.5,0.3,3.5c-0.1,0.2-0.3,0.3-0.5,0.4l-11,7.8l-7.6,4.5
		c-11.5,7.4-25.8,4.7-37.7,0.6c-2-4.6-2.2-8.9-0.7-12.8C322.1,414.8,328.7,406.7,347.7,412.7z" class="st62"></path>
	<path d="M275.1,414.8c1,1.7,1.3,3.6,0.7,5.7c-0.4,1.5-1.7,1.9-3.9,1.3C272.4,419.1,273.5,416.8,275.1,414.8z" class="st64"></path>
	
		<ellipse ry="1.8" rx="8.6" cy="425.5" cx="721.2" class="st62" transform="matrix(0.7694 -0.6388 0.6388 0.7694 -105.4867 558.7999)"></ellipse>
	<path d="M310.1,427.2c-1.5,3.9-1.3,8.2,0.7,12.8c-0.4,3.1,0.1,6.5,1.3,10.2c0.2,0.5-0.1,1.1-0.6,1.3c0,0-0.1,0-0.1,0
		l-37.3,6.4c-9.7,0.9-19.5,1.7-29.2,2.3c-17.4,1.1-30.6-2.6-27.3-23.4c13.9-15.2,35.1-15.4,54.4-15c2.2,0.6,3.5,0.2,3.9-1.3l0.7,0.8
		c0.4,0.5,1.1,0.8,1.8,0.7l27.5-2.1c0.9-0.1,1.8,0.5,2.1,1.3L310.1,427.2z" class="st58"></path>
	<path d="M456,424c1.3,1.6,3.6,2.2,6.9,1.9c-7.5,14.9-16.6,29.1-27.4,42.6c-6.6,8.3-13.4,15.8-23.9,14.9l-0.7-0.4
		c-0.6-0.3-1-0.8-1.1-1.4l-7.8-46.8l46.8-0.6c0.7,0,1.3-0.3,1.7-0.9c1.6-2.1,2.7-4.9,3.5-8.5C454.3,423.4,455,423.1,456,424z" class="st59"></path>
	<path d="M356,434.9l46,0l7.8,46.8c0.1,0.7,0.5,1.1,1.1,1.4l0.7,0.4l-0.9,0c-0.4,0-0.8,0.4-0.7,0.8c0,0,0,0.1,0,0.1
		l7.4,45.6c0.1,0.8-0.4,1.6-1.3,1.8c-0.3,0-0.5,0-0.8-0.1c-2-0.8-3.6-0.8-4.8,0l-41.5-0.9c-0.7,0-1.3-0.4-1.6-1l-12.6-26
		c-1.8-19.9-2.9-40.5-3.2-61.6c0-1-0.2-1.7-0.7-2.1c-0.6-0.5-1.4-0.7-2.4-0.6L356,434.9z" class="st58"></path>
	<path d="M348.4,439.4c1.1-0.1,1.9,0.1,2.4,0.6c0.4,0.4,0.6,1.1,0.7,2.1c0.3,21.1,1.4,41.7,3.2,61.6l-13.6,25.2
		c-0.7,1.3-2,2.1-3.4,2.1l-62.4,1.4l-1.3-0.7c-0.6-0.3-1-0.9-0.9-1.6l0.8-72.3l37.3-6.4c0.5-0.1,0.9-0.6,0.8-1.2c0,0,0-0.1,0-0.1
		c-1.2-3.7-1.7-7.1-1.3-10.2C322.6,444.1,336.9,446.8,348.4,439.4z" class="st63"></path>
	<path d="M197,440.1c50.2,60.9,73.7,140.2,60.8,218.3c-0.1,0.2-0.3,0.3-0.5,0.5c-0.2,0.1-0.5,0.1-0.7-0.1
		c-16.9-20.5-35.6-39.2-56.2-56.1c-0.5-0.4-0.8-0.3-1.1,0.2l-0.3,0.5c-0.3,0.5-0.2,0.9,0.2,1.3c6.7,6.7,24.7,22.3,23.5,32.2
		c-1.7,15.1-2.7,30.4-2.9,45.7c0,0.8,0.6,1.5,1.5,1.5c0,0,0.1,0,0.1,0c16.2-1.2,32.4-0.9,48.4,0.9l0.1,9.2l-48.1-0.3
		c-0.8,0-1.3,0.4-1.5,1.1c-0.9,3,2.2,6.1,1,9.5c-0.2,0.5-0.7,0.8-1.2,0.6c-0.2-0.1-0.4-0.2-0.5-0.4l-6.4-9.5c-1.1-1.6-3.1-2.4-5-2
		c-6.7,1.6-16.4,2.7-18.4-6.1c-2.1-9.5-2.8-18.4-2.1-26.6l9,12.5c0.4,0.5,0.8,0.6,1.3,0.2l0.6-0.4c0.8-0.5,1-1.2,0.7-2
		c-1.8-4.9-3.5-9.8-3.5-15.2c0-70.6,0.1-141.3,0.3-211.9c0-0.7,0.1-1.3,0.3-1.9L197,440.1z" class="st66"></path>
	<path d="M809.6,453.6l0.3,41.8c0,0.8-0.4,1.3-1.1,1.4l-2.5,0.5c-3-1.3-5.7-3.3-8.2-6c-0.5-0.5-1-0.8-1.7-0.9
		c-3.1-0.7-6.3-0.4-9.3,0.8l-61.5-14.4l-41.9-10.2c-0.1,0-0.2,0-0.3-0.1c-1.5-0.8-1.8-1.5-0.9-2.3c0.2-0.2,0.6-0.3,1-0.4
		c13.6-1.5,27.6-2.8,42-4L809.6,453.6z" class="st59"></path>
	<path d="M501.2,457.4l0.9,64.9c0,0.8-0.5,1.6-1.3,1.8l-1,0.3c-0.9,0.3-1.4-0.1-1.4-1l0.7-64.9
		C499.9,457.9,500.6,457.6,501.2,457.4z" class="st62"></path>
	<path d="M905.6,561.4c-20.5-4.2-33.2,3.4-45.9,18.2c-3.8,4.3-7.7,8.4-11.9,12.3l1-110.9c9.8-7.4,15-16.5,28.7-15.5
		C907.1,467.6,906.9,539.2,905.6,561.4z" class="st66"></path>
	<path d="M725.6,476.7l61.5,14.4l-3.2,4.4c-0.4,0.5-0.5,1.2-0.3,1.8c0.4,1.6,0.1,2.5-1.1,2.5c-0.5,0.2-1,0.2-1.5,0.1
		l-63,0c-0.7,0-1-0.4-0.7-1.1L725.6,476.7z" class="st65"></path>
	<path d="M806.3,497.3c-1.1,0.1-2.3,0.6-3.4,1.7l-20.4,0.8c1.2,0,1.6-0.9,1.1-2.5c-0.2-0.6,0-1.3,0.3-1.8l3.2-4.4
		c3.1-1.2,6.2-1.4,9.3-0.8c0.7,0.1,1.2,0.4,1.7,0.9C800.6,494,803.3,496,806.3,497.3z" class="st60"></path>
	<path d="M802.9,499c5,16.2,6.9,33.3,7.9,50.3c0.1,1.4,0.2,2.5,0.5,3.4c0.1,0.6,0.7,0.9,1.3,0.8
		c0.4-0.1,0.7-0.4,0.8-0.7c5.7-18.6,13.9-36.5,24.4-53.7l0.3,111.1l-20.7,42.1c-0.1-26.3-21.9-43.6-46.9-33.2
		c-3.7-11.9-4.4-24.4-1.9-37.4l36.2,0.1c0.8,0,1.5-0.7,1.5-1.5c0-0.4-0.1-0.8-0.4-1c-0.9-0.9-2.1-1.3-3.7-1.2
		c-11.1,0.6-22.4-0.1-33.6,0.3c-0.5-1.5-0.8-2.8-0.7-3.8c2-24.9,5-50.8,13.1-74.5c0.5,0.1,1,0.1,1.5-0.1L802.9,499z M806.4,601.6
		c0-1-0.8-1.7-1.8-1.7l-31,0.3c-1,0-1.7,0.8-1.7,1.8l0,0.1c0,1,0.8,1.7,1.8,1.7l31-0.3c1,0,1.7-0.8,1.7-1.8L806.4,601.6z" class="st67"></path>
	<path d="M354.7,503.8l12.6,26c0.3,0.7,0.9,1,1.6,1l41.5,0.9L401.9,645l-2.8,38.3l-0.8,10.1L389.4,809
		c-0.1,0.7,0.5,1.3,1.2,1.4c7.9,0.9,15,3.7,21.4,8.4c0.6,0.4,1.2,0.7,2,0.7h19c0.7,0,1.1-0.4,1.2-1.1L438,728l1.9-32.4l0-11.6
		c0.7-22.7,1.4-37.8,2.2-45.5c0.7-6.3,4.6-9.5,12-9.5c63.1-0.3,126.3-0.4,189.6-0.4h63.4c9.1-0.8,18.9,1.7,18.9,12.5
		c-0.1,14.3-0.6,28.6-1.7,42.8l0,9.1l-2.6,55.4l-9.3-0.6c-0.7,0-1.1-0.4-1.1-1.2l1.8-73.2l0.9-32.6c0-0.5-0.4-0.9-0.8-0.9
		c0,0,0,0,0,0H453.4c-0.8,0-1.3,0.4-1.3,1.3l-1.5,41c-0.5,5.4-0.7,11-0.7,16.6c0.2,16.1-2.3,32-2.4,48.1c-0.1,7.9-1.8,16.9-1.5,24
		c0.4,12.2,0.1,24.4-0.9,36.5c0,0.3,0.2,0.5,0.5,0.6c0,0,0,0,0,0l163.2,0c0.8,0,1.5,0.6,1.5,1.5c0,0.2,0,0.3-0.1,0.4l-2.2,7
		c-0.6,2,0.1,3,2.2,2.9l26.1-0.3l144.3,0l7.8,0l33.8-0.1c0.3,0,0.7-0.1,0.9-0.3l0.9-0.6c0,0.2,0,0.4,0,0.5c0.1,0.3,0.2,0.4,0.5,0.4
		l79.5,0.1l71,0c0.7,0,1,0.3,1,1v17.4c0,0.7-0.4,1.1-1.1,1.1L782,838.9l-68.7-0.4L603,839H483H207.5c-12.9-1.2-25.7-1.2-38.6-0.1
		l-92,0c-0.6,0-1-0.4-1-1v-17.5c0-0.7,0.3-1,1-1h70.5l32.6,0.2l3.9-0.2h43l1.5,0h28.2l5.9,0c0.8,0,1.2-0.4,1.3-1.1
		c2.4-19.6,2.3-45.4,2.9-58.7c1.1-22.2,2.1-44,3.1-65.4l-0.1-9.2l2-41.9c1.7-35.7,3-71.4,4.1-107.1c0-1.4-0.2-2.6-0.6-3.6l62.4-1.4
		c1.4,0,2.8-0.8,3.4-2.1L354.7,503.8z M321,684.3l-1.8,8.6l-23.3,115.9c-0.2,0.8,0.3,1.5,1.1,1.7c0,0,0,0,0.1,0
		c7.5,1.2,14.4,4,20.5,8.5c0.5,0.4,1,0.5,1.6,0.5H356c1,0,1.8-0.8,1.8-1.8c0-0.1,0-0.1,0-0.2L346,692.9l-0.8-7.8l-7.7-76.2
		c0-0.3-0.2-0.6-0.5-0.6c-0.3,0-0.6,0.2-0.6,0.5l0,0L321,684.3z" class="st61"></path>
	<path d="M555.6,508.9l20.2,0c0.8,0,1.5,0.7,1.5,1.5l0,0.4c0,0.8-0.7,1.5-1.5,1.5l-20.2,0c-0.8,0-1.5-0.7-1.5-1.5
		l0-0.4C554.1,509.5,554.7,508.9,555.6,508.9z" class="st65"></path>
	<path d="M603.1,509.1l39.8-0.3c0.7,0,1.3,0.6,1.3,1.3l0,0.1c0,0.7-0.6,1.3-1.3,1.3l-39.8,0.3c-0.7,0-1.3-0.6-1.3-1.3
		l0-0.1C601.8,509.7,602.3,509.1,603.1,509.1z" class="st63"></path>
	<path d="M725.6,509.2l45.4-0.4c0.7,0,1.3,0.6,1.4,1.3l0,0.1c0,0.7-0.6,1.3-1.3,1.4l-45.4,0.4c-0.7,0-1.3-0.6-1.4-1.3
		l0-0.1C724.3,509.8,724.9,509.2,725.6,509.2z" class="st63"></path>
	<path d="M603,516l39.6,0.1c0.8,0,1.4,0.6,1.4,1.4l0,0.3c0,0.8-0.6,1.4-1.4,1.4L603,519c-0.8,0-1.4-0.6-1.4-1.4l0-0.3
		C601.7,516.6,602.3,516,603,516z" class="st63"></path>
	<path d="M725.6,516l45.3,0.2c0.6,0,1,0.5,1,1l0,0.8c0,0.6-0.5,1-1,1l-45.3-0.2c-0.6,0-1-0.5-1-1l0-0.8
		C724.5,516.5,725,516,725.6,516z" class="st63"></path>
	<path d="M603,523.8l41.2,0.2c0.5,0,0.9,0.4,0.9,0.9l0,0.2c0,0.5-0.4,0.9-0.9,0.9l-41.2-0.2c-0.5,0-0.9-0.4-0.9-0.9
		l0-0.2C602.1,524.2,602.5,523.8,603,523.8z" class="st63"></path>
	<path d="M725.7,523.5L762,524c0.6,0,1.1,0.5,1.1,1.1l0,0.1c0,0.6-0.5,1.1-1.1,1.1l-36.4-0.4c-0.6,0-1.1-0.5-1.1-1.1
		l0-0.1C724.6,524,725.1,523.5,725.7,523.5z" class="st63"></path>
	<path d="M905.6,561.4c4.8,8.2,8.7,16.7,11.7,25.5c3.3,40.6-4.2,75.3-15.4,113.9c-0.1,0.4-0.1,0.8-0.1,1.1
		c0.4,3.3,2,4.3,4.6,3c0.6-0.3,1.4-0.9,2.3-1.8c12.8-12.7,37-23.6,39.4,6c3.1,37.4-19.4,80.1-44.4,106.5c-0.4,0.4-0.5,1-0.4,1.5
		l0.6,2.3l-79.5-0.1c-0.3,0-0.4-0.1-0.5-0.4c0-0.2-0.1-0.3,0-0.5v-28c0-0.7-0.3-1-1-1h-33.5c-0.9,0-1.3,0.4-1.3,1.3l0.1,28.7l-7.8,0
		l0-54.3c0-0.7-0.4-1.1-1.1-1.1l-58.1,0.3l5.8-12.8c0.3-0.7,0.1-1.2-0.6-1.5l-4.8-1.6l2.6-55.4c1.1,0.1,2.1,0.6,3,1.7l2.1,16.5
		c0.2,1.6,0.9,1.8,2.1,0.8c9-7.5,19.7-8.4,28.7-0.3c10.4,9.2,15.5,29.7,18.9,42.7c0.1,0.4,0.5,0.6,0.8,0.5c0.2,0,0.3-0.2,0.4-0.3
		c0.2-0.4,0.4-0.9,0.5-1.6c3-19.4,7.9-38.7,14.9-57.9l-1.9-13.9c13.1-4.7,20.9-14.3,23.7-28.9l20.7-42.1l9.8-18.4
		c4.1-3.8,8.1-7.9,11.9-12.3C872.4,564.8,885.1,557.3,905.6,561.4z" class="st68"></path>
	<path d="M492.2,617.8c-15.3-2.2-25.9-16.7-23.6-32.3c2.2-15.7,16.4-26.6,31.7-24.5c15.3,2.2,25.9,16.7,23.6,32.3
		C521.7,609.1,507.5,620,492.2,617.8z M505.9,577.8c0-0.5-0.4-0.9-0.9-1c-0.3,0-0.5,0.1-0.7,0.3l-15.8,15.1c-0.4,0.4-0.4,0.9,0,1.3
		c0.2,0.2,0.4,0.3,0.6,0.3l15.3,0.1c0.5,0,0.9-0.4,0.9-0.9L505.9,577.8z" class="st65"></path>
	<path d="M505.9,577.8l-0.5,15.2c0,0.5-0.4,0.9-0.9,0.9l-15.3-0.1c-0.5,0-0.9-0.4-0.9-0.9c0-0.2,0.1-0.5,0.3-0.6
		l15.8-15.1c0.4-0.4,0.9-0.3,1.3,0C505.8,577.3,505.9,577.6,505.9,577.8z" class="st57"></path>
	<path d="M543.6,578h127.6c0.9,0,1.7,0.8,1.7,1.7v0.6c0,0.9-0.8,1.7-1.7,1.7H543.6c-0.9,0-1.7-0.8-1.7-1.7v-0.6
		C541.9,578.8,542.7,578,543.6,578z" class="st59"></path>
	<path d="M678.1,578.2h38.6c1,0,1.8,0.8,1.8,1.8v0.1c0,1-0.8,1.8-1.8,1.8h-38.6c-1,0-1.8-0.8-1.8-1.8V580
		C676.3,579,677.1,578.2,678.1,578.2z" class="st65"></path>
	<path d="M725,578.1l33.6-0.1c1.1,0,1.9,0.9,1.9,1.9l0,0.1c0,1.1-0.9,1.9-1.9,1.9L725,582c-1.1,0-1.9-0.9-1.9-1.9
		l0-0.1C723.1,579,723.9,578.1,725,578.1z" class="st65"></path>
	<path d="M768.6,581.7v-3.3c11.2-0.5,22.5,0.2,33.6-0.3c1.6-0.1,2.8,0.3,3.7,1.2c0.6,0.6,0.5,1.6-0.1,2.1
		c-0.3,0.3-0.6,0.4-1,0.4L768.6,581.7z" class="st65"></path>
	<path d="M692.2,599.3l-18.6,0.8c-0.7,0-1.2,0.5-1.3,1.2c-0.1,1,0.5,1.6,1.9,1.7c7.7,0.6,15,0.9,21.7,1.2
		c5.6,7.6,9.3,15.7,11.2,24.4h-63.4c2.9-14,17.1-41.7,36.3-37.4C685,592.2,689.1,595,692.2,599.3z" class="st67"></path>
	<path d="M692.2,599.3l12.7,0.8c1,0.1,1.7,0.9,1.6,1.8c0,0.1,0,0.2,0,0.3c-0.2,0.8-0.7,1.3-1.7,1.4
		c-2.5,0.3-5.4,0.4-8.9,0.5c-6.8-0.2-14-0.6-21.7-1.2c-1.4-0.1-2-0.7-1.9-1.7c0.1-0.7,0.6-1.2,1.3-1.2L692.2,599.3z" class="st65"></path>
	<path d="M607.7,600.2l32.5-0.2c1,0,1.8,0.8,1.8,1.8l0,0.1c0,1-0.8,1.8-1.8,1.8l-32.5,0.2c-1,0-1.8-0.8-1.8-1.8l0-0.1
		C605.9,601,606.7,600.2,607.7,600.2z" class="st65"></path>
	<path d="M721.4,600.1l28.6-0.1c1.1,0,1.9,0.8,1.9,1.9l0,0.1c0,1.1-0.8,1.9-1.9,1.9l-28.6,0.1c-1.1,0-1.9-0.8-1.9-1.9
		l0-0.1C719.5,600.9,720.4,600.1,721.4,600.1z" class="st65"></path>
	<path d="M773.6,600.2l31-0.3c1,0,1.7,0.8,1.8,1.7l0,0.1c0,1-0.8,1.7-1.7,1.8l-31,0.3c-1,0-1.7-0.8-1.8-1.7l0-0.1
		C771.9,601,772.6,600.2,773.6,600.2z" class="st65"></path>
	<path d="M543.4,600.6l33.1,0.1c0.7,0,1.3,0.6,1.3,1.3l0,0.1c0,0.7-0.6,1.3-1.3,1.3l-33.1-0.1c-0.7,0-1.3-0.6-1.3-1.3
		l0-0.1C542,601.2,542.6,600.6,543.4,600.6z" class="st69"></path>
	<path d="M257.8,658.4c0.7,1,0.9,2.1,0.7,3.4c-0.1,0.3,0.2,0.7,0.5,0.7c0.3,0.1,0.6-0.1,0.7-0.4l7.3-18
		c0.2-0.6,0.7-0.9,1.3-1l3.5-0.2l-2,41.9c-16-1.8-32.2-2.1-48.4-0.9c-0.8,0.1-1.5-0.5-1.6-1.4c0,0,0-0.1,0-0.1
		c0.2-15.3,1.1-30.6,2.9-45.7c1.1-9.8-16.8-25.5-23.5-32.2c-0.4-0.4-0.4-0.8-0.2-1.3l0.3-0.5c0.3-0.5,0.7-0.6,1.1-0.2
		c20.6,16.9,39.3,35.5,56.2,56.1c0.2,0.2,0.4,0.2,0.7,0.1C257.5,658.8,257.7,658.6,257.8,658.4z" class="st67"></path>
	<path d="M345.2,685.1c-8.5-1.4-16.6-1.7-24.3-0.8l15.4-75.5c0-0.3,0.3-0.5,0.6-0.5c0.3,0,0.5,0.3,0.5,0.6L345.2,685.1
		z" class="st67"></path>
	<path d="M817.4,652.3c-2.7,14.6-10.6,24.2-23.7,28.9c-4.5,0.3-7,1-7.3,2.1c-8.8-2-14.3-3.7-16.6-5.1
		c-22.5-14-24-46.7,0.7-59.1C795.5,608.7,817.3,626,817.4,652.3z M782,655.2l8.6-2.3c0.2-0.1,0.3-0.3,0.3-0.5l-1.4-5.2
		c-0.7-2.6-3.3-4.1-5.8-3.4l-0.3,0.1c-2.5,0.7-4,3.3-3.3,5.9l1.4,5.2C781.5,655.1,781.8,655.2,782,655.2
		C782,655.2,782,655.2,782,655.2z" class="st59"></path>
	<path d="M184.5,653l3.2,7.6c-0.7,8.2,0,17.1,2.1,26.6c2,8.8,11.7,7.7,18.4,6.1c1.9-0.4,3.9,0.3,5,2l6.4,9.5
		c0.3,0.4,0.9,0.6,1.4,0.3c0.2-0.1,0.3-0.3,0.4-0.5c1.2-3.4-1.9-6.6-1-9.5c0.2-0.8,0.7-1.2,1.5-1.1l48.1,0.3
		c-1,21.4-2.1,43.2-3.1,65.4c-0.6,13.3-0.5,39.1-2.9,58.7c-0.1,0.7-0.5,1.1-1.3,1.1l-5.9,0l-0.7-54.6c0-1.3-0.6-1.9-1.9-1.8
		l-22.5,0.4c-0.8,0-1.2,0.4-1.2,1.2c-0.1,17-0.1,33.9-0.1,50.8c0,2.4-0.6,3.7-1.9,4.1l-1.5,0c-0.1-0.3-0.4-0.5-0.9-0.6
		c-0.3-0.1-0.4-0.2-0.4-0.5l-0.8-83.5c0-0.7-0.4-1-1.1-1l-38.8,0.2c-0.7,0-1,0.3-1,1l0,84.4l-3.9,0.2l-0.1-50c0-0.9-0.7-1.7-1.6-1.7
		h-29.9c-0.7,0-1,0.3-1,1l0.1,47.5c-1.3,0.1-2.1,0.3-3.1-0.7c-34.9-33.7-81.4-128-41.1-171.2c23.2-24.8,55-11.8,77.6,6.9
		C182.2,652.4,183.3,652.9,184.5,653z" class="st67"></path>
	<path d="M713,673.5c-5.7,0.8-11.4,1.7-17,2.8c-9.3,1.8-16.9,8.1-24.5,13.3c-0.5,0.4-1.2,0.6-1.9,0.5
		c-12-0.1-24-0.4-36-0.6c-7.8-0.2-14.5,2.6-21.9,4.6c-0.5,0.1-1-0.2-1.1-0.7l-1.7-6c-0.3-1-1.3-1.6-2.3-1.3c-0.1,0-0.1,0-0.2,0.1
		c-8.4,3.3-16.8,6.7-25.3,10.1c-9.3,3.8-26.2,0.1-36-1.7c-4.7-0.9-10.8-12.1-13.8-16.1c-0.6-0.8-1.2-0.8-1.8,0l-13.7,16.8
		c-0.4,0.5-1,0.7-1.6,0.5c-16.2-5.4-32.4-10.7-48.4-16c-6-1.9-9.8,0.1-15.2,2.4l1.5-41c0-0.8,0.5-1.3,1.3-1.3h259.6
		c0.5,0,0.9,0.4,0.9,0.9c0,0,0,0,0,0L713,673.5z M492.5,668c0.4-5.1-9.1-12.8-12.9-15.6c-1-0.8-2.5-0.6-3.3,0.4
		c-3.2,4-6.9,7.2-11.2,9.7c-1.8,1-2.4,3.3-1.3,5.1c0.7,1.1,1.8,1.8,3.1,1.8l23.7,0.3C491.6,669.8,492.4,669,492.5,668z M593.3,663.4
		c0-0.3-0.2-0.5-0.5-0.5c0,0,0,0,0,0l-82.1-0.3c-0.3,0-0.5,0.2-0.5,0.5l0,0l0,0.8c0,0.3,0.2,0.5,0.5,0.5h0l82.1,0.3
		c0.3,0,0.5-0.2,0.5-0.5c0,0,0,0,0,0L593.3,663.4z M692.4,663.7c0-0.6-0.5-1.1-1.1-1.1l-77.6-0.1c-0.6,0-1.1,0.5-1.1,1.1l0,0.1
		c0,0.6,0.5,1.1,1.1,1.1c0,0,0,0,0,0l77.6,0.1C691.9,664.8,692.4,664.3,692.4,663.7C692.4,663.7,692.4,663.7,692.4,663.7
		L692.4,663.7z" class="st57"></path>
	<path d="M782,655.2c-0.2,0.1-0.4-0.1-0.5-0.3c0,0,0,0,0,0l-1.4-5.2c-0.7-2.6,0.8-5.2,3.3-5.9l0.3-0.1
		c2.5-0.7,5.1,0.9,5.8,3.4l1.4,5.2c0.1,0.2-0.1,0.4-0.3,0.5L782,655.2z M785.4,652.8c1.8-0.2,3.1-1.9,2.9-3.9
		c-0.2-2-1.8-3.4-3.6-3.3c-1.8,0.2-3.1,1.9-2.9,3.9C782,651.5,783.6,653,785.4,652.8z" class="st64"></path>
	<path d="M401.9,645l3.4,0c0.7,0,1.2,0.3,1.5,0.9c6.9,11.8,12.7,24.3,17.3,37.5l-25-0.1L401.9,645z" class="st67"></path>
	
		<ellipse ry="3.6" rx="3.2" cy="649.2" cx="785.1" class="st59" transform="matrix(0.9959 -9.063253e-02 9.063253e-02 0.9959 -55.6112 73.8258)"></ellipse>
	<path d="M479.5,652.4c3.8,2.8,13.3,10.6,12.9,15.6c-0.1,1-0.9,1.7-1.9,1.7l-23.7-0.3c-2.1,0-3.7-1.7-3.6-3.8
		c0-1.3,0.7-2.5,1.8-3.1c4.3-2.5,8-5.7,11.2-9.7C477,651.9,478.5,651.7,479.5,652.4z M483.3,664c0.4,0,0.7-0.3,0.7-0.6
		c0-0.2-0.1-0.3-0.2-0.4l-4.1-5c-0.2-0.3-0.6-0.3-0.9-0.1c0,0,0,0,0,0l-6.2,5c-0.3,0.2-0.3,0.6-0.1,0.9c0.1,0.2,0.3,0.3,0.5,0.3
		H483.3z" class="st65"></path>
	<path d="M483.3,664H473c-0.4,0-0.7-0.3-0.7-0.6c0-0.2,0.1-0.4,0.3-0.5l6.2-5c0.3-0.2,0.7-0.2,0.9,0.1c0,0,0,0,0,0
		l4.1,5c0.2,0.3,0.2,0.7-0.1,0.9C483.6,663.9,483.4,664,483.3,664z" class="st64"></path>
	<path d="M510.7,662.6l82.1,0.3c0.3,0,0.5,0.2,0.5,0.5l0,0.8c0,0.3-0.2,0.5-0.5,0.5l-82.1-0.3c-0.3,0-0.5-0.2-0.5-0.5
		l0-0.8C510.2,662.8,510.4,662.6,510.7,662.6z" class="st69"></path>
	<path d="M613.7,662.5l77.6,0.1c0.6,0,1.1,0.5,1.1,1.1l0,0.1c0,0.6-0.5,1.1-1.1,1.1l-77.6-0.1c-0.6,0-1.1-0.5-1.1-1.1
		l0-0.1C612.6,662.9,613.1,662.5,613.7,662.5z" class="st69"></path>
	<path d="M713,673.5l-1.8,73.2c0,0.7,0.3,1.1,1.1,1.2l9.3,0.6l4.8,1.6c0.8,0.3,1,0.8,0.6,1.5l-5.8,12.8l-12.5,19
		c-0.3,0.4-0.6,0.7-1,1l-6.4,4.6l1-37.3c0-0.6-0.3-0.9-0.9-0.8l-7.6,1.7c0-0.6-0.2-1.1-0.6-1.5c-0.3-0.3-0.7-0.4-1.3-0.5
		c-15.2-0.6-30.3-0.8-45.5-0.6c-0.9,0-1.6,0.2-2,0.6c-0.7,0.6-0.9,1.4-0.5,2.4c0.3,0.6,0.9,1.1,1.6,1.1l42.1,0.1l-9.8,27.1
		c-0.2,0.5-0.8,0.8-1.3,0.6c-0.1,0-0.2-0.1-0.3-0.2l-9.4-8.9c-0.5-0.4-1.2-0.4-1.7,0.1c-0.1,0.1-0.2,0.3-0.3,0.4
		c-3.8,11.8-9,23.5-15.6,35.3l-13.3,11l-26.1,0.3c-2.1,0-2.8-1-2.2-2.9l2.2-7c0.2-0.8-0.2-1.6-1-1.8c-0.1,0-0.3-0.1-0.4-0.1
		l-163.2,0c-0.3,0-0.5-0.2-0.5-0.5c0,0,0,0,0,0c1-12.1,1.3-24.2,0.9-36.5c-0.2-7.2,1.5-16.1,1.5-24c0.1-16.1,2.6-32,2.4-48.1
		c-0.1-5.6,0.2-11.2,0.7-16.6c5.4-2.3,9.2-4.4,15.2-2.4c16,5.3,32.2,10.6,48.4,16c0.6,0.2,1.2,0,1.6-0.5l13.7-16.8
		c0.6-0.7,1.2-0.7,1.8,0c3,4,9.1,15.2,13.8,16.1c9.8,1.8,26.7,5.4,36,1.7c8.5-3.4,16.9-6.8,25.3-10.1c1-0.4,2.1,0.1,2.4,1
		c0,0.1,0,0.1,0.1,0.2l1.7,6c0.1,0.5,0.6,0.8,1.1,0.7c7.5-2.1,14.1-4.8,21.9-4.6c12,0.3,24,0.5,36,0.6c0.7,0,1.3-0.2,1.9-0.5
		c7.7-5.2,15.3-11.5,24.5-13.3C701.6,675.2,707.3,674.3,713,673.5z M501.5,698.1c0-0.3-0.2-0.5-0.5-0.5l0,0h-0.1
		c-0.3,0-0.5,0.2-0.5,0.5l0,0v100.2c0,0.3,0.2,0.5,0.5,0.5l0,0h0.1c0.3,0,0.5-0.2,0.5-0.5l0,0V698.1z M575.6,701.6
		c0-0.3-0.2-0.5-0.5-0.5l0,0c-0.3,0-0.5,0.2-0.5,0.5l0,0l-0.2,96.9c0,0.3,0.2,0.5,0.5,0.5l0,0l0,0c0.3,0,0.5-0.2,0.5-0.5l0,0
		L575.6,701.6z M636,705.9c0-0.8-0.7-1.5-1.5-1.5c0,0,0,0,0,0l-48.7,0.1c-0.8,0-1.5,0.7-1.5,1.5l0,0.6c0,0.8,0.7,1.5,1.5,1.5
		c0,0,0,0,0,0l48.7-0.1c0.8,0,1.5-0.7,1.5-1.5L636,705.9z M702.5,705.9c0-1-0.8-1.7-1.7-1.7h0l-54.9,0.3c-1,0-1.7,0.8-1.7,1.7v0
		l0,0.2c0,1,0.8,1.7,1.7,1.7l0,0l54.9-0.3c1,0,1.7-0.8,1.7-1.7v0L702.5,705.9z M473.9,706.7c0-0.6-0.5-1.1-1.1-1.1l-19.5,0.2
		c-0.6,0-1.1,0.5-1.1,1.1c0,0,0,0,0,0l0,0.1c0,0.6,0.5,1.1,1.1,1.1l19.5-0.2c0.6,0,1.1-0.5,1.1-1.1v0L473.9,706.7z M480.3,708
		l0.9-0.4c0.5-0.2,0.6-0.8,0.4-1.3c-0.2-0.4-0.6-0.6-1.1-0.5l-1.9,0.6c-0.4,0.1-0.4,0.3-0.1,0.6l0.8,0.8
		C479.5,708.1,479.9,708.2,480.3,708z M536.7,707.5c0-0.8-5.4-1.5-12-1.5c-6.6-0.1-12,0.5-12,1.3c0,0,0,0,0,0c0,0.8,5.4,1.5,12,1.5
		C531.3,708.9,536.7,708.3,536.7,707.5C536.7,707.5,536.7,707.5,536.7,707.5z M538.5,707.3c0.8,0.6,1.7,0.9,2.6,0.7
		c0.4-0.1,0.6-0.5,0.5-0.9c-0.1-0.3-0.4-0.6-0.7-0.6l-2.3,0.1c-0.2,0-0.4,0.2-0.4,0.4C538.4,707.1,538.4,707.2,538.5,707.3z
		 M636,713.9c0-1.1-0.9-1.9-1.9-1.9L586,712c-1.1,0-1.9,0.9-1.9,1.9c0,0,0,0,0,0l0,0.1c0,1.1,0.9,1.9,1.9,1.9l48.1-0.1
		C635.2,715.9,636,715,636,713.9L636,713.9z M694,713.8c0-1-0.8-1.8-1.8-1.8c0,0,0,0,0,0h-46.4c-1,0-1.8,0.8-1.8,1.8v0.4
		c0,1,0.8,1.8,1.8,1.8h46.4c1,0,1.8-0.8,1.8-1.8c0,0,0,0,0,0V713.8z M471.8,715.8c0-1-0.8-1.8-1.8-1.8l0,0l-16,0.1
		c-1,0-1.8,0.8-1.8,1.8c0,0,0,0,0,0l0,0.1c0,1,0.8,1.8,1.8,1.8l0,0l16-0.1c1,0,1.8-0.8,1.8-1.8v0L471.8,715.8z M533.9,716.7
		c0-0.7-0.5-1.2-1.2-1.2c0,0,0,0,0,0l-19,0c-0.7,0-1.2,0.5-1.2,1.2v0.1c0,0.7,0.5,1.2,1.2,1.2c0,0,0,0,0,0l19,0
		C533.3,718,533.9,717.4,533.9,716.7L533.9,716.7z M666.3,721.1c0-0.8-0.7-1.5-1.5-1.5l0,0h-19.2c-0.8,0-1.5,0.7-1.5,1.5v0.2
		c0,0.8,0.7,1.5,1.5,1.5l0,0h19.2c0.8,0,1.5-0.7,1.5-1.5v0V721.1z M534,725.9c0-1-0.8-1.8-1.8-1.8l-18.2,0c-1,0-1.8,0.8-1.8,1.8
		l0,0.2c0,1,0.8,1.8,1.8,1.8l18.2,0c1,0,1.8-0.8,1.8-1.8L534,725.9z M532.7,735c0-0.4-4.2-0.7-9.3-0.7c0,0,0,0,0,0
		c-5.1,0-9.3,0.3-9.3,0.6c0,0.4,4.2,0.7,9.3,0.7c0,0,0,0,0,0C528.5,735.6,532.7,735.4,532.7,735z M486,743.9c0-0.8-0.7-1.5-1.5-1.4
		l-31.3,0.4c-0.8,0-1.5,0.7-1.4,1.5l0,0l0,0.4c0,0.8,0.7,1.5,1.5,1.4l31.3-0.4c0.8,0,1.5-0.7,1.4-1.5L486,743.9z M533.9,744.3
		c0-0.9-0.7-1.6-1.6-1.6c0,0,0,0,0,0l-18.6-0.2c-0.9,0-1.6,0.7-1.6,1.6l0,0.2c0,0.9,0.7,1.6,1.6,1.6c0,0,0,0,0,0l18.6,0.2
		c0.9,0,1.6-0.7,1.6-1.6l0,0L533.9,744.3z M635.9,744.6c0-0.9-0.7-1.7-1.7-1.7l-48,0.2c-0.9,0-1.7,0.7-1.7,1.7l0,0l0,0.1
		c0,0.9,0.7,1.7,1.7,1.7l48-0.2c0.9,0,1.7-0.7,1.7-1.7l0,0L635.9,744.6z M702.1,744.4c0-0.8-0.6-1.4-1.4-1.4c0,0,0,0,0,0l-55.1,0.2
		c-0.8,0-1.4,0.6-1.4,1.4l0,0l0,0.6c0,0.8,0.6,1.4,1.4,1.4c0,0,0,0,0,0l55.1-0.2c0.8,0,1.4-0.6,1.4-1.4l0,0L702.1,744.4z M636,752
		c0-1.1-0.9-1.9-1.9-1.9h0l-47.4-0.1c-1.1,0-1.9,0.9-1.9,1.9l0,0v0c0,1.1,0.9,1.9,1.9,1.9l0,0L634,754C635.1,754,636,753.1,636,752
		L636,752L636,752z M679.8,756.9c0-0.3-1.1-0.5-2.5-0.5c-1.4,0-2.5,0.3-2.5,0.6v0c0,0.3,1.1,0.5,2.5,0.5
		C678.7,757.5,679.8,757.3,679.8,756.9C679.8,756.9,679.8,756.9,679.8,756.9z M636.2,759.7c0-0.9-0.8-1.7-1.7-1.7l-48.5,0.1
		c-0.9,0-1.7,0.8-1.7,1.7l0,0l0,0.1c0,0.9,0.8,1.7,1.7,1.7l0,0l48.5-0.1c0.9,0,1.7-0.8,1.7-1.7l0,0L636.2,759.7z M669.9,759.2
		c0-0.8-0.6-1.4-1.4-1.3l-23.1,0.3c-0.8,0-1.4,0.6-1.3,1.4l0,0.9c0,0.8,0.6,1.4,1.4,1.3l23.1-0.3c0.8,0,1.4-0.6,1.3-1.4L669.9,759.2
		z M459,763.6c2.2,0.1,4.4,0,6.5-0.2c0.2,0,0.4-0.2,0.4-0.4c0-0.2-0.2-0.4-0.4-0.4l0,0c-2.2-0.3-4.4-0.4-6.7-0.5
		c-0.8,0-1.4,0.3-1.3,0.7C457.6,763.3,458.2,763.6,459,763.6z M522.7,762.9c0-0.4-1.8-0.6-4.1-0.5c0,0,0,0,0,0
		c-2.3,0.1-4.1,0.4-4.1,0.7c0,0.4,1.8,0.6,4.1,0.5c0,0,0,0,0,0C520.9,763.6,522.7,763.3,522.7,762.9z M605.8,766.8
		c0-0.7-0.5-1.3-1.3-1.3l-18.6-0.6c-0.7,0-1.3,0.5-1.3,1.3l0,0.4c0,0.7,0.5,1.3,1.3,1.3l18.6,0.6c0.7,0,1.3-0.5,1.3-1.3L605.8,766.8
		z M661.5,766.8c0-0.6-0.5-1.1-1.1-1.1c0,0,0,0,0,0l-15-0.3c-0.6,0-1.1,0.5-1.1,1.1l0,0.5c0,0.6,0.5,1.1,1.1,1.1c0,0,0,0,0,0l15,0.3
		c0.6,0,1.1-0.5,1.1-1.1L661.5,766.8z M452.1,771.8c0.4,0.4,1.1,0.2,1.7-0.4c0.6-0.6,0.7-1.3,0.4-1.7c0,0,0,0,0,0
		c-0.4-0.4-1.1-0.2-1.7,0.4C451.9,770.7,451.8,771.5,452.1,771.8z M472.6,779.3c0-0.8-0.6-1.4-1.4-1.4c0,0,0,0,0,0l-17.6,0.1
		c-0.8,0-1.4,0.6-1.4,1.4l0,0.1c0,0.8,0.6,1.4,1.4,1.4c0,0,0,0,0,0l17.6-0.1C472,780.8,472.6,780.2,472.6,779.3L472.6,779.3z
		 M490.5,779.1c0-0.6-3.4-1-7.5-1.1c-4.2,0-7.5,0.4-7.5,0.9c0,0,0,0,0,0c0,0.6,3.4,1,7.5,1.1S490.5,779.6,490.5,779.1
		C490.5,779.1,490.5,779.1,490.5,779.1z M534.7,779.6c0-1-5.1-1.8-11.5-1.8c0,0,0,0,0,0c-6.3,0-11.5,0.8-11.5,1.8l0,0
		c0,1,5.1,1.8,11.5,1.8S534.7,780.6,534.7,779.6z M551.4,778.9c0-0.5-3.3-1-7.4-0.9c-4.1,0-7.4,0.4-7.4,1v0c0,0.5,3.3,1,7.4,0.9
		C548.1,779.8,551.4,779.4,551.4,778.9C551.4,778.9,551.4,778.9,551.4,778.9z M635.6,779.8c0-0.3-0.2-0.5-0.5-0.5l-50.3,1.1
		c-0.3,0-0.5,0.2-0.5,0.5l0,0l0.1,2.5c0,0.3,0.2,0.5,0.5,0.5l0,0l50.3-1.1c0.3,0,0.5-0.2,0.5-0.5L635.6,779.8z M471.8,788
		c0-1-0.8-1.9-1.9-1.9l-16.1-0.1c-1,0-1.9,0.8-1.9,1.9l0,0l0,0.1c0,1,0.8,1.9,1.9,1.9l16.1,0.1c1,0,1.9-0.8,1.9-1.9v0L471.8,788z
		 M533.4,788c0-1-0.8-1.9-1.9-1.9l-17.6-0.1c-1,0-1.9,0.8-1.9,1.9l0,0.1c0,1,0.8,1.9,1.9,1.9l17.6,0.1c1,0,1.9-0.8,1.9-1.9v0
		L533.4,788z M635.3,787.7c0-0.8-0.6-1.4-1.4-1.4l-47.9,0.4c-0.8,0-1.4,0.6-1.4,1.4c0,0,0,0,0,0l0,0.7c0,0.8,0.6,1.4,1.4,1.4
		l47.9-0.4c0.8,0,1.4-0.6,1.4-1.4c0,0,0,0,0,0L635.3,787.7z" class="st59"></path>
	<path d="M793.8,681.2l1.9,13.9l-68.4-0.4c-0.9-1-1.9-1.6-3-1.7l0-9.1l62.2-0.5C786.8,682.2,789.2,681.5,793.8,681.2z" class="st60"></path>
	<path d="M345.2,685.1l0.8,7.8c-9.8,2.4-18.7,2.4-26.9,0l1.8-8.6C328.6,683.4,336.7,683.7,345.2,685.1z" class="st66"></path>
	<path d="M399.1,683.3l25,0.1l15.7,0.5l0,11.6l-12.1-0.5l-29.4-1.6L399.1,683.3z" class="st60"></path>
	<path d="M319.1,692.9c8.1,2.4,17.1,2.4,26.9,0l11.8,124.6c0.1,1-0.6,1.9-1.7,2c-0.1,0-0.1,0-0.2,0h-36.9
		c-0.6,0-1.1-0.2-1.6-0.5c-6.1-4.5-13-7.3-20.5-8.5c-0.8-0.1-1.3-0.9-1.2-1.6c0,0,0,0,0-0.1L319.1,692.9z" class="st67"></path>
	<path d="M427.7,695c4.4,10.3,7.2,21,8.2,32c0.1,0.7,0.4,1,1.1,1h1l-3.9,90.4c0,0.7-0.4,1.1-1.2,1.1h-19
		c-0.7,0-1.4-0.2-2-0.7c-6.3-4.7-13.5-7.5-21.4-8.4c-0.7-0.1-1.2-0.7-1.2-1.4l8.9-115.6L427.7,695z" class="st67"></path>
	<path d="M727.2,694.6l68.4,0.4c-7,19.2-11.9,38.5-14.9,57.9c-0.1,0.7-0.3,1.2-0.5,1.6c-0.2,0.3-0.6,0.4-0.9,0.2
		c-0.2-0.1-0.3-0.3-0.3-0.4c-3.4-13-8.5-33.5-18.9-42.7c-9-8.1-19.7-7.2-28.7,0.3c-1.2,1-1.9,0.7-2.1-0.8L727.2,694.6z" class="st57"></path>
	<path d="M427.7,695l12.1,0.5L438,728h-1c-0.7,0-1-0.3-1.1-1C434.9,716,432.2,705.4,427.7,695z" class="st57"></path>
	<path d="M500.9,697.6L500.9,697.6c0.4,0,0.6,0.2,0.6,0.5v100.2c0,0.3-0.2,0.5-0.5,0.5h-0.1c-0.3,0-0.5-0.2-0.5-0.5
		V698.1C500.4,697.8,500.6,697.6,500.9,697.6z" class="st69"></path>
	<path d="M575.1,701.1L575.1,701.1c0.3,0,0.5,0.2,0.5,0.5l-0.2,96.9c0,0.3-0.2,0.5-0.5,0.5l0,0c-0.3,0-0.5-0.2-0.5-0.5
		l0.2-96.9C574.6,701.3,574.8,701.1,575.1,701.1z" class="st69"></path>
	<path d="M585.8,704.5l48.7-0.1c0.8,0,1.5,0.7,1.5,1.5l0,0.6c0,0.8-0.7,1.5-1.5,1.5l-48.7,0.1c-0.8,0-1.5-0.7-1.5-1.5
		l0-0.6C584.3,705.2,584.9,704.5,585.8,704.5z" class="st57"></path>
	<path d="M645.8,704.5l54.9-0.3c1,0,1.7,0.8,1.7,1.7l0,0.2c0,1-0.8,1.7-1.7,1.7l-54.9,0.3c-1,0-1.7-0.8-1.7-1.7l0-0.2
		C644.1,705.3,644.9,704.5,645.8,704.5z" class="st57"></path>
	<path d="M453.2,705.7l19.5-0.2c0.6,0,1.1,0.5,1.1,1.1l0,0.1c0,0.6-0.5,1.1-1.1,1.1l-19.5,0.2c-0.6,0-1.1-0.5-1.1-1.1
		l0-0.1C452.1,706.3,452.6,705.8,453.2,705.7z" class="st57"></path>
	<path d="M479.2,707.8l-0.8-0.8c-0.3-0.3-0.2-0.5,0.1-0.6l1.9-0.6c0.5-0.1,1,0.2,1.2,0.7c0.1,0.4-0.1,0.9-0.5,1.1
		l-0.9,0.4C479.9,708.2,479.5,708.1,479.2,707.8z" class="st67"></path>
	
		<ellipse ry="12" rx="1.4" cy="707.4" cx="524.7" class="st57" transform="matrix(8.726535e-03 -1 1 8.726535e-03 -187.2317 1225.8472)"></ellipse>
	<path d="M538.5,707.3c-0.2-0.1-0.2-0.4-0.1-0.6c0.1-0.1,0.2-0.1,0.3-0.1l2.3-0.1c0.4,0,0.7,0.3,0.7,0.8
		c0,0.3-0.2,0.6-0.6,0.7C540.2,708.1,539.4,707.9,538.5,707.3z" class="st67"></path>
	<path d="M586,712l48.1-0.1c1.1,0,1.9,0.9,1.9,1.9l0,0.1c0,1.1-0.9,1.9-1.9,1.9L586,716c-1.1,0-1.9-0.9-1.9-1.9l0-0.1
		C584.1,712.9,585,712,586,712z" class="st57"></path>
	<path d="M645.7,712h46.4c1,0,1.8,0.8,1.8,1.8v0.4c0,1-0.8,1.8-1.8,1.8h-46.4c-1,0-1.8-0.8-1.8-1.8v-0.4
		C643.9,712.8,644.7,712,645.7,712z" class="st57"></path>
	<path d="M453.9,714.1l16-0.1c1,0,1.8,0.8,1.8,1.8l0,0.1c0,1-0.8,1.8-1.8,1.8l-16,0.1c-1,0-1.8-0.8-1.8-1.8l0-0.1
		C452.1,714.9,452.9,714.1,453.9,714.1z" class="st57"></path>
	<path d="M513.7,715.5l19,0c0.7,0,1.2,0.5,1.2,1.2l0,0.1c0,0.7-0.5,1.2-1.2,1.2l-19,0c-0.7,0-1.2-0.5-1.2-1.2l0-0.1
		C512.5,716.1,513,715.5,513.7,715.5z" class="st57"></path>
	<path d="M645.6,719.6h19.2c0.8,0,1.5,0.7,1.5,1.5v0.2c0,0.8-0.7,1.5-1.5,1.5h-19.2c-0.8,0-1.5-0.7-1.5-1.5v-0.2
		C644.1,720.2,644.8,719.6,645.6,719.6z" class="st57"></path>
	<path d="M514,724l18.2,0c1,0,1.8,0.8,1.8,1.8l0,0.2c0,1-0.8,1.8-1.8,1.8l-18.2,0c-1,0-1.8-0.8-1.8-1.8l0-0.2
		C512.1,724.8,512.9,724,514,724z" class="st57"></path>
	<path d="M227,819.5h-43l0-84.4c0-0.7,0.3-1,1-1l38.8-0.2c0.7,0,1,0.3,1.1,1l0.8,83.5c0,0.3,0.1,0.5,0.4,0.5
		C226.7,819,227,819.2,227,819.5z" class="st58"></path>
	
		<ellipse ry="9.3" rx="0.6" cy="735" cx="523.3" class="st64" transform="matrix(3.490651e-03 -1 1 3.490651e-03 -213.4623 1255.7512)"></ellipse>
	<path d="M453.2,742.9l31.3-0.4c0.8,0,1.5,0.6,1.5,1.4l0,0.4c0,0.8-0.6,1.5-1.4,1.5l-31.3,0.4c-0.8,0-1.5-0.6-1.5-1.4
		l0-0.4C451.7,743.5,452.4,742.9,453.2,742.9z" class="st57"></path>
	<path d="M513.7,742.5l18.6,0.2c0.9,0,1.6,0.7,1.6,1.6l0,0.2c0,0.9-0.7,1.6-1.6,1.6l-18.6-0.2c-0.9,0-1.6-0.7-1.6-1.6
		l0-0.2C512.1,743.2,512.9,742.5,513.7,742.5z" class="st57"></path>
	<path d="M586.3,743.1l48-0.2c0.9,0,1.7,0.7,1.7,1.7l0,0.1c0,0.9-0.7,1.7-1.7,1.7l-48,0.2c-0.9,0-1.7-0.7-1.7-1.7
		l0-0.1C584.7,743.9,585.4,743.1,586.3,743.1z" class="st57"></path>
	<path d="M645.5,743.2l55.1-0.2c0.8,0,1.4,0.6,1.4,1.4l0,0.6c0,0.8-0.6,1.4-1.4,1.4l-55.1,0.2c-0.8,0-1.4-0.6-1.4-1.4
		l0-0.6C644.1,743.8,644.8,743.2,645.5,743.2z" class="st57"></path>
	<path d="M586.6,750l47.4,0.1c1.1,0,1.9,0.9,1.9,1.9l0,0c0,1.1-0.9,1.9-1.9,1.9l-47.4-0.1c-1.1,0-1.9-0.9-1.9-1.9l0,0
		C584.6,750.8,585.5,750,586.6,750z" class="st57"></path>
	<path d="M694,752.6c-1.4,1.2-3.5,1.7-6.2,1.6l-42.1-0.1c-0.7,0-1.3-0.4-1.6-1.1c-0.4-1-0.2-1.8,0.5-2.4
		c0.4-0.4,1.1-0.6,2-0.6c15.2-0.2,30.3,0,45.5,0.6c0.6,0,1,0.2,1.3,0.5C693.8,751.5,694,752,694,752.6z" class="st57"></path>
	<path d="M701.5,789c-6.9,5.8-11.7,10.7-20.5,13.1c-9.9,2.7-20.4,4.9-31.5,6.4c6.5-11.7,11.7-23.5,15.6-35.3
		c0.2-0.6,0.9-0.9,1.5-0.7c0.2,0.1,0.3,0.1,0.4,0.3l9.4,8.9c0.4,0.4,1.1,0.4,1.4,0c0.1-0.1,0.2-0.2,0.2-0.3l9.8-27.1
		c2.7,0.1,4.8-0.4,6.2-1.6l7.6-1.7c0.6-0.1,0.9,0.1,0.9,0.8L701.5,789z" class="st62"></path>
	
		<ellipse ry="0.6" rx="2.5" cy="757" cx="677.3" class="st65" transform="matrix(0.9997 -2.268733e-02 2.268733e-02 0.9997 -17 15.5601)"></ellipse>
	<path d="M585.9,758.1l48.5-0.1c0.9,0,1.7,0.8,1.7,1.7l0,0.1c0,0.9-0.8,1.7-1.7,1.7l-48.5,0.1c-0.9,0-1.7-0.8-1.7-1.7
		l0-0.1C584.2,758.8,585,758.1,585.9,758.1z" class="st57"></path>
	<path d="M645.4,758.1l23.1-0.3c0.8,0,1.4,0.6,1.4,1.3l0,0.9c0,0.8-0.6,1.4-1.3,1.4l-23.1,0.3c-0.8,0-1.4-0.6-1.4-1.3
		l0-0.9C644,758.8,644.6,758.2,645.4,758.1z" class="st57"></path>
	<path d="M459,763.6c-0.8,0-1.4-0.4-1.4-0.8c0-0.4,0.6-0.7,1.3-0.7c2.2,0.1,4.4,0.2,6.7,0.5c0.2,0,0.4,0.2,0.4,0.4
		c0,0.2-0.2,0.4-0.4,0.4l0,0C463.4,763.6,461.2,763.7,459,763.6z" class="st60"></path>
	
		<ellipse ry="0.6" rx="4.1" cy="763" cx="518.6" class="st58" transform="matrix(0.9997 -2.268733e-02 2.268733e-02 0.9997 -17.1779 11.962)"></ellipse>
	<path d="M256.8,819.4h-28.2c1.3-0.3,1.9-1.7,1.9-4.1c0-16.9,0-33.8,0.1-50.8c0-0.8,0.4-1.2,1.2-1.2l22.5-0.4
		c1.2,0,1.9,0.6,1.9,1.8L256.8,819.4z" class="st62"></path>
	<path d="M780.5,819.5l-144.3,0l13.3-11c11.1-1.6,21.5-3.7,31.5-6.4c8.8-2.4,13.6-7.2,20.5-13.1l6.4-4.6
		c0.4-0.3,0.7-0.6,1-1l12.5-19l58.1-0.3c0.7,0,1.1,0.4,1.1,1.1L780.5,819.5z" class="st58"></path>
	<path d="M585.9,764.9l18.6,0.6c0.7,0,1.3,0.6,1.3,1.3l0,0.4c0,0.7-0.6,1.3-1.3,1.3l-18.6-0.6c-0.7,0-1.3-0.6-1.3-1.3
		l0-0.4C584.6,765.5,585.2,764.9,585.9,764.9z" class="st57"></path>
	<path d="M645.4,765.3l15,0.3c0.6,0,1.1,0.5,1.1,1.1l0,0.5c0,0.6-0.5,1.1-1.1,1.1l-15-0.3c-0.6,0-1.1-0.5-1.1-1.1
		l0-0.5C644.3,765.8,644.8,765.3,645.4,765.3z" class="st57"></path>
	<path d="M180.1,819.7l-32.6-0.2l0.1-3l-0.1-47.5c0-0.7,0.3-1,1-1h29.9c0.9,0,1.6,0.7,1.6,1.7L180.1,819.7z" class="st65"></path>
	
		<ellipse ry="0.9" rx="1.5" cy="770.8" cx="453.2" class="st69" transform="matrix(0.7133 -0.7009 0.7009 0.7133 -410.3257 538.6703)"></ellipse>
	<path d="M453.5,778l17.6-0.1c0.8,0,1.4,0.6,1.4,1.4l0,0.1c0,0.8-0.6,1.4-1.4,1.4l-17.6,0.1c-0.8,0-1.4-0.6-1.4-1.4
		l0-0.1C452.1,778.6,452.7,778,453.5,778z" class="st57"></path>
	<ellipse ry="7.5" rx="1" cy="779" cx="483" class="st64" transform="matrix(6.981261e-03 -1 1 6.981261e-03 -299.353 1256.5498)"></ellipse>
	<ellipse ry="1.8" rx="11.5" cy="779.6" cx="523.2" class="st57"></ellipse>
	<ellipse ry="1" rx="7.4" cy="778.9" cx="544" class="st64" transform="matrix(1 -1.745326e-03 1.745326e-03 1 -1.3586 0.9506)"></ellipse>
	<path d="M584.8,780.4l50.3-1.1c0.3,0,0.5,0.2,0.5,0.5l0.1,2.5c0,0.3-0.2,0.5-0.5,0.5l-50.3,1.1
		c-0.3,0-0.5-0.2-0.5-0.5l-0.1-2.5C584.3,780.6,584.5,780.4,584.8,780.4z" class="st57"></path>
	<path d="M453.9,786l16.1,0.1c1,0,1.9,0.9,1.9,1.9l0,0.1c0,1-0.9,1.9-1.9,1.9l-16.1-0.1c-1,0-1.9-0.9-1.9-1.9l0-0.1
		C452,786.9,452.8,786,453.9,786z" class="st57"></path>
	<path d="M514,786.1l17.6,0.1c1,0,1.9,0.8,1.9,1.9l0,0.1c0,1-0.8,1.9-1.9,1.9l-17.6-0.1c-1,0-1.9-0.8-1.9-1.9l0-0.1
		C512.1,786.9,512.9,786,514,786.1z" class="st57"></path>
	<path d="M586,786.7l47.9-0.4c0.8,0,1.4,0.6,1.4,1.4l0,0.7c0,0.8-0.6,1.4-1.4,1.4l-47.9,0.4c-0.8,0-1.4-0.6-1.4-1.4
		l0-0.7C584.7,787.3,585.3,786.7,586,786.7z" class="st57"></path>
	<path d="M824,818.5l-0.9,0.6c-0.3,0.2-0.6,0.3-0.9,0.3l-33.8,0.1l-0.1-28.7c0-0.9,0.4-1.3,1.3-1.3H823
		c0.7,0,1,0.3,1,1V818.5z" class="st58"></path>
	<path d="M207.5,839l-19.1,0.7l-19.5-0.8C181.8,837.8,194.7,837.8,207.5,839z" class="st59"></path>
	<path d="M713.3,838.5c-0.8,4.1-0.6,7.5,0.3,10.2c0.2,0.6,0.2,1.2,0,1.8l-2.9,8.6l-105.2,0c-1.2-0.3-1.8-1.2-1.5-2.7
		c0.1-0.7-0.2-1.4-0.8-1.7l-5-2.6c-0.5-0.2-0.7-0.6-0.7-1.1c-0.1-2.3,0.7-4.3,2.2-5.9c0.5-0.5,0.8-1.2,0.8-1.9v-2.5c0-0.7,0.3-1,1-1
		c0.8,0,1.3-0.2,1.5-0.5L713.3,838.5z" class="st58"></path>
	<path d="M713.3,838.5l68.7,0.4l-0.1,19.1c0,0.8-0.4,1.1-1.1,1.1l-70-0.1l2.9-8.6c0.2-0.6,0.2-1.2,0-1.8
		C712.6,846,712.5,842.6,713.3,838.5z" class="st63"></path>
	<path d="M207.5,839H483l-2.3,3.5c-0.3,0.5-0.4,1.1-0.3,1.6l1.1,5.3c0.1,0.6,0.4,1,0.8,1.4c1.7,1.4,2.4,4.1,1.9,8.2
		H250c-1.2,0-1.8-0.6-1.9-1.8l-0.4-12.5c0-0.7-0.4-1.1-1.2-1.1c-14.2,0.1-24.7-0.4-31.7-1.5c-11-1.8-19.8-2.6-26.4-2.4L207.5,839z" class="st60"></path>
	<path d="M483,839h120c-0.3,0.4-0.8,0.5-1.5,0.5c-0.7,0-1,0.3-1,1v2.5c0,0.8-0.3,1.4-0.8,1.9c-1.6,1.6-2.3,3.6-2.2,5.9
		c0,0.5,0.2,0.9,0.7,1.1l5,2.6c0.6,0.3,0.9,1,0.8,1.7c-0.2,1.4,0.3,2.3,1.5,2.7l-121.3,0c0.4-4.1-0.2-6.8-1.9-8.2
		c-0.4-0.4-0.7-0.8-0.8-1.4l-1.1-5.3c-0.1-0.6,0-1.1,0.3-1.6L483,839z" class="st69"></path>
</g>
</svg>
