<?xml version="1.0" standalone="no"?><!DOCTYPE svg PUBLIC "-//W3C//DTD SVG 1.1//EN"
        "http://www.w3.org/Graphics/SVG/1.1/DTD/svg11.dtd">
<svg class="icon" width="200px" height="200.00px" viewBox="0 0 1024 1024" version="1.1"
     xmlns="http://www.w3.org/2000/svg">
    <path d="M409.6 307.2a102.4 102.4 0 1 1 204.8 0 102.4 102.4 0 0 1-204.8 0z m102.4-163.84a163.84 163.84 0 1 0 0 327.68 163.84 163.84 0 0 0 0-327.68zM194.56 706.56v143.36a30.72 30.72 0 0 0 61.44 0v-143.36A133.12 133.12 0 0 1 389.12 573.44h245.76a133.12 133.12 0 0 1 133.12 133.12v143.36a30.72 30.72 0 0 0 61.44 0v-143.36A194.56 194.56 0 0 0 634.88 512H389.12a194.56 194.56 0 0 0-194.56 194.56z"
          fill="#6E6E6E"/>
</svg>