<?xml version="1.0" standalone="no"?><!DOCTYPE svg PUBLIC "-//W3C//DTD SVG 1.1//EN"
        "http://www.w3.org/Graphics/SVG/1.1/DTD/svg11.dtd">
<svg class="icon" width="200px" height="200.00px" viewBox="0 0 1024 1024" version="1.1"
     xmlns="http://www.w3.org/2000/svg">
    <path fill="#6E6E6E" d="M867.2 492.8l-336-336c-11.2-11.2-28.8-17.6-44.8-17.6L208 148.8C176 150.4 150.4 176 148.8 208l-9.6 278.4c0 16 6.4 33.6 17.6 44.8l336 336c11.2 11.2 27.2 17.6 43.2 17.6 16 0 30.4-6.4 43.2-17.6l288-288c24-24 24-62.4 0-86.4z m-33.6 52.8l-288 288c-4.8 4.8-12.8 4.8-17.6 0l-336-336c-3.2-3.2-3.2-6.4-3.2-9.6l9.6-278.4c0-6.4 4.8-11.2 11.2-11.2l278.4-9.6c3.2 0 6.4 1.6 8 3.2l336 336c6.4 4.8 6.4 12.8 1.6 17.6z"/>
    <path fill="#6E6E6E" d="M344 344m-48 0a48 48 0 1 0 96 0 48 48 0 1 0-96 0Z"/>
</svg>