<?xml version="1.0" standalone="no"?><!DOCTYPE svg PUBLIC "-//W3C//DTD SVG 1.1//EN" "http://www.w3.org/Graphics/SVG/1.1/DTD/svg11.dtd"><svg class="icon" width="200px" height="200.00px" viewBox="0 0 1024 1024" version="1.1" xmlns="http://www.w3.org/2000/svg"><path fill="#6e6e6e" d="M860.4 163.6H163.6C108.6 163.6 64 208.2 64 263.2v497.8c0 55 44.6 99.6 99.6 99.6h696.8c55 0 99.6-44.6 99.6-99.6V263.2c0-55-44.6-99.6-99.6-99.6z m49.8 597.2c0 27.4-22.4 49.8-49.8 49.8H163.6c-27.4 0-49.8-22.4-49.8-49.8V263.2c0-27.4 22.4-49.8 49.8-49.8h696.8c27.4 0 49.8 22.4 49.8 49.8v497.6z m-112-199H624c-6.8 0-12.4 5.6-12.4 12.4v24.8c0 6.8 5.6 12.4 12.4 12.4h174.2c6.8 0 12.4-5.6 12.4-12.4v-24.8c0-6.8-5.6-12.4-12.4-12.4z m0-99.6H624c-6.8 0-12.4 5.6-12.4 12.4v24.8c0 6.8 5.6 12.4 12.4 12.4h174.2c6.8 0 12.4-5.6 12.4-12.4v-24.8c0-6.8-5.6-12.4-12.4-12.4z m0-99.6H624c-6.8 0-12.4 5.6-12.4 12.4V400c0 6.8 5.6 12.4 12.4 12.4h174.2c6.8 0 12.4-5.6 12.4-12.4v-24.8c0-7-5.6-12.6-12.4-12.6z m-410.6 199.2c68.8 0 124.4-55.6 124.4-124.4s-55.6-124.4-124.4-124.4-124.4 55.6-124.4 124.4 55.6 124.4 124.4 124.4z m0-199.2c41.2 0 74.6 33.4 74.6 74.6S428.8 512 387.6 512s-74.6-33.4-74.6-74.6 33.4-74.8 74.6-74.8z m72.8 224c-30.4 0-38 10.8-72.8 10.8s-42.4-10.8-72.8-10.8c-33 0-65 14.6-83.6 42.6-11.2 16.6-17.8 36.8-17.8 58.4v36c0 6.8 5.6 12.4 12.4 12.4h24.8c6.8 0 12.4-5.6 12.4-12.4v-36c0-10.8 3.2-21.4 9.4-30.4 8.8-13 24.6-20.6 42.4-20.6 19.2 0 32.4 10.8 72.8 10.8 40.2 0 53.4-10.8 72.8-10.8 17.8 0 33.8 7.8 42.4 20.6 6 9 9.4 19.6 9.4 30.4v36c0 6.8 5.6 12.4 12.4 12.4h24.8c6.8 0 12.4-5.6 12.4-12.4v-36c0-21.6-6.6-41.6-17.8-58.4-18.8-28-50.8-42.6-83.6-42.6z" /></svg>