<?xml version="1.0" standalone="no"?><!DOCTYPE svg PUBLIC "-//W3C//DTD SVG 1.1//EN"
        "http://www.w3.org/Graphics/SVG/1.1/DTD/svg11.dtd">
<svg class="icon" width="200px" height="200.00px" viewBox="0 0 1024 1024" version="1.1"
     xmlns="http://www.w3.org/2000/svg">
    <path d="M949.198364 501.879502 831.594899 396.46566 831.594899 207.516264c0-17.661242-14.317077-31.978319-31.978319-31.978319L668.008146 175.537945c-17.661242 0-31.978319 14.317077-31.978319 31.978319l0 13.654998-102.235452-91.639117c-12.147668-10.889001-30.541597-10.889001-42.689265 0L75.701123 501.879502c-9.868765 8.845459-13.257955 22.861684-8.523117 35.238572 4.734838 12.377912 16.614399 20.552082 29.867238 20.552082l68.531839 0 0 364.898711c0 17.661242 14.317077 31.978319 31.978319 31.978319l227.355101 0L599.988983 954.547185l223.536123 0c17.661242 0 31.978319-14.317077 31.978319-31.978319L855.503425 557.670156l72.349795 0c13.251815 0 25.1324-8.17417 29.867238-20.552082C962.456319 524.741185 959.067128 510.72496 949.198364 501.879502zM456.888821 890.590548 456.888821 715.791429 568.010665 715.791429l0 174.799118L456.888821 890.590548zM791.546787 890.590548 631.967302 890.590548 631.967302 683.813111c0-17.661242-14.317077-31.978319-31.978319-31.978319L424.910503 651.834792c-17.661242 0-31.978319 14.317077-31.978319 31.978319l0 206.777437L229.53372 890.590548l0-332.707544 562.013067 0L791.546787 890.590548zM512.449231 196.288548l134.213771 120.302947c9.395998 8.422833 22.8668 10.529821 34.384112 5.386684 11.521404-5.14416 18.939351-16.582677 18.939351-29.199019l0-53.284577 67.651796 0 0 171.252339c0 9.087982 3.866051 17.746176 10.634198 23.812335l65.995063 59.155285L180.631964 493.714542 512.449231 196.288548z"
          fill="#6e6e6e"/>
</svg>