<?xml version="1.0" standalone="no"?><!DOCTYPE svg PUBLIC "-//W3C//DTD SVG 1.1//EN"
        "http://www.w3.org/Graphics/SVG/1.1/DTD/svg11.dtd">
<svg class="icon" width="200px" height="189.98px" viewBox="0 0 1078 1024" version="1.1"
     xmlns="http://www.w3.org/2000/svg">
    <path d="M879.74227 494.221646C870.158228 494.221646 862.379876 501.999999 862.379876 511.58404L862.379876 894.737354C862.379876 936.846945 828.118086 971.108735 786.00849 971.108735L651.114264 971.108735 651.114264 705.209457C651.114264 695.625415 643.335912 687.847063 633.75187 687.847063L444.108227 687.847063C434.524186 687.847063 426.745833 695.625415 426.745833 705.209457L426.745833 971.108735 291.805307 971.108735C249.718864 971.108735 215.480223 936.846945 215.480223 894.737354L215.480223 511.58404C215.480223 501.999999 207.70187 494.221646 198.117829 494.221646 188.533787 494.221646 180.755434 501.999999 180.755434 511.58404L180.755434 894.737354C180.755434 955.991875 230.573931 1005.833523 291.805307 1005.833523L786.00849 1005.833523C847.263016 1005.833523 897.104664 955.991875 897.104664 894.737354L897.104664 511.58404C897.104664 501.999999 889.326312 494.221646 879.74227 494.221646L879.74227 494.221646ZM461.470621 722.571851 616.389476 722.571851 616.389476 971.085587 461.470621 971.085587 461.470621 722.571851ZM1051.305871 365.716781 925.810489 275.223983C909.39724 263.324955 894.974874 235.221027 894.974874 215.08065L894.974874 66.273358C894.974874 30.877224 866.176453 2.0788 830.803467 2.0788L786.749284 2.0788C751.399451 2.0788 722.647326 30.877224 722.647326 66.273358L722.647326 115.721456C722.647326 122.064518 721.165738 124.9351 721.003687 125.166599 720.471239 125.166599 717.48491 124.9814 712.114144 121.092224L582.336032 27.451045C566.594129 16.038165 553.884855 6.824521 551.153174 4.717884 547.796442 1.824152 543.189623-0.120436 538.906899 0.018463 534.855674-0.213036 530.133102 1.754702 526.776373 4.671584 523.790041 6.98657 508.071287 18.376301 489.5514 31.803219L26.600526 365.716781C12.71061 375.763819 3.566416 390.626029 0.834733 407.618025-1.896951 424.586872 2.131125 441.555718 12.108714 455.306734L29.725756 479.845584C41.578484 496.328284 60.491919 505.773426 81.60459 505.773426L81.62774 505.773426C83.850126 505.773426 86.095662 505.657677 88.341199 505.449328 91.39698 505.14838 94.313862 504.060336 96.814047 502.254648L538.930049 183.272744 981.1155 502.254648C983.615682 504.060336 986.532568 505.14838 989.588351 505.449328 991.833886 505.657677 994.079421 505.773426 996.324956 505.773426 1017.50708 505.773426 1036.397363 496.305134 1048.064889 479.868734L1065.774533 455.329884C1086.493658 426.600909 1079.988547 386.412754 1051.305871 365.716781L1051.305871 365.716781ZM1037.624304 435.004308 1019.845212 459.658907C1014.844842 466.650165 1006.626644 470.793989 997.204652 471.048638L549.231735 147.87661 549.208587 147.89976C543.397969 143.663336 534.369526 143.501287 528.350563 148.108109L80.724895 471.048638C71.279753 470.793989 63.015253 466.650165 57.922285 459.566308L40.282092 434.981158C35.69842 428.684396 33.869581 420.929194 35.119674 413.127691 36.369766 405.303039 40.55989 398.473831 46.926102 393.890158L509.923276 59.953447C523.558542 50.045307 532.679587 43.424448 538.906899 38.794476 544.185069 42.683652 551.569871 48.00812 561.941008 55.554974L691.811716 149.288751C701.604104 156.303159 711.419645 159.891387 721.003687 159.891387 739.106875 159.891387 757.372114 146.232971 757.372114 115.721456L757.372114 66.273358C757.372114 50.022157 770.544387 36.803588 786.749284 36.803588L830.803467 36.803588C847.031517 36.803588 860.250085 50.022157 860.250085 66.273358L860.250085 215.08065C860.250085 246.24036 880.112667 285.016373 905.484913 303.374211L1031.003443 393.890158C1044.152563 403.381601 1047.115749 421.832038 1037.624304 435.004308L1037.624304 435.004308Z"
          fill="#6E6E6E"/>
</svg>