<?xml version="1.0" standalone="no"?><!DOCTYPE svg PUBLIC "-//W3C//DTD SVG 1.1//EN" "http://www.w3.org/Graphics/SVG/1.1/DTD/svg11.dtd"><svg class="icon" width="200px" height="200.00px" viewBox="0 0 1024 1024" version="1.1" xmlns="http://www.w3.org/2000/svg"><path fill="#6e6e6e" d="M384 480H192c-52.8 0-96-43.2-96-96V192c0-52.8 43.2-96 96-96h192c52.8 0 96 43.2 96 96v192c0 52.8-43.2 96-96 96zM192 160c-17.6 0-32 14.4-32 32v192c0 17.6 14.4 32 32 32h192c17.6 0 32-14.4 32-32V192c0-17.6-14.4-32-32-32H192zM832 480H640c-52.8 0-96-43.2-96-96V192c0-52.8 43.2-96 96-96h192c52.8 0 96 43.2 96 96v192c0 52.8-43.2 96-96 96zM640 160c-17.6 0-32 14.4-32 32v192c0 17.6 14.4 32 32 32h192c17.6 0 32-14.4 32-32V192c0-17.6-14.4-32-32-32H640zM384 928H192c-52.8 0-96-43.2-96-96V640c0-52.8 43.2-96 96-96h192c52.8 0 96 43.2 96 96v192c0 52.8-43.2 96-96 96zM192 608c-17.6 0-32 14.4-32 32v192c0 17.6 14.4 32 32 32h192c17.6 0 32-14.4 32-32V640c0-17.6-14.4-32-32-32H192zM832 928H640c-52.8 0-96-43.2-96-96V640c0-52.8 43.2-96 96-96h192c52.8 0 96 43.2 96 96v192c0 52.8-43.2 96-96 96zM640 608c-17.6 0-32 14.4-32 32v192c0 17.6 14.4 32 32 32h192c17.6 0 32-14.4 32-32V640c0-17.6-14.4-32-32-32H640z"  /></svg>