<?xml version="1.0" standalone="no"?><!DOCTYPE svg PUBLIC "-//W3C//DTD SVG 1.1//EN" "http://www.w3.org/Graphics/SVG/1.1/DTD/svg11.dtd"><svg class="icon" width="200px" height="200.00px" viewBox="0 0 1024 1024" version="1.1" xmlns="http://www.w3.org/2000/svg"><path d="M891.136 667.904l-84.0704-116.3776V438.4768c0-111.6672-66.0992-211.8656-169.8816-260.096-11.4688-60.2112-66.7648-106.2912-132.0448-106.2912s-120.576 46.08-132.0448 106.2912c-103.7824 48.2304-169.8816 148.48-169.8816 260.096v127.1808l-70.2976 104.96c-18.944 28.3136-20.736 63.0784-4.7104 93.0304 16.5376 30.976 49.152 50.176 85.1456 50.176h139.4688c9.9328 73.3696 72.96 130.1504 149.0432 130.1504h22.2208c82.944 0 150.4256-67.4816 150.4256-150.4256 0-23.0912-18.7904-41.8304-41.8304-41.8304H393.3184c-2.5088 0-4.9664 0.256-7.3728 0.7168h-172.544c-13.4656 0-25.0368-6.6048-30.9248-17.664-2.4576-4.608-7.2192-16.7424 1.5872-29.9008l75.4688-112.7424c3.3792-5.0688 5.1712-11.008 5.1712-17.1008V438.4768c0-92.3136 58.2144-174.8992 148.2752-210.3808a30.75584 30.75584 0 0 0 19.456-27.9552c0.768-36.7616 33.4336-66.6624 72.7552-66.6624s71.9872 29.9008 72.7552 66.6624a30.75584 30.75584 0 0 0 19.456 27.9552c90.0608 35.4816 148.2752 118.0672 148.2752 210.3808v123.0336c0 6.4512 2.048 12.7488 5.8368 17.9712l89.856 124.416c9.5232 13.1584 4.9152 25.6 2.4576 30.3104-5.8368 11.3664-17.4592 18.176-31.1808 18.176h-30.5664c-16.9472 0-30.72 13.7728-30.72 30.72s13.7728 30.72 30.72 30.72h30.5664c36.7104 0 69.5808-19.7632 85.8624-51.6096 15.7696-30.8736 13.0048-66.0992-7.3728-94.3104z m-367.0016 214.6304h-22.2208c-42.1376 0-77.5168-29.44-86.6816-68.8128 1.3824-0.1024 2.7648-0.3072 4.096-0.5632h191.6416c-8.96 39.6288-44.4928 69.376-86.8352 69.376z" fill="#474747" /><path d="M362.5984 546.7136c-14.592 0-27.4944-10.3936-30.208-25.2416-17.152-94.8736 9.7792-152.8832 33.8944-183.9616 13.056-16.8448 39.0144-15.2064 50.2272 2.9184 6.7072 10.8032 6.144 24.576-1.5872 34.7136-15.0528 19.8144-35.1744 61.44-22.3232 134.1952 2.56 14.3872-4.4032 29.2352-17.8688 34.9184-3.9936 1.6896-8.1408 2.4576-12.1344 2.4576z" fill="#4F95FC" /></svg>