<?xml version="1.0" standalone="no"?><!DOCTYPE svg PUBLIC "-//W3C//DTD SVG 1.1//EN" "http://www.w3.org/Graphics/SVG/1.1/DTD/svg11.dtd"><svg class="icon" width="200px" height="200.00px" viewBox="0 0 1024 1024" version="1.1" xmlns="http://www.w3.org/2000/svg"><path fill="#6e6e6e" d="M517.461333 31.957333a218.752 218.752 0 0 1 115.626667 35.584c59.349333 38.058667 99.882667 100.736 118.613333 168.021334 4.48 16.128 7.765333 32.597333 9.856 49.237333 11.008 87.424-10.709333 180.352-66.346666 249.642667-10.282667 12.842667-21.76 24.576-34.133334 35.456l-0.256 0.213333-9.216 20.138667 90.752 23.04c5.845333 0 11.690667-0.042667 17.536 0.128a244.821333 244.821333 0 0 1 63.189334 10.965333 235.818667 235.818667 0 0 1 102.229333 65.578667c12.714667 13.994667 23.509333 29.44 32.682667 45.952 16.213333 30.506667 31.957333 61.269333 47.957333 91.904a115.2 115.2 0 0 1 12.416 44.672c0.682667 10.709333-0.213333 21.504-2.56 31.957333a113.237333 113.237333 0 0 1-60.842667 76.458667 113.706667 113.706667 0 0 1-45.184 11.093333c-264.021333 4.309333-528.085333 0.085333-792.149333 0.085333a112.64 112.64 0 0 1-72.490667-26.709333 113.28 113.28 0 0 1-39.68-89.301333 113.024 113.024 0 0 1 11.050667-45.226667c16-31.914667 32.725333-63.445333 49.493333-94.933333a235.477333 235.477333 0 0 1 150.272-115.84 241.706667 241.706667 0 0 1 55.893334-6.784h14.72l87.381333-22.186667-11.562667-25.216a291.797333 291.797333 0 0 1-17.450666-17.28 302.592 302.592 0 0 1-36.138667-48.938667 322.474667 322.474667 0 0 1-34.901333-86.144c-24.234667-97.450667-5.674667-207.317333 56.874666-287.061333 12.032-15.36 25.685333-29.525333 40.789334-41.941333a237.184 237.184 0 0 1 63.104-37.418667 219.050667 219.050667 0 0 1 75.861333-15.146667h6.613333z m-5.632 64a153.642667 153.642667 0 0 0-55.424 11.52c-48.042667 19.754667-83.968 61.696-104.874666 108.373334-26.24 58.709333-30.506667 127.232-13.44 189.098666A245.76 245.76 0 0 0 388.266667 500.650667c6.698667 7.722667 13.952 14.848 21.674666 21.546666l2.432 2.346667c0.725333 0.896 1.493333 1.706667 2.176 2.602667 1.834667 2.432 2.090667 3.2 3.498667 5.888l30.421333 66.304a32.298667 32.298667 0 0 1-9.472 38.613333 35.541333 35.541333 0 0 1-11.776 5.717333l-128.426666 32.64c-2.602667 0.512-2.602667 0.512-5.248 0.853334-9.045333 0.384-18.133333 0-27.221334 0.213333a171.605333 171.605333 0 0 0-144.085333 89.088c-16.256 30.592-32.512 61.184-48.042667 92.117333a50.773333 50.773333 0 0 0-4.736 19.498667c-0.597333 18.944 10.325333 36.949333 27.392 45.184 6.101333 2.944 12.672 4.437333 19.456 4.778667 263.765333 4.266667 527.616 4.266667 791.381334 0 6.784-0.341333 13.354667-1.834667 19.456-4.778667 17.109333-8.234667 27.989333-26.24 27.392-45.184a50.773333 50.773333 0 0 0-4.736-19.498667c-15.530667-30.933333-31.786667-61.525333-48.042667-92.117333a177.92 177.92 0 0 0-23.765333-33.408 171.861333 171.861333 0 0 0-117.376-55.552c-7.424-0.384-14.848-0.213333-22.272-0.213333l-2.645334-0.128c-2.645333-0.341333-2.602667-0.341333-5.205333-0.853334l-131.882667-33.493333a36.053333 36.053333 0 0 1-11.776-5.76 32.256 32.256 0 0 1-12.117333-29.098667 38.186667 38.186667 0 0 1 2.688-9.472l28.245333-61.610666c1.194667-2.304 1.408-2.901333 2.858667-5.034667 1.493333-2.133333 2.005333-2.517333 3.754667-4.437333 3.797333-3.413333 7.808-6.613333 11.605333-10.069334 7.68-7.168 14.848-14.805333 21.418667-22.954666a248.192 248.192 0 0 0 45.354666-90.965334c16.554667-61.482667 12.16-129.322667-13.866666-187.562666-20.565333-45.994667-55.765333-87.338667-102.741334-107.477334a153.728 153.728 0 0 0-55.253333-12.373333l-6.954667-0.042667z" /></svg>