<?xml version="1.0" standalone="no"?><!DOCTYPE svg PUBLIC "-//W3C//DTD SVG 1.1//EN"
        "http://www.w3.org/Graphics/SVG/1.1/DTD/svg11.dtd">
<svg class="icon" width="200px" height="200.00px" viewBox="0 0 1024 1024" version="1.1"
     xmlns="http://www.w3.org/2000/svg">
    <path fill="#6E6E6E"
          d="M804.565333 170.666667c44.757333 0 80.768 36.736 80.768 81.792V693.333333c0 45.013333-36.010667 81.792-80.768 81.792l-181.589333-0.042666L512 888.405333l-111.018667-113.322666H219.434667A81.194667 81.194667 0 0 1 138.922667 699.733333l-0.256-6.357333V252.458667C138.666667 207.36 174.677333 170.666667 219.434667 170.666667z m0 64H219.434667a17.28 17.28 0 0 0-16.768 17.792V693.333333c0 9.941333 7.68 17.792 16.768 17.792h208.512L512 796.928l84.053333-85.802667h208.512a17.28 17.28 0 0 0 16.768-17.792V252.458667a17.28 17.28 0 0 0-16.768-17.792zM469.333333 341.333333a32 32 0 0 1 31.701334 27.648l0.298666 4.352V512H640a32 32 0 0 1 31.701333 27.648l0.298667 4.352a32 32 0 0 1-27.648 31.701333L640 576h-202.666667V373.333333A32 32 0 0 1 469.333333 341.333333z"
          />
</svg>