<?xml version="1.0" standalone="no"?><!DOCTYPE svg PUBLIC "-//W3C//DTD SVG 1.1//EN" "http://www.w3.org/Graphics/SVG/1.1/DTD/svg11.dtd"><svg class="icon" width="200px" height="200.00px" viewBox="0 0 1024 1024" version="1.1" xmlns="http://www.w3.org/2000/svg"><path fill="#6E6E6E" d="M298.666667 192c-29.44 0-53.333333 23.893333-53.333334 53.333333V746.666667c0 29.44 23.893333 53.333333 53.333334 53.333333h213.333333a32 32 0 0 1 0 64H298.666667a117.333333 117.333333 0 0 1-117.333334-117.333333V245.333333A117.333333 117.333333 0 0 1 298.666667 128h426.666666a117.333333 117.333333 0 0 1 117.333334 117.333333v234.666667a32 32 0 0 1-64 0v-234.666667c0-29.44-23.893333-53.333333-53.333334-53.333333H298.666667z"  /><path fill="#6E6E6E" d="M330.666667 288a32 32 0 0 0 0 64h341.333333a32 32 0 0 0 0-64h-341.333333zM330.666667 437.333333h213.333333a32 32 0 0 1 0 64h-213.333333a32 32 0 0 1 0-64zM789.333333 820.266667v-170.538667l-46.165333 38.485333a85.333333 85.333333 0 0 1-54.613333 19.754667H640v64h51.072a85.333333 85.333333 0 0 1 47.36 14.336l50.901333 33.962667z m-10.410666 44.373333l-64.170667-42.837333a42.666667 42.666667 0 0 0-23.68-7.168H640a42.453333 42.453333 0 0 1-34.133333-17.066667 42.453333 42.453333 0 0 1-8.533334-25.6v-64a42.453333 42.453333 0 0 1 17.066667-34.133333 42.453333 42.453333 0 0 1 25.6-8.533334h48.554667a42.666667 42.666667 0 0 0 27.306666-9.856l60.16-50.133333a33.536 33.536 0 0 1 22.869334-7.936c9.386667 0.298667 18.346667 4.522667 24.576 11.52 5.205333 5.802667 8.533333 13.568 8.533333 22.613333V836.266667c0 8.96-3.285333 16.768-8.533333 22.613333a34.773333 34.773333 0 0 1-20.949334 11.221333 33.621333 33.621333 0 0 1-23.594666-5.461333z"  /></svg>