<?xml version="1.0" standalone="no"?><!DOCTYPE svg PUBLIC "-//W3C//DTD SVG 1.1//EN" "http://www.w3.org/Graphics/SVG/1.1/DTD/svg11.dtd"><svg class="icon" width="200px" height="200.00px" viewBox="0 0 1024 1024" version="1.1" xmlns="http://www.w3.org/2000/svg"><path fill="#6E6E6E" d="M171.5 548.5h92v97h-92zM650.644 418.5c0-12.783-10.374-23-23.156-23H324.694c-12.783 0-23.156 10.217-23.156 23s10.375 23 23.156 23h302.794c12.781 0 23.156-10.217 23.156-23zM465.393 598c0-12.783-10.374-22.5-23.156-22.5H324.694c-12.783 0-23.156 9.717-23.156 22.5s10.375 22.5 23.156 22.5h117.542c12.829 0 23.157-9.717 23.157-22.5zM448.921 928.5H121.804c-30.072 0-55.304-23.508-55.304-53.58V292.244c0-30.073 25.231-54.744 55.304-54.744H776.042c30.072 0 55.459 24.673 55.459 54.744v255.559c0 15.036 11.936 27.288 26.973 27.288 15.036 0 27.027-12.196 27.027-27.288V292.244c0-60.2-49.259-109.744-109.459-109.744H121.804c-60.2 0-110.304 49.544-110.304 109.744v582.675c0 60.2 50.104 108.581 110.304 108.581h327.117c15.036 0 27.288-12.437 27.288-27.528 0-15.035-12.196-27.472-27.288-27.472zM324.694 755.5c-12.783 0-23.156 9.717-23.156 22.5s10.375 22.5 23.156 22.5h58.771c12.783 0 23.156-9.717 23.156-22.5s-10.374-22.5-23.156-22.5h-58.771zM171.5 368.5h92v98h-92zM171.5 728.5h92v98h-92zM846.43 782.7c-8.131-5.013-7.852-22.833-9.189-27.956-1.504-5.736 1.225-19.491 10.246-30.685 9.245-11.472 24.893-20.326 25.06-22.109 1.615-17.82-3.842-37.869-23.612-51.569-11.472-7.964-27.621 9.801-46.11 11.026-12.53 0.835-20.773-10.414-23.39-12.307-37.367-27.12-12.362-60.701-15.871-66.604-3.119-5.235-27.789-24.225-51.791-17.932-22.443 5.847-15.537 33.692-32.578 45.721-5.401 3.788-21.106 4.4-30.295 3.341-31.799-3.62-36.309-44.05-58.362-38.091-21.385 5.791-39.094 22.889-40.375 36.81-1.281 14.424 15.537 23.556 14.814 38.649-0.39 7.853-9.467 17.153-12.92 23.613-2.84 5.29-15.649 13.31-30.295 13.755-11.918 0.39-25.339-6.627-33.414-4.622-5.848 1.448-16.484 12.92-17.82 23.89-1.615 13.199-7.406 25.339 1.726 38.76 9.801 14.424 21.551 6.682 35.696 19.825 9.021 8.409 7.295 18.6 7.964 23 1.393 9.467-1.225 25.506-10.246 36.533-6.349 7.741-20.215 11.305-22.554 18.767-7.351 23.612 8.019 44.273 18.377 52.181 14.201 10.86 36.197-9.021 54.074-10.024 9.912-0.556 17.542 7.741 22.554 13.755 6.516 7.852 13.142 17.542 13.142 30.463 0 9.969-5.847 22.331-2.284 30.907 6.126 14.925 29.571 22.165 46.611 22.165 21.941 0 22.22-29.682 34.471-43.828 8.855-10.246 20.271-7.964 24.003-8.13 7.24-0.39 20.494 0.724 31.52 10.024 5.847 4.956 8.799 18.21 14.59 22.109 11.527 7.796 22.499 7.741 27.956 4.789 12.14-6.515 23.724-10.414 33.636-25.895 6.682-10.414-11.75-25.617-11.917-43.215-0.111-15.816 14.145-28.513 16.93-32.578s18.489-10.246 30.908-9.801c13.977 0.445 26.341 4.677 28.624 3.564 8.688-4.4 9.969-8.744 14.424-19.825 4.065-10.08 4.4-16.484 4.4-27.789-0.054-17.322-23.61-21.388-38.703-30.687z m-169.295 88.322c-53.071 0-96.064-42.992-96.064-96.064 0-53.016 42.992-96.007 96.064-96.007 53.016 0 96.007 42.992 96.007 96.008 0.002 53.071-42.991 96.063-96.007 96.063zM903.696 40.5H98.65c-32.959 0-44.18 33.503-34.597 53.556 8.564 17.922 37.402 19.444 50.504 1.444h789.14c30.072 0 53.804 23.038 53.804 53.11v255.557c0 15.036 11.936 27.287 26.973 27.287 15.036 0 27.027-12.196 27.027-27.287V148.61C1011.5 88.41 963.896 40.5 903.696 40.5z" /></svg>