<?xml version="1.0" standalone="no"?><!DOCTYPE svg PUBLIC "-//W3C//DTD SVG 1.1//EN" "http://www.w3.org/Graphics/SVG/1.1/DTD/svg11.dtd"><svg class="icon" width="200px" height="177.78px" viewBox="0 0 1152 1024" version="1.1" xmlns="http://www.w3.org/2000/svg"><path fill="#6e6e6e" d="M446.20062 448c0-70.6 59.2-128 129.8-128 70.6 0 128 57.4 128 128s-57.4 128-128 128-129.8-57.4-129.8-128z m129.8 64c35.4 0 64-28.6 64-64s-28.6-64-64-64-65.8 28.6-65.8 64 30.4 64 65.8 64z m-161.8 288c0 17.6-12.6 32-32 32-15.8 0-32-14.4-32-32v-16c0-79.6 66.2-144 144-144H656.00062c79.6 0 144 64.4 144 144v16c0 17.6-14.4 32-32 32s-32-14.4-32-32v-16c0-44.2-35.8-80-80-80h-161.8c-42.4 0-80 35.8-80 80v16zM554.80062 8.004a32.078 32.078 0 0 1 42.4 0L1141.20062 488c13.2 11.6 14.4 30.2 1 45.2-9.8 13.2-30.2 14.4-43.4 1l-74.8-66V864c0 88.4-71.6 160-160 160H288.00062c-88.36 0-160-71.6-160-160V468.2l-74.82 66c-13.26 13.4-33.482 12.2-45.174-1-11.694-15-10.43-33.6 2.822-45.2L554.80062 8.004zM192.00062 413.4V864c0 53 43 96 96 96h576c53 0 96-43 96-96V413.4L576.00062 74.68 192.00062 413.4z" /></svg>